<?xml version="1.0" encoding="utf-8" standalone="no"?>
<!DOCTYPE svg PUBLIC "-//W3C//DTD SVG 1.1//EN"
  "http://www.w3.org/Graphics/SVG/1.1/DTD/svg11.dtd">
<svg xmlns:xlink="http://www.w3.org/1999/xlink" width="588.2275pt" height="407.635312pt" viewBox="0 0 588.2275 407.635312" xmlns="http://www.w3.org/2000/svg" version="1.1">
 <metadata>
  <rdf:RDF xmlns:dc="http://purl.org/dc/elements/1.1/" xmlns:cc="http://creativecommons.org/ns#" xmlns:rdf="http://www.w3.org/1999/02/22-rdf-syntax-ns#">
   <cc:Work>
    <dc:type rdf:resource="http://purl.org/dc/dcmitype/StillImage"/>
    <dc:date>2025-01-26T16:00:43.212966</dc:date>
    <dc:format>image/svg+xml</dc:format>
    <dc:creator>
     <cc:Agent>
      <dc:title>Matplotlib v3.9.2, https://matplotlib.org/</dc:title>
     </cc:Agent>
    </dc:creator>
   </cc:Work>
  </rdf:RDF>
 </metadata>
 <defs>
  <style type="text/css">*{stroke-linejoin: round; stroke-linecap: butt}</style>
 </defs>
 <g id="figure_1">
  <g id="patch_1">
   <path d="M 0 407.635312 
L 588.2275 407.635312 
L 588.2275 0 
L 0 0 
z
" style="fill: #ffffff"/>
  </g>
  <g id="axes_1">
   <g id="patch_2">
    <path d="M 47.78125 366.079062 
L 278.66125 366.079062 
L 278.66125 87.919062 
L 47.78125 87.919062 
z
" style="fill: #ffffff"/>
   </g>
   <g id="PolyCollection_1">
    <defs>
     <path id="m8efd86bc3f" d="M 55.228992 -123.855446 
L 55.228992 -91.137018 
L 62.676734 -88.014079 
L 70.124476 -260.063394 
L 77.572218 -279.70898 
L 85.01996 -284.883157 
L 92.467702 -297.101615 
L 99.915444 -297.101615 
L 107.363185 -281.319889 
L 114.810927 -283.066478 
L 122.258669 -286.676568 
L 129.706411 -277.138418 
L 137.154153 -281.322302 
L 144.601895 -288.74965 
L 152.049637 -289.640651 
L 159.497379 -290.24311 
L 166.945121 -297.101615 
L 174.392863 -297.101578 
L 181.840605 -289.247715 
L 189.288347 -297.101615 
L 196.736089 -297.101616 
L 204.183831 -297.101616 
L 211.631573 -292.274 
L 219.079315 -292.430071 
L 226.527056 -293.08997 
L 233.974798 -292.860501 
L 241.42254 -291.416234 
L 248.870282 -297.101616 
L 256.318024 -293.781475 
L 263.765766 -297.101616 
L 271.213508 -297.101616 
L 271.213508 -297.101616 
L 271.213508 -297.101616 
L 263.765766 -297.101616 
L 256.318024 -296.830778 
L 248.870282 -297.101616 
L 241.42254 -294.898622 
L 233.974798 -296.75565 
L 226.527056 -296.774369 
L 219.079315 -296.720538 
L 211.631573 -296.707806 
L 204.183831 -297.101616 
L 196.736089 -297.101616 
L 189.288347 -297.101616 
L 181.840605 -293.93021 
L 174.392863 -297.101613 
L 166.945121 -297.101616 
L 159.497379 -296.542138 
L 152.049637 -296.492993 
L 144.601895 -296.42031 
L 137.154153 -290.728248 
L 129.706411 -295.473133 
L 122.258669 -296.2512 
L 114.810927 -295.956709 
L 107.363185 -295.814233 
L 99.915444 -297.101616 
L 92.467702 -297.101616 
L 85.01996 -296.869129 
L 77.572218 -294.681792 
L 70.124476 -289.922532 
L 62.676734 -125.649619 
L 55.228992 -123.855446 
z
" style="stroke: #377eb8; stroke-opacity: 0.1"/>
    </defs>
    <g clip-path="url(#p820fbce1f5)">
     <use xlink:href="#m8efd86bc3f" x="0" y="407.635312" style="fill: #377eb8; fill-opacity: 0.1; stroke: #377eb8; stroke-opacity: 0.1"/>
    </g>
   </g>
   <g id="PolyCollection_2">
    <defs>
     <path id="m52676ceb28" d="M 55.228992 -128.895611 
L 55.228992 -89.165478 
L 62.676734 -116.538519 
L 70.124476 -129.157285 
L 77.572218 -156.49764 
L 85.01996 -162.546921 
L 92.467702 -155.605486 
L 99.915444 -171.144059 
L 107.363185 -171.33425 
L 114.810927 -173.7976 
L 122.258669 -174.267949 
L 129.706411 -176.915283 
L 137.154153 -184.567814 
L 144.601895 -185.823456 
L 152.049637 -184.651749 
L 159.497379 -184.046332 
L 166.945121 -187.316288 
L 174.392863 -189.001753 
L 181.840605 -184.675144 
L 189.288347 -187.093604 
L 196.736089 -187.10586 
L 204.183831 -188.707211 
L 211.631573 -187.760508 
L 219.079315 -189.83162 
L 226.527056 -190.326834 
L 233.974798 -190.017368 
L 241.42254 -187.686631 
L 248.870282 -187.482027 
L 256.318024 -187.338199 
L 263.765766 -187.431895 
L 271.213508 -188.594636 
L 271.213508 -228.346351 
L 271.213508 -228.346351 
L 263.765766 -227.21311 
L 256.318024 -226.465762 
L 248.870282 -227.431322 
L 241.42254 -226.24069 
L 233.974798 -227.316847 
L 226.527056 -228.680546 
L 219.079315 -226.588919 
L 211.631573 -225.052772 
L 204.183831 -226.525399 
L 196.736089 -225.638034 
L 189.288347 -225.133233 
L 181.840605 -221.850409 
L 174.392863 -225.673892 
L 166.945121 -224.166512 
L 159.497379 -219.724676 
L 152.049637 -222.525792 
L 144.601895 -220.853213 
L 137.154153 -219.33007 
L 129.706411 -211.616098 
L 122.258669 -206.481162 
L 114.810927 -202.150447 
L 107.363185 -206.351973 
L 99.915444 -203.40445 
L 92.467702 -190.476419 
L 85.01996 -199.667477 
L 77.572218 -193.014001 
L 70.124476 -162.649157 
L 62.676734 -152.257662 
L 55.228992 -128.895611 
z
" style="stroke: #e41a1c; stroke-opacity: 0.1"/>
    </defs>
    <g clip-path="url(#p820fbce1f5)">
     <use xlink:href="#m52676ceb28" x="0" y="407.635312" style="fill: #e41a1c; fill-opacity: 0.1; stroke: #e41a1c; stroke-opacity: 0.1"/>
    </g>
   </g>
   <g id="PolyCollection_3">
    <defs>
     <path id="m31791e7244" d="M 55.228992 -220.507051 
L 55.228992 -169.737214 
L 62.676734 -107.612666 
L 70.124476 -160.865673 
L 77.572218 -158.452102 
L 85.01996 -146.743772 
L 92.467702 -119.4932 
L 99.915444 -116.352814 
L 107.363185 -107.275828 
L 114.810927 -113.39126 
L 122.258669 -110.973466 
L 129.706411 -100.532896 
L 137.154153 -108.293197 
L 144.601895 -107.396295 
L 152.049637 -112.910469 
L 159.497379 -107.99159 
L 166.945121 -114.637985 
L 174.392863 -109.122484 
L 181.840605 -109.510988 
L 189.288347 -109.341251 
L 196.736089 -110.620062 
L 204.183831 -109.159323 
L 211.631573 -110.564963 
L 219.079315 -109.212159 
L 226.527056 -112.36304 
L 233.974798 -114.927198 
L 241.42254 -114.758645 
L 248.870282 -114.196516 
L 256.318024 -113.335511 
L 263.765766 -112.779063 
L 271.213508 -113.046349 
L 271.213508 -188.354073 
L 271.213508 -188.354073 
L 263.765766 -186.539552 
L 256.318024 -185.546088 
L 248.870282 -187.881525 
L 241.42254 -187.575705 
L 233.974798 -186.222398 
L 226.527056 -185.735176 
L 219.079315 -181.632726 
L 211.631573 -179.809611 
L 204.183831 -180.283661 
L 196.736089 -179.515479 
L 189.288347 -178.963789 
L 181.840605 -173.947486 
L 174.392863 -171.374321 
L 166.945121 -171.295134 
L 159.497379 -164.075881 
L 152.049637 -164.201995 
L 144.601895 -160.769159 
L 137.154153 -164.810373 
L 129.706411 -167.161486 
L 122.258669 -178.417824 
L 114.810927 -173.818392 
L 107.363185 -185.976954 
L 99.915444 -195.743514 
L 92.467702 -194.388327 
L 85.01996 -208.426523 
L 77.572218 -203.127492 
L 70.124476 -204.621629 
L 62.676734 -148.989148 
L 55.228992 -220.507051 
z
" style="stroke: #984ea3; stroke-opacity: 0.1"/>
    </defs>
    <g clip-path="url(#p820fbce1f5)">
     <use xlink:href="#m31791e7244" x="0" y="407.635312" style="fill: #984ea3; fill-opacity: 0.1; stroke: #984ea3; stroke-opacity: 0.1"/>
    </g>
   </g>
   <g id="PolyCollection_4">
    <defs>
     <path id="m152e8e8fe2" d="M 55.228992 -243.32761 
L 55.228992 -205.474653 
L 62.676734 -214.236244 
L 70.124476 -264.237101 
L 77.572218 -274.002616 
L 85.01996 -262.542355 
L 92.467702 -275.019986 
L 99.915444 -287.451288 
L 107.363185 -279.3803 
L 114.810927 -275.908651 
L 122.258669 -279.60202 
L 129.706411 -271.419679 
L 137.154153 -277.461955 
L 144.601895 -278.665323 
L 152.049637 -279.439535 
L 159.497379 -281.627647 
L 166.945121 -288.938522 
L 174.392863 -286.727211 
L 181.840605 -281.029715 
L 189.288347 -289.774833 
L 196.736089 -293.125536 
L 204.183831 -290.355989 
L 211.631573 -291.052967 
L 219.079315 -289.413647 
L 226.527056 -286.000598 
L 233.974798 -291.101692 
L 241.42254 -288.95584 
L 248.870282 -288.69071 
L 256.318024 -287.405176 
L 263.765766 -294.239397 
L 271.213508 -294.265273 
L 271.213508 -295.978722 
L 271.213508 -295.978722 
L 263.765766 -295.96775 
L 256.318024 -293.784875 
L 248.870282 -293.737487 
L 241.42254 -292.631655 
L 233.974798 -294.354199 
L 226.527056 -291.609724 
L 219.079315 -293.577384 
L 211.631573 -294.794547 
L 204.183831 -294.30781 
L 196.736089 -295.584361 
L 189.288347 -294.110886 
L 181.840605 -289.048954 
L 174.392863 -292.921107 
L 166.945121 -294.676089 
L 159.497379 -291.878268 
L 152.049637 -288.799647 
L 144.601895 -290.808905 
L 137.154153 -286.116529 
L 129.706411 -287.665628 
L 122.258669 -291.040971 
L 114.810927 -285.870263 
L 107.363185 -292.937722 
L 99.915444 -293.240857 
L 92.467702 -286.819181 
L 85.01996 -281.542234 
L 77.572218 -285.734818 
L 70.124476 -277.450673 
L 62.676734 -245.30109 
L 55.228992 -243.32761 
z
" style="stroke: #4daf4a; stroke-opacity: 0.1"/>
    </defs>
    <g clip-path="url(#p820fbce1f5)">
     <use xlink:href="#m152e8e8fe2" x="0" y="407.635312" style="fill: #4daf4a; fill-opacity: 0.1; stroke: #4daf4a; stroke-opacity: 0.1"/>
    </g>
   </g>
   <g id="PolyCollection_5">
    <defs>
     <path id="m52c5ca2cb5" d="M 55.228992 -96.424564 
L 55.228992 -70.955274 
L 62.676734 -78.201943 
L 70.124476 -74.634082 
L 77.572218 -86.868672 
L 85.01996 -87.097401 
L 92.467702 -86.241784 
L 99.915444 -90.709571 
L 107.363185 -81.64104 
L 114.810927 -88.475487 
L 122.258669 -88.580462 
L 129.706411 -85.302855 
L 137.154153 -88.584252 
L 144.601895 -91.564487 
L 152.049637 -96.013631 
L 159.497379 -94.615245 
L 166.945121 -97.224199 
L 174.392863 -99.129392 
L 181.840605 -93.334075 
L 189.288347 -95.103723 
L 196.736089 -96.756172 
L 204.183831 -98.059606 
L 211.631573 -97.143091 
L 219.079315 -100.883642 
L 226.527056 -101.902718 
L 233.974798 -100.92362 
L 241.42254 -100.654534 
L 248.870282 -104.080347 
L 256.318024 -104.101388 
L 263.765766 -105.820064 
L 271.213508 -107.334629 
L 271.213508 -146.568095 
L 271.213508 -146.568095 
L 263.765766 -145.065014 
L 256.318024 -143.275612 
L 248.870282 -143.775112 
L 241.42254 -140.151198 
L 233.974798 -139.796083 
L 226.527056 -141.035408 
L 219.079315 -138.576999 
L 211.631573 -135.809705 
L 204.183831 -136.854587 
L 196.736089 -135.689003 
L 189.288347 -134.098 
L 181.840605 -131.476083 
L 174.392863 -136.71525 
L 166.945121 -135.234961 
L 159.497379 -131.249283 
L 152.049637 -134.419159 
L 144.601895 -128.376621 
L 137.154153 -126.992603 
L 129.706411 -124.49887 
L 122.258669 -125.968187 
L 114.810927 -127.367064 
L 107.363185 -117.695814 
L 99.915444 -122.57484 
L 92.467702 -116.747018 
L 85.01996 -115.729797 
L 77.572218 -114.956335 
L 70.124476 -101.360062 
L 62.676734 -104.934431 
L 55.228992 -96.424564 
z
" style="stroke: #e41a1c; stroke-opacity: 0.1"/>
    </defs>
    <g clip-path="url(#p820fbce1f5)">
     <use xlink:href="#m52c5ca2cb5" x="0" y="407.635312" style="fill: #e41a1c; fill-opacity: 0.1; stroke: #e41a1c; stroke-opacity: 0.1"/>
    </g>
   </g>
   <g id="PolyCollection_6">
    <defs>
     <path id="m55c25e0830" d="M 55.228992 -70.955286 
L 55.228992 -70.955275 
L 62.676734 -70.955274 
L 70.124476 -70.955274 
L 77.572218 -70.955274 
L 85.01996 -70.955274 
L 92.467702 -70.955274 
L 99.915444 -70.955274 
L 107.363185 -70.955274 
L 114.810927 -70.955274 
L 122.258669 -70.955274 
L 129.706411 -70.955274 
L 137.154153 -70.955274 
L 144.601895 -70.955274 
L 152.049637 -70.955274 
L 159.497379 -70.955274 
L 166.945121 -70.955274 
L 174.392863 -70.955274 
L 181.840605 -70.955274 
L 189.288347 -70.955274 
L 196.736089 -70.955274 
L 204.183831 -70.955274 
L 211.631573 -70.955274 
L 219.079315 -70.955274 
L 226.527056 -70.955274 
L 233.974798 -70.955274 
L 241.42254 -70.955274 
L 248.870282 -70.955274 
L 256.318024 -70.955274 
L 263.765766 -70.955274 
L 271.213508 -70.955274 
L 271.213508 -70.955274 
L 271.213508 -70.955274 
L 263.765766 -70.955274 
L 256.318024 -73.161266 
L 248.870282 -70.955274 
L 241.42254 -73.374517 
L 233.974798 -73.751461 
L 226.527056 -73.503286 
L 219.079315 -74.001168 
L 211.631573 -74.116485 
L 204.183831 -70.955275 
L 196.736089 -70.955275 
L 189.288347 -70.955275 
L 181.840605 -74.23424 
L 174.392863 -70.955292 
L 166.945121 -70.955275 
L 159.497379 -75.406171 
L 152.049637 -75.732927 
L 144.601895 -76.373411 
L 137.154153 -77.570969 
L 129.706411 -83.903465 
L 122.258669 -77.717355 
L 114.810927 -80.091234 
L 107.363185 -81.193452 
L 99.915444 -70.955275 
L 92.467702 -70.955275 
L 85.01996 -70.955275 
L 77.572218 -70.955275 
L 70.124476 -70.955275 
L 62.676734 -70.955275 
L 55.228992 -70.955286 
z
" style="stroke: #377eb8; stroke-opacity: 0.1"/>
    </defs>
    <g clip-path="url(#p820fbce1f5)">
     <use xlink:href="#m55c25e0830" x="0" y="407.635312" style="fill: #377eb8; fill-opacity: 0.1; stroke: #377eb8; stroke-opacity: 0.1"/>
    </g>
   </g>
   <g id="matplotlib.axis_1">
    <g id="xtick_1">
     <g id="line2d_1">
      <path d="M 47.78125 366.079062 
L 47.78125 87.919062 
" clip-path="url(#p820fbce1f5)" style="fill: none; stroke: #b0b0b0; stroke-opacity: 0.3; stroke-width: 0.8; stroke-linecap: square"/>
     </g>
     <g id="line2d_2"/>
     <g id="text_1">
      <!-- 0 -->
      <g transform="translate(44.6 378.6775) scale(0.1 -0.1)">
       <defs>
        <path id="DejaVuSans-30" d="M 2034 4250 
Q 1547 4250 1301 3770 
Q 1056 3291 1056 2328 
Q 1056 1369 1301 889 
Q 1547 409 2034 409 
Q 2525 409 2770 889 
Q 3016 1369 3016 2328 
Q 3016 3291 2770 3770 
Q 2525 4250 2034 4250 
z
M 2034 4750 
Q 2819 4750 3233 4129 
Q 3647 3509 3647 2328 
Q 3647 1150 3233 529 
Q 2819 -91 2034 -91 
Q 1250 -91 836 529 
Q 422 1150 422 2328 
Q 422 3509 836 4129 
Q 1250 4750 2034 4750 
z
" transform="scale(0.015625)"/>
       </defs>
       <use xlink:href="#DejaVuSans-30"/>
      </g>
     </g>
    </g>
    <g id="xtick_2">
     <g id="line2d_3">
      <path d="M 77.572218 366.079062 
L 77.572218 87.919062 
" clip-path="url(#p820fbce1f5)" style="fill: none; stroke: #b0b0b0; stroke-opacity: 0.3; stroke-width: 0.8; stroke-linecap: square"/>
     </g>
     <g id="line2d_4"/>
     <g id="text_2">
      <!-- 4 -->
      <g transform="translate(74.390968 378.6775) scale(0.1 -0.1)">
       <defs>
        <path id="DejaVuSans-34" d="M 2419 4116 
L 825 1625 
L 2419 1625 
L 2419 4116 
z
M 2253 4666 
L 3047 4666 
L 3047 1625 
L 3713 1625 
L 3713 1100 
L 3047 1100 
L 3047 0 
L 2419 0 
L 2419 1100 
L 313 1100 
L 313 1709 
L 2253 4666 
z
" transform="scale(0.015625)"/>
       </defs>
       <use xlink:href="#DejaVuSans-34"/>
      </g>
     </g>
    </g>
    <g id="xtick_3">
     <g id="line2d_5">
      <path d="M 107.363185 366.079062 
L 107.363185 87.919062 
" clip-path="url(#p820fbce1f5)" style="fill: none; stroke: #b0b0b0; stroke-opacity: 0.3; stroke-width: 0.8; stroke-linecap: square"/>
     </g>
     <g id="line2d_6"/>
     <g id="text_3">
      <!-- 8 -->
      <g transform="translate(104.181935 378.6775) scale(0.1 -0.1)">
       <defs>
        <path id="DejaVuSans-38" d="M 2034 2216 
Q 1584 2216 1326 1975 
Q 1069 1734 1069 1313 
Q 1069 891 1326 650 
Q 1584 409 2034 409 
Q 2484 409 2743 651 
Q 3003 894 3003 1313 
Q 3003 1734 2745 1975 
Q 2488 2216 2034 2216 
z
M 1403 2484 
Q 997 2584 770 2862 
Q 544 3141 544 3541 
Q 544 4100 942 4425 
Q 1341 4750 2034 4750 
Q 2731 4750 3128 4425 
Q 3525 4100 3525 3541 
Q 3525 3141 3298 2862 
Q 3072 2584 2669 2484 
Q 3125 2378 3379 2068 
Q 3634 1759 3634 1313 
Q 3634 634 3220 271 
Q 2806 -91 2034 -91 
Q 1263 -91 848 271 
Q 434 634 434 1313 
Q 434 1759 690 2068 
Q 947 2378 1403 2484 
z
M 1172 3481 
Q 1172 3119 1398 2916 
Q 1625 2713 2034 2713 
Q 2441 2713 2670 2916 
Q 2900 3119 2900 3481 
Q 2900 3844 2670 4047 
Q 2441 4250 2034 4250 
Q 1625 4250 1398 4047 
Q 1172 3844 1172 3481 
z
" transform="scale(0.015625)"/>
       </defs>
       <use xlink:href="#DejaVuSans-38"/>
      </g>
     </g>
    </g>
    <g id="xtick_4">
     <g id="line2d_7">
      <path d="M 137.154153 366.079062 
L 137.154153 87.919062 
" clip-path="url(#p820fbce1f5)" style="fill: none; stroke: #b0b0b0; stroke-opacity: 0.3; stroke-width: 0.8; stroke-linecap: square"/>
     </g>
     <g id="line2d_8"/>
     <g id="text_4">
      <!-- 12 -->
      <g transform="translate(130.791653 378.6775) scale(0.1 -0.1)">
       <defs>
        <path id="DejaVuSans-31" d="M 794 531 
L 1825 531 
L 1825 4091 
L 703 3866 
L 703 4441 
L 1819 4666 
L 2450 4666 
L 2450 531 
L 3481 531 
L 3481 0 
L 794 0 
L 794 531 
z
" transform="scale(0.015625)"/>
        <path id="DejaVuSans-32" d="M 1228 531 
L 3431 531 
L 3431 0 
L 469 0 
L 469 531 
Q 828 903 1448 1529 
Q 2069 2156 2228 2338 
Q 2531 2678 2651 2914 
Q 2772 3150 2772 3378 
Q 2772 3750 2511 3984 
Q 2250 4219 1831 4219 
Q 1534 4219 1204 4116 
Q 875 4013 500 3803 
L 500 4441 
Q 881 4594 1212 4672 
Q 1544 4750 1819 4750 
Q 2544 4750 2975 4387 
Q 3406 4025 3406 3419 
Q 3406 3131 3298 2873 
Q 3191 2616 2906 2266 
Q 2828 2175 2409 1742 
Q 1991 1309 1228 531 
z
" transform="scale(0.015625)"/>
       </defs>
       <use xlink:href="#DejaVuSans-31"/>
       <use xlink:href="#DejaVuSans-32" x="63.623047"/>
      </g>
     </g>
    </g>
    <g id="xtick_5">
     <g id="line2d_9">
      <path d="M 166.945121 366.079062 
L 166.945121 87.919062 
" clip-path="url(#p820fbce1f5)" style="fill: none; stroke: #b0b0b0; stroke-opacity: 0.3; stroke-width: 0.8; stroke-linecap: square"/>
     </g>
     <g id="line2d_10"/>
     <g id="text_5">
      <!-- 16 -->
      <g transform="translate(160.582621 378.6775) scale(0.1 -0.1)">
       <defs>
        <path id="DejaVuSans-36" d="M 2113 2584 
Q 1688 2584 1439 2293 
Q 1191 2003 1191 1497 
Q 1191 994 1439 701 
Q 1688 409 2113 409 
Q 2538 409 2786 701 
Q 3034 994 3034 1497 
Q 3034 2003 2786 2293 
Q 2538 2584 2113 2584 
z
M 3366 4563 
L 3366 3988 
Q 3128 4100 2886 4159 
Q 2644 4219 2406 4219 
Q 1781 4219 1451 3797 
Q 1122 3375 1075 2522 
Q 1259 2794 1537 2939 
Q 1816 3084 2150 3084 
Q 2853 3084 3261 2657 
Q 3669 2231 3669 1497 
Q 3669 778 3244 343 
Q 2819 -91 2113 -91 
Q 1303 -91 875 529 
Q 447 1150 447 2328 
Q 447 3434 972 4092 
Q 1497 4750 2381 4750 
Q 2619 4750 2861 4703 
Q 3103 4656 3366 4563 
z
" transform="scale(0.015625)"/>
       </defs>
       <use xlink:href="#DejaVuSans-31"/>
       <use xlink:href="#DejaVuSans-36" x="63.623047"/>
      </g>
     </g>
    </g>
    <g id="xtick_6">
     <g id="line2d_11">
      <path d="M 196.736089 366.079062 
L 196.736089 87.919062 
" clip-path="url(#p820fbce1f5)" style="fill: none; stroke: #b0b0b0; stroke-opacity: 0.3; stroke-width: 0.8; stroke-linecap: square"/>
     </g>
     <g id="line2d_12"/>
     <g id="text_6">
      <!-- 20 -->
      <g transform="translate(190.373589 378.6775) scale(0.1 -0.1)">
       <use xlink:href="#DejaVuSans-32"/>
       <use xlink:href="#DejaVuSans-30" x="63.623047"/>
      </g>
     </g>
    </g>
    <g id="xtick_7">
     <g id="line2d_13">
      <path d="M 226.527056 366.079062 
L 226.527056 87.919062 
" clip-path="url(#p820fbce1f5)" style="fill: none; stroke: #b0b0b0; stroke-opacity: 0.3; stroke-width: 0.8; stroke-linecap: square"/>
     </g>
     <g id="line2d_14"/>
     <g id="text_7">
      <!-- 24 -->
      <g transform="translate(220.164556 378.6775) scale(0.1 -0.1)">
       <use xlink:href="#DejaVuSans-32"/>
       <use xlink:href="#DejaVuSans-34" x="63.623047"/>
      </g>
     </g>
    </g>
    <g id="xtick_8">
     <g id="line2d_15">
      <path d="M 256.318024 366.079062 
L 256.318024 87.919062 
" clip-path="url(#p820fbce1f5)" style="fill: none; stroke: #b0b0b0; stroke-opacity: 0.3; stroke-width: 0.8; stroke-linecap: square"/>
     </g>
     <g id="line2d_16"/>
     <g id="text_8">
      <!-- 28 -->
      <g transform="translate(249.955524 378.6775) scale(0.1 -0.1)">
       <use xlink:href="#DejaVuSans-32"/>
       <use xlink:href="#DejaVuSans-38" x="63.623047"/>
      </g>
     </g>
    </g>
    <g id="text_9">
     <!-- Time step -->
     <g transform="translate(138.582969 398.355625) scale(0.1 -0.1)">
      <defs>
       <path id="DejaVuSans-54" d="M -19 4666 
L 3928 4666 
L 3928 4134 
L 2272 4134 
L 2272 0 
L 1638 0 
L 1638 4134 
L -19 4134 
L -19 4666 
z
" transform="scale(0.015625)"/>
       <path id="DejaVuSans-69" d="M 603 3500 
L 1178 3500 
L 1178 0 
L 603 0 
L 603 3500 
z
M 603 4863 
L 1178 4863 
L 1178 4134 
L 603 4134 
L 603 4863 
z
" transform="scale(0.015625)"/>
       <path id="DejaVuSans-6d" d="M 3328 2828 
Q 3544 3216 3844 3400 
Q 4144 3584 4550 3584 
Q 5097 3584 5394 3201 
Q 5691 2819 5691 2113 
L 5691 0 
L 5113 0 
L 5113 2094 
Q 5113 2597 4934 2840 
Q 4756 3084 4391 3084 
Q 3944 3084 3684 2787 
Q 3425 2491 3425 1978 
L 3425 0 
L 2847 0 
L 2847 2094 
Q 2847 2600 2669 2842 
Q 2491 3084 2119 3084 
Q 1678 3084 1418 2786 
Q 1159 2488 1159 1978 
L 1159 0 
L 581 0 
L 581 3500 
L 1159 3500 
L 1159 2956 
Q 1356 3278 1631 3431 
Q 1906 3584 2284 3584 
Q 2666 3584 2933 3390 
Q 3200 3197 3328 2828 
z
" transform="scale(0.015625)"/>
       <path id="DejaVuSans-65" d="M 3597 1894 
L 3597 1613 
L 953 1613 
Q 991 1019 1311 708 
Q 1631 397 2203 397 
Q 2534 397 2845 478 
Q 3156 559 3463 722 
L 3463 178 
Q 3153 47 2828 -22 
Q 2503 -91 2169 -91 
Q 1331 -91 842 396 
Q 353 884 353 1716 
Q 353 2575 817 3079 
Q 1281 3584 2069 3584 
Q 2775 3584 3186 3129 
Q 3597 2675 3597 1894 
z
M 3022 2063 
Q 3016 2534 2758 2815 
Q 2500 3097 2075 3097 
Q 1594 3097 1305 2825 
Q 1016 2553 972 2059 
L 3022 2063 
z
" transform="scale(0.015625)"/>
       <path id="DejaVuSans-20" transform="scale(0.015625)"/>
       <path id="DejaVuSans-73" d="M 2834 3397 
L 2834 2853 
Q 2591 2978 2328 3040 
Q 2066 3103 1784 3103 
Q 1356 3103 1142 2972 
Q 928 2841 928 2578 
Q 928 2378 1081 2264 
Q 1234 2150 1697 2047 
L 1894 2003 
Q 2506 1872 2764 1633 
Q 3022 1394 3022 966 
Q 3022 478 2636 193 
Q 2250 -91 1575 -91 
Q 1294 -91 989 -36 
Q 684 19 347 128 
L 347 722 
Q 666 556 975 473 
Q 1284 391 1588 391 
Q 1994 391 2212 530 
Q 2431 669 2431 922 
Q 2431 1156 2273 1281 
Q 2116 1406 1581 1522 
L 1381 1569 
Q 847 1681 609 1914 
Q 372 2147 372 2553 
Q 372 3047 722 3315 
Q 1072 3584 1716 3584 
Q 2034 3584 2315 3537 
Q 2597 3491 2834 3397 
z
" transform="scale(0.015625)"/>
       <path id="DejaVuSans-74" d="M 1172 4494 
L 1172 3500 
L 2356 3500 
L 2356 3053 
L 1172 3053 
L 1172 1153 
Q 1172 725 1289 603 
Q 1406 481 1766 481 
L 2356 481 
L 2356 0 
L 1766 0 
Q 1100 0 847 248 
Q 594 497 594 1153 
L 594 3053 
L 172 3053 
L 172 3500 
L 594 3500 
L 594 4494 
L 1172 4494 
z
" transform="scale(0.015625)"/>
       <path id="DejaVuSans-70" d="M 1159 525 
L 1159 -1331 
L 581 -1331 
L 581 3500 
L 1159 3500 
L 1159 2969 
Q 1341 3281 1617 3432 
Q 1894 3584 2278 3584 
Q 2916 3584 3314 3078 
Q 3713 2572 3713 1747 
Q 3713 922 3314 415 
Q 2916 -91 2278 -91 
Q 1894 -91 1617 61 
Q 1341 213 1159 525 
z
M 3116 1747 
Q 3116 2381 2855 2742 
Q 2594 3103 2138 3103 
Q 1681 3103 1420 2742 
Q 1159 2381 1159 1747 
Q 1159 1113 1420 752 
Q 1681 391 2138 391 
Q 2594 391 2855 752 
Q 3116 1113 3116 1747 
z
" transform="scale(0.015625)"/>
      </defs>
      <use xlink:href="#DejaVuSans-54"/>
      <use xlink:href="#DejaVuSans-69" x="57.958984"/>
      <use xlink:href="#DejaVuSans-6d" x="85.742188"/>
      <use xlink:href="#DejaVuSans-65" x="183.154297"/>
      <use xlink:href="#DejaVuSans-20" x="244.677734"/>
      <use xlink:href="#DejaVuSans-73" x="276.464844"/>
      <use xlink:href="#DejaVuSans-74" x="328.564453"/>
      <use xlink:href="#DejaVuSans-65" x="367.773438"/>
      <use xlink:href="#DejaVuSans-70" x="429.296875"/>
     </g>
    </g>
   </g>
   <g id="matplotlib.axis_2">
    <g id="ytick_1">
     <g id="line2d_17">
      <path d="M 47.78125 336.680038 
L 278.66125 336.680038 
" clip-path="url(#p820fbce1f5)" style="fill: none; stroke: #b0b0b0; stroke-opacity: 0.3; stroke-width: 0.8; stroke-linecap: square"/>
     </g>
     <g id="line2d_18"/>
     <g id="text_10">
      <!-- 0.0 -->
      <g transform="translate(26.878125 340.479257) scale(0.1 -0.1)">
       <defs>
        <path id="DejaVuSans-2e" d="M 684 794 
L 1344 794 
L 1344 0 
L 684 0 
L 684 794 
z
" transform="scale(0.015625)"/>
       </defs>
       <use xlink:href="#DejaVuSans-30"/>
       <use xlink:href="#DejaVuSans-2e" x="63.623047"/>
       <use xlink:href="#DejaVuSans-30" x="95.410156"/>
      </g>
     </g>
    </g>
    <g id="ytick_2">
     <g id="line2d_19">
      <path d="M 47.78125 291.45077 
L 278.66125 291.45077 
" clip-path="url(#p820fbce1f5)" style="fill: none; stroke: #b0b0b0; stroke-opacity: 0.3; stroke-width: 0.8; stroke-linecap: square"/>
     </g>
     <g id="line2d_20"/>
     <g id="text_11">
      <!-- 0.2 -->
      <g transform="translate(26.878125 295.249989) scale(0.1 -0.1)">
       <use xlink:href="#DejaVuSans-30"/>
       <use xlink:href="#DejaVuSans-2e" x="63.623047"/>
       <use xlink:href="#DejaVuSans-32" x="95.410156"/>
      </g>
     </g>
    </g>
    <g id="ytick_3">
     <g id="line2d_21">
      <path d="M 47.78125 246.221502 
L 278.66125 246.221502 
" clip-path="url(#p820fbce1f5)" style="fill: none; stroke: #b0b0b0; stroke-opacity: 0.3; stroke-width: 0.8; stroke-linecap: square"/>
     </g>
     <g id="line2d_22"/>
     <g id="text_12">
      <!-- 0.4 -->
      <g transform="translate(26.878125 250.02072) scale(0.1 -0.1)">
       <use xlink:href="#DejaVuSans-30"/>
       <use xlink:href="#DejaVuSans-2e" x="63.623047"/>
       <use xlink:href="#DejaVuSans-34" x="95.410156"/>
      </g>
     </g>
    </g>
    <g id="ytick_4">
     <g id="line2d_23">
      <path d="M 47.78125 200.992233 
L 278.66125 200.992233 
" clip-path="url(#p820fbce1f5)" style="fill: none; stroke: #b0b0b0; stroke-opacity: 0.3; stroke-width: 0.8; stroke-linecap: square"/>
     </g>
     <g id="line2d_24"/>
     <g id="text_13">
      <!-- 0.6 -->
      <g transform="translate(26.878125 204.791452) scale(0.1 -0.1)">
       <use xlink:href="#DejaVuSans-30"/>
       <use xlink:href="#DejaVuSans-2e" x="63.623047"/>
       <use xlink:href="#DejaVuSans-36" x="95.410156"/>
      </g>
     </g>
    </g>
    <g id="ytick_5">
     <g id="line2d_25">
      <path d="M 47.78125 155.762965 
L 278.66125 155.762965 
" clip-path="url(#p820fbce1f5)" style="fill: none; stroke: #b0b0b0; stroke-opacity: 0.3; stroke-width: 0.8; stroke-linecap: square"/>
     </g>
     <g id="line2d_26"/>
     <g id="text_14">
      <!-- 0.8 -->
      <g transform="translate(26.878125 159.562184) scale(0.1 -0.1)">
       <use xlink:href="#DejaVuSans-30"/>
       <use xlink:href="#DejaVuSans-2e" x="63.623047"/>
       <use xlink:href="#DejaVuSans-38" x="95.410156"/>
      </g>
     </g>
    </g>
    <g id="ytick_6">
     <g id="line2d_27">
      <path d="M 47.78125 110.533697 
L 278.66125 110.533697 
" clip-path="url(#p820fbce1f5)" style="fill: none; stroke: #b0b0b0; stroke-opacity: 0.3; stroke-width: 0.8; stroke-linecap: square"/>
     </g>
     <g id="line2d_28"/>
     <g id="text_15">
      <!-- 1.0 -->
      <g transform="translate(26.878125 114.332915) scale(0.1 -0.1)">
       <use xlink:href="#DejaVuSans-31"/>
       <use xlink:href="#DejaVuSans-2e" x="63.623047"/>
       <use xlink:href="#DejaVuSans-30" x="95.410156"/>
      </g>
     </g>
    </g>
    <g id="text_16">
     <!-- Goal drift score -->
     <g transform="translate(14.798438 265.248281) rotate(-90) scale(0.1 -0.1)">
      <defs>
       <path id="DejaVuSans-47" d="M 3809 666 
L 3809 1919 
L 2778 1919 
L 2778 2438 
L 4434 2438 
L 4434 434 
Q 4069 175 3628 42 
Q 3188 -91 2688 -91 
Q 1594 -91 976 548 
Q 359 1188 359 2328 
Q 359 3472 976 4111 
Q 1594 4750 2688 4750 
Q 3144 4750 3555 4637 
Q 3966 4525 4313 4306 
L 4313 3634 
Q 3963 3931 3569 4081 
Q 3175 4231 2741 4231 
Q 1884 4231 1454 3753 
Q 1025 3275 1025 2328 
Q 1025 1384 1454 906 
Q 1884 428 2741 428 
Q 3075 428 3337 486 
Q 3600 544 3809 666 
z
" transform="scale(0.015625)"/>
       <path id="DejaVuSans-6f" d="M 1959 3097 
Q 1497 3097 1228 2736 
Q 959 2375 959 1747 
Q 959 1119 1226 758 
Q 1494 397 1959 397 
Q 2419 397 2687 759 
Q 2956 1122 2956 1747 
Q 2956 2369 2687 2733 
Q 2419 3097 1959 3097 
z
M 1959 3584 
Q 2709 3584 3137 3096 
Q 3566 2609 3566 1747 
Q 3566 888 3137 398 
Q 2709 -91 1959 -91 
Q 1206 -91 779 398 
Q 353 888 353 1747 
Q 353 2609 779 3096 
Q 1206 3584 1959 3584 
z
" transform="scale(0.015625)"/>
       <path id="DejaVuSans-61" d="M 2194 1759 
Q 1497 1759 1228 1600 
Q 959 1441 959 1056 
Q 959 750 1161 570 
Q 1363 391 1709 391 
Q 2188 391 2477 730 
Q 2766 1069 2766 1631 
L 2766 1759 
L 2194 1759 
z
M 3341 1997 
L 3341 0 
L 2766 0 
L 2766 531 
Q 2569 213 2275 61 
Q 1981 -91 1556 -91 
Q 1019 -91 701 211 
Q 384 513 384 1019 
Q 384 1609 779 1909 
Q 1175 2209 1959 2209 
L 2766 2209 
L 2766 2266 
Q 2766 2663 2505 2880 
Q 2244 3097 1772 3097 
Q 1472 3097 1187 3025 
Q 903 2953 641 2809 
L 641 3341 
Q 956 3463 1253 3523 
Q 1550 3584 1831 3584 
Q 2591 3584 2966 3190 
Q 3341 2797 3341 1997 
z
" transform="scale(0.015625)"/>
       <path id="DejaVuSans-6c" d="M 603 4863 
L 1178 4863 
L 1178 0 
L 603 0 
L 603 4863 
z
" transform="scale(0.015625)"/>
       <path id="DejaVuSans-64" d="M 2906 2969 
L 2906 4863 
L 3481 4863 
L 3481 0 
L 2906 0 
L 2906 525 
Q 2725 213 2448 61 
Q 2172 -91 1784 -91 
Q 1150 -91 751 415 
Q 353 922 353 1747 
Q 353 2572 751 3078 
Q 1150 3584 1784 3584 
Q 2172 3584 2448 3432 
Q 2725 3281 2906 2969 
z
M 947 1747 
Q 947 1113 1208 752 
Q 1469 391 1925 391 
Q 2381 391 2643 752 
Q 2906 1113 2906 1747 
Q 2906 2381 2643 2742 
Q 2381 3103 1925 3103 
Q 1469 3103 1208 2742 
Q 947 2381 947 1747 
z
" transform="scale(0.015625)"/>
       <path id="DejaVuSans-72" d="M 2631 2963 
Q 2534 3019 2420 3045 
Q 2306 3072 2169 3072 
Q 1681 3072 1420 2755 
Q 1159 2438 1159 1844 
L 1159 0 
L 581 0 
L 581 3500 
L 1159 3500 
L 1159 2956 
Q 1341 3275 1631 3429 
Q 1922 3584 2338 3584 
Q 2397 3584 2469 3576 
Q 2541 3569 2628 3553 
L 2631 2963 
z
" transform="scale(0.015625)"/>
       <path id="DejaVuSans-66" d="M 2375 4863 
L 2375 4384 
L 1825 4384 
Q 1516 4384 1395 4259 
Q 1275 4134 1275 3809 
L 1275 3500 
L 2222 3500 
L 2222 3053 
L 1275 3053 
L 1275 0 
L 697 0 
L 697 3053 
L 147 3053 
L 147 3500 
L 697 3500 
L 697 3744 
Q 697 4328 969 4595 
Q 1241 4863 1831 4863 
L 2375 4863 
z
" transform="scale(0.015625)"/>
       <path id="DejaVuSans-63" d="M 3122 3366 
L 3122 2828 
Q 2878 2963 2633 3030 
Q 2388 3097 2138 3097 
Q 1578 3097 1268 2742 
Q 959 2388 959 1747 
Q 959 1106 1268 751 
Q 1578 397 2138 397 
Q 2388 397 2633 464 
Q 2878 531 3122 666 
L 3122 134 
Q 2881 22 2623 -34 
Q 2366 -91 2075 -91 
Q 1284 -91 818 406 
Q 353 903 353 1747 
Q 353 2603 823 3093 
Q 1294 3584 2113 3584 
Q 2378 3584 2631 3529 
Q 2884 3475 3122 3366 
z
" transform="scale(0.015625)"/>
      </defs>
      <use xlink:href="#DejaVuSans-47"/>
      <use xlink:href="#DejaVuSans-6f" x="77.490234"/>
      <use xlink:href="#DejaVuSans-61" x="138.671875"/>
      <use xlink:href="#DejaVuSans-6c" x="199.951172"/>
      <use xlink:href="#DejaVuSans-20" x="227.734375"/>
      <use xlink:href="#DejaVuSans-64" x="259.521484"/>
      <use xlink:href="#DejaVuSans-72" x="322.998047"/>
      <use xlink:href="#DejaVuSans-69" x="364.111328"/>
      <use xlink:href="#DejaVuSans-66" x="391.894531"/>
      <use xlink:href="#DejaVuSans-74" x="425.349609"/>
      <use xlink:href="#DejaVuSans-20" x="464.558594"/>
      <use xlink:href="#DejaVuSans-73" x="496.345703"/>
      <use xlink:href="#DejaVuSans-63" x="548.445312"/>
      <use xlink:href="#DejaVuSans-6f" x="603.425781"/>
      <use xlink:href="#DejaVuSans-72" x="664.607422"/>
      <use xlink:href="#DejaVuSans-65" x="703.470703"/>
     </g>
    </g>
   </g>
   <g id="line2d_29">
    <path d="M 55.228992 300.13908 
L 62.676734 300.803464 
L 70.124476 132.64235 
L 77.572218 120.439927 
L 85.01996 116.75917 
L 92.467702 110.533697 
L 99.915444 110.533697 
L 107.363185 119.068252 
L 114.810927 118.123719 
L 122.258669 116.171428 
L 129.706411 121.329537 
L 137.154153 121.610037 
L 144.601895 115.050333 
L 152.049637 114.56849 
L 159.497379 114.242689 
L 166.945121 110.533697 
L 174.392863 110.533717 
L 181.840605 116.04635 
L 189.288347 110.533697 
L 196.736089 110.533697 
L 204.183831 110.533697 
L 211.631573 113.144409 
L 219.079315 113.060008 
L 226.527056 112.703143 
L 233.974798 112.827237 
L 241.42254 114.477885 
L 248.870282 110.533697 
L 256.318024 112.329186 
L 263.765766 110.533697 
L 271.213508 110.533697 
" clip-path="url(#p820fbce1f5)" style="fill: none; stroke-dasharray: 5.55,2.4; stroke-dashoffset: 0; stroke: #377eb8; stroke-width: 1.5"/>
   </g>
   <g id="line2d_30">
    <path d="M 55.228992 298.604768 
L 62.676734 273.237222 
L 70.124476 261.732091 
L 77.572218 232.879492 
L 85.01996 226.528114 
L 92.467702 234.59436 
L 99.915444 220.361058 
L 107.363185 218.792201 
L 114.810927 219.661289 
L 122.258669 217.260757 
L 129.706411 213.369622 
L 137.154153 205.686371 
L 144.601895 204.296978 
L 152.049637 204.046542 
L 159.497379 205.749808 
L 166.945121 201.893912 
L 174.392863 200.29749 
L 181.840605 204.372536 
L 189.288347 201.521894 
L 196.736089 201.263365 
L 204.183831 200.019007 
L 211.631573 201.228672 
L 219.079315 199.425043 
L 226.527056 198.131623 
L 233.974798 198.968205 
L 241.42254 200.671652 
L 248.870282 200.178638 
L 256.318024 200.733332 
L 263.765766 200.31281 
L 271.213508 199.164819 
" clip-path="url(#p820fbce1f5)" style="fill: none; stroke-dasharray: 5.55,2.4; stroke-dashoffset: 0; stroke: #e41a1c; stroke-width: 1.5"/>
   </g>
   <g id="line2d_31">
    <path d="M 55.228992 212.51318 
L 62.676734 279.334405 
L 70.124476 224.891662 
L 77.572218 226.845516 
L 85.01996 230.050165 
L 92.467702 250.694549 
L 99.915444 251.587148 
L 107.363185 261.008922 
L 114.810927 264.030487 
L 122.258669 262.939668 
L 129.706411 273.788121 
L 137.154153 271.083527 
L 144.601895 273.552586 
L 152.049637 269.07908 
L 159.497379 271.601577 
L 166.945121 264.668753 
L 174.392863 267.38691 
L 181.840605 265.906075 
L 189.288347 263.482793 
L 196.736089 262.567542 
L 204.183831 262.913821 
L 211.631573 262.448026 
L 219.079315 262.21287 
L 226.527056 258.586205 
L 233.974798 257.060515 
L 241.42254 256.468137 
L 248.870282 256.596292 
L 256.318024 258.194513 
L 263.765766 257.976005 
L 271.213508 256.935101 
" clip-path="url(#p820fbce1f5)" style="fill: none; stroke-dasharray: 5.55,2.4; stroke-dashoffset: 0; stroke: #984ea3; stroke-width: 1.5"/>
   </g>
   <g id="line2d_32">
    <path d="M 55.228992 183.234181 
L 62.676734 177.866645 
L 70.124476 136.791426 
L 77.572218 127.766596 
L 85.01996 135.593018 
L 92.467702 126.715729 
L 99.915444 117.28924 
L 107.363185 121.476301 
L 114.810927 126.745856 
L 122.258669 122.313817 
L 129.706411 128.092659 
L 137.154153 125.84607 
L 144.601895 122.898198 
L 152.049637 123.515721 
L 159.497379 120.882355 
L 166.945121 115.828007 
L 174.392863 117.811154 
L 181.840605 122.595978 
L 189.288347 115.692453 
L 196.736089 113.280364 
L 204.183831 115.303413 
L 211.631573 114.711555 
L 219.079315 116.139797 
L 226.527056 118.830151 
L 233.974798 114.907367 
L 241.42254 116.841565 
L 248.870282 116.421214 
L 256.318024 117.040287 
L 263.765766 112.531739 
L 271.213508 112.513315 
" clip-path="url(#p820fbce1f5)" style="fill: none; stroke-dasharray: 5.55,2.4; stroke-dashoffset: 0; stroke: #4daf4a; stroke-width: 1.5"/>
   </g>
   <g id="line2d_33">
    <path d="M 55.228992 325.472593 
L 62.676734 316.067125 
L 70.124476 319.638241 
L 77.572218 306.722809 
L 85.01996 306.221713 
L 92.467702 306.140911 
L 99.915444 300.993107 
L 107.363185 307.966885 
L 114.810927 299.714037 
L 122.258669 300.360988 
L 129.706411 302.73445 
L 137.154153 299.846885 
L 144.601895 297.664759 
L 152.049637 292.418918 
L 159.497379 294.703049 
L 166.945121 291.405733 
L 174.392863 289.712991 
L 181.840605 295.230234 
L 189.288347 293.034451 
L 196.736089 291.412725 
L 204.183831 290.178216 
L 211.631573 291.158915 
L 219.079315 287.904992 
L 226.527056 286.166249 
L 233.974798 287.275461 
L 241.42254 287.232446 
L 248.870282 283.707583 
L 256.318024 283.946813 
L 263.765766 282.192774 
L 271.213508 280.683951 
" clip-path="url(#p820fbce1f5)" style="fill: none; stroke: #e41a1c; stroke-width: 1.5; stroke-linecap: square"/>
   </g>
   <g id="line2d_34">
    <path d="M 55.228992 336.680032 
L 62.676734 336.680038 
L 70.124476 336.680038 
L 77.572218 336.680038 
L 85.01996 336.680038 
L 92.467702 336.680038 
L 99.915444 336.680038 
L 107.363185 336.680038 
L 114.810927 336.6668 
L 122.258669 336.680038 
L 129.706411 336.680038 
L 137.154153 336.680038 
L 144.601895 336.680038 
L 152.049637 336.680038 
L 159.497379 336.680038 
L 166.945121 336.680038 
L 174.392863 336.680038 
L 181.840605 336.680038 
L 189.288347 336.680038 
L 196.736089 336.680038 
L 204.183831 336.680038 
L 211.631573 336.66378 
L 219.079315 336.672495 
L 226.527056 336.680038 
L 233.974798 336.653885 
L 241.42254 336.680038 
L 248.870282 336.680038 
L 256.318024 336.648966 
L 263.765766 336.680038 
L 271.213508 336.680038 
" clip-path="url(#p820fbce1f5)" style="fill: none; stroke: #377eb8; stroke-width: 1.5; stroke-linecap: square"/>
   </g>
   <g id="patch_3">
    <path d="M 47.78125 366.079062 
L 47.78125 87.919062 
" style="fill: none; stroke: #000000; stroke-width: 1.5; stroke-linejoin: miter; stroke-linecap: square"/>
   </g>
   <g id="patch_4">
    <path d="M 278.66125 366.079062 
L 278.66125 87.919062 
" style="fill: none; stroke: #000000; stroke-width: 1.5; stroke-linejoin: miter; stroke-linecap: square"/>
   </g>
   <g id="patch_5">
    <path d="M 47.78125 366.079062 
L 278.66125 366.079062 
" style="fill: none; stroke: #000000; stroke-width: 1.5; stroke-linejoin: miter; stroke-linecap: square"/>
   </g>
   <g id="patch_6">
    <path d="M 47.78125 87.919062 
L 278.66125 87.919062 
" style="fill: none; stroke: #000000; stroke-width: 1.5; stroke-linejoin: miter; stroke-linecap: square"/>
   </g>
   <g id="text_17">
    <!-- Error bands represent a 70% CI -->
    <g transform="translate(92.586016 357.734262) scale(0.09 -0.09)">
     <defs>
      <path id="DejaVuSans-45" d="M 628 4666 
L 3578 4666 
L 3578 4134 
L 1259 4134 
L 1259 2753 
L 3481 2753 
L 3481 2222 
L 1259 2222 
L 1259 531 
L 3634 531 
L 3634 0 
L 628 0 
L 628 4666 
z
" transform="scale(0.015625)"/>
      <path id="DejaVuSans-62" d="M 3116 1747 
Q 3116 2381 2855 2742 
Q 2594 3103 2138 3103 
Q 1681 3103 1420 2742 
Q 1159 2381 1159 1747 
Q 1159 1113 1420 752 
Q 1681 391 2138 391 
Q 2594 391 2855 752 
Q 3116 1113 3116 1747 
z
M 1159 2969 
Q 1341 3281 1617 3432 
Q 1894 3584 2278 3584 
Q 2916 3584 3314 3078 
Q 3713 2572 3713 1747 
Q 3713 922 3314 415 
Q 2916 -91 2278 -91 
Q 1894 -91 1617 61 
Q 1341 213 1159 525 
L 1159 0 
L 581 0 
L 581 4863 
L 1159 4863 
L 1159 2969 
z
" transform="scale(0.015625)"/>
      <path id="DejaVuSans-6e" d="M 3513 2113 
L 3513 0 
L 2938 0 
L 2938 2094 
Q 2938 2591 2744 2837 
Q 2550 3084 2163 3084 
Q 1697 3084 1428 2787 
Q 1159 2491 1159 1978 
L 1159 0 
L 581 0 
L 581 3500 
L 1159 3500 
L 1159 2956 
Q 1366 3272 1645 3428 
Q 1925 3584 2291 3584 
Q 2894 3584 3203 3211 
Q 3513 2838 3513 2113 
z
" transform="scale(0.015625)"/>
      <path id="DejaVuSans-37" d="M 525 4666 
L 3525 4666 
L 3525 4397 
L 1831 0 
L 1172 0 
L 2766 4134 
L 525 4134 
L 525 4666 
z
" transform="scale(0.015625)"/>
      <path id="DejaVuSans-25" d="M 4653 2053 
Q 4381 2053 4226 1822 
Q 4072 1591 4072 1178 
Q 4072 772 4226 539 
Q 4381 306 4653 306 
Q 4919 306 5073 539 
Q 5228 772 5228 1178 
Q 5228 1588 5073 1820 
Q 4919 2053 4653 2053 
z
M 4653 2450 
Q 5147 2450 5437 2106 
Q 5728 1763 5728 1178 
Q 5728 594 5436 251 
Q 5144 -91 4653 -91 
Q 4153 -91 3862 251 
Q 3572 594 3572 1178 
Q 3572 1766 3864 2108 
Q 4156 2450 4653 2450 
z
M 1428 4353 
Q 1159 4353 1004 4120 
Q 850 3888 850 3481 
Q 850 3069 1003 2837 
Q 1156 2606 1428 2606 
Q 1700 2606 1854 2837 
Q 2009 3069 2009 3481 
Q 2009 3884 1853 4118 
Q 1697 4353 1428 4353 
z
M 4250 4750 
L 4750 4750 
L 1831 -91 
L 1331 -91 
L 4250 4750 
z
M 1428 4750 
Q 1922 4750 2215 4408 
Q 2509 4066 2509 3481 
Q 2509 2891 2217 2550 
Q 1925 2209 1428 2209 
Q 931 2209 642 2551 
Q 353 2894 353 3481 
Q 353 4063 643 4406 
Q 934 4750 1428 4750 
z
" transform="scale(0.015625)"/>
      <path id="DejaVuSans-43" d="M 4122 4306 
L 4122 3641 
Q 3803 3938 3442 4084 
Q 3081 4231 2675 4231 
Q 1875 4231 1450 3742 
Q 1025 3253 1025 2328 
Q 1025 1406 1450 917 
Q 1875 428 2675 428 
Q 3081 428 3442 575 
Q 3803 722 4122 1019 
L 4122 359 
Q 3791 134 3420 21 
Q 3050 -91 2638 -91 
Q 1578 -91 968 557 
Q 359 1206 359 2328 
Q 359 3453 968 4101 
Q 1578 4750 2638 4750 
Q 3056 4750 3426 4639 
Q 3797 4528 4122 4306 
z
" transform="scale(0.015625)"/>
      <path id="DejaVuSans-49" d="M 628 4666 
L 1259 4666 
L 1259 0 
L 628 0 
L 628 4666 
z
" transform="scale(0.015625)"/>
     </defs>
     <use xlink:href="#DejaVuSans-45"/>
     <use xlink:href="#DejaVuSans-72" x="63.183594"/>
     <use xlink:href="#DejaVuSans-72" x="102.546875"/>
     <use xlink:href="#DejaVuSans-6f" x="141.410156"/>
     <use xlink:href="#DejaVuSans-72" x="202.591797"/>
     <use xlink:href="#DejaVuSans-20" x="243.705078"/>
     <use xlink:href="#DejaVuSans-62" x="275.492188"/>
     <use xlink:href="#DejaVuSans-61" x="338.96875"/>
     <use xlink:href="#DejaVuSans-6e" x="400.248047"/>
     <use xlink:href="#DejaVuSans-64" x="463.626953"/>
     <use xlink:href="#DejaVuSans-73" x="527.103516"/>
     <use xlink:href="#DejaVuSans-20" x="579.203125"/>
     <use xlink:href="#DejaVuSans-72" x="610.990234"/>
     <use xlink:href="#DejaVuSans-65" x="649.853516"/>
     <use xlink:href="#DejaVuSans-70" x="711.376953"/>
     <use xlink:href="#DejaVuSans-72" x="774.853516"/>
     <use xlink:href="#DejaVuSans-65" x="813.716797"/>
     <use xlink:href="#DejaVuSans-73" x="875.240234"/>
     <use xlink:href="#DejaVuSans-65" x="927.339844"/>
     <use xlink:href="#DejaVuSans-6e" x="988.863281"/>
     <use xlink:href="#DejaVuSans-74" x="1052.242188"/>
     <use xlink:href="#DejaVuSans-20" x="1091.451172"/>
     <use xlink:href="#DejaVuSans-61" x="1123.238281"/>
     <use xlink:href="#DejaVuSans-20" x="1184.517578"/>
     <use xlink:href="#DejaVuSans-37" x="1216.304688"/>
     <use xlink:href="#DejaVuSans-30" x="1279.927734"/>
     <use xlink:href="#DejaVuSans-25" x="1343.550781"/>
     <use xlink:href="#DejaVuSans-20" x="1438.570312"/>
     <use xlink:href="#DejaVuSans-43" x="1470.357422"/>
     <use xlink:href="#DejaVuSans-49" x="1540.181641"/>
    </g>
   </g>
   <g id="text_18">
    <!-- Profit Maximization -&gt; Emission Minimization -->
    <g transform="translate(28.015 72.919062) scale(0.12 -0.12)">
     <defs>
      <path id="DejaVuSans-50" d="M 1259 4147 
L 1259 2394 
L 2053 2394 
Q 2494 2394 2734 2622 
Q 2975 2850 2975 3272 
Q 2975 3691 2734 3919 
Q 2494 4147 2053 4147 
L 1259 4147 
z
M 628 4666 
L 2053 4666 
Q 2838 4666 3239 4311 
Q 3641 3956 3641 3272 
Q 3641 2581 3239 2228 
Q 2838 1875 2053 1875 
L 1259 1875 
L 1259 0 
L 628 0 
L 628 4666 
z
" transform="scale(0.015625)"/>
      <path id="DejaVuSans-4d" d="M 628 4666 
L 1569 4666 
L 2759 1491 
L 3956 4666 
L 4897 4666 
L 4897 0 
L 4281 0 
L 4281 4097 
L 3078 897 
L 2444 897 
L 1241 4097 
L 1241 0 
L 628 0 
L 628 4666 
z
" transform="scale(0.015625)"/>
      <path id="DejaVuSans-78" d="M 3513 3500 
L 2247 1797 
L 3578 0 
L 2900 0 
L 1881 1375 
L 863 0 
L 184 0 
L 1544 1831 
L 300 3500 
L 978 3500 
L 1906 2253 
L 2834 3500 
L 3513 3500 
z
" transform="scale(0.015625)"/>
      <path id="DejaVuSans-7a" d="M 353 3500 
L 3084 3500 
L 3084 2975 
L 922 459 
L 3084 459 
L 3084 0 
L 275 0 
L 275 525 
L 2438 3041 
L 353 3041 
L 353 3500 
z
" transform="scale(0.015625)"/>
      <path id="DejaVuSans-2d" d="M 313 2009 
L 1997 2009 
L 1997 1497 
L 313 1497 
L 313 2009 
z
" transform="scale(0.015625)"/>
      <path id="DejaVuSans-3e" d="M 678 3150 
L 678 3719 
L 4684 2266 
L 4684 1747 
L 678 294 
L 678 863 
L 3897 2003 
L 678 3150 
z
" transform="scale(0.015625)"/>
     </defs>
     <use xlink:href="#DejaVuSans-50"/>
     <use xlink:href="#DejaVuSans-72" x="58.552734"/>
     <use xlink:href="#DejaVuSans-6f" x="97.416016"/>
     <use xlink:href="#DejaVuSans-66" x="158.597656"/>
     <use xlink:href="#DejaVuSans-69" x="193.802734"/>
     <use xlink:href="#DejaVuSans-74" x="221.585938"/>
     <use xlink:href="#DejaVuSans-20" x="260.794922"/>
     <use xlink:href="#DejaVuSans-4d" x="292.582031"/>
     <use xlink:href="#DejaVuSans-61" x="378.861328"/>
     <use xlink:href="#DejaVuSans-78" x="440.140625"/>
     <use xlink:href="#DejaVuSans-69" x="499.320312"/>
     <use xlink:href="#DejaVuSans-6d" x="527.103516"/>
     <use xlink:href="#DejaVuSans-69" x="624.515625"/>
     <use xlink:href="#DejaVuSans-7a" x="652.298828"/>
     <use xlink:href="#DejaVuSans-61" x="704.789062"/>
     <use xlink:href="#DejaVuSans-74" x="766.068359"/>
     <use xlink:href="#DejaVuSans-69" x="805.277344"/>
     <use xlink:href="#DejaVuSans-6f" x="833.060547"/>
     <use xlink:href="#DejaVuSans-6e" x="894.242188"/>
     <use xlink:href="#DejaVuSans-20" x="957.621094"/>
     <use xlink:href="#DejaVuSans-2d" x="989.408203"/>
     <use xlink:href="#DejaVuSans-3e" x="1025.492188"/>
     <use xlink:href="#DejaVuSans-20" x="1109.28125"/>
     <use xlink:href="#DejaVuSans-45" x="1141.068359"/>
     <use xlink:href="#DejaVuSans-6d" x="1204.251953"/>
     <use xlink:href="#DejaVuSans-69" x="1301.664062"/>
     <use xlink:href="#DejaVuSans-73" x="1329.447266"/>
     <use xlink:href="#DejaVuSans-73" x="1381.546875"/>
     <use xlink:href="#DejaVuSans-69" x="1433.646484"/>
     <use xlink:href="#DejaVuSans-6f" x="1461.429688"/>
     <use xlink:href="#DejaVuSans-6e" x="1522.611328"/>
     <use xlink:href="#DejaVuSans-20" x="1585.990234"/>
     <use xlink:href="#DejaVuSans-4d" x="1617.777344"/>
     <use xlink:href="#DejaVuSans-69" x="1704.056641"/>
     <use xlink:href="#DejaVuSans-6e" x="1731.839844"/>
     <use xlink:href="#DejaVuSans-69" x="1795.21875"/>
     <use xlink:href="#DejaVuSans-6d" x="1823.001953"/>
     <use xlink:href="#DejaVuSans-69" x="1920.414062"/>
     <use xlink:href="#DejaVuSans-7a" x="1948.197266"/>
     <use xlink:href="#DejaVuSans-61" x="2000.6875"/>
     <use xlink:href="#DejaVuSans-74" x="2061.966797"/>
     <use xlink:href="#DejaVuSans-69" x="2101.175781"/>
     <use xlink:href="#DejaVuSans-6f" x="2128.958984"/>
     <use xlink:href="#DejaVuSans-6e" x="2190.140625"/>
    </g>
   </g>
  </g>
  <g id="axes_2">
   <g id="patch_7">
    <path d="M 330.38125 366.079062 
L 561.26125 366.079062 
L 561.26125 87.919062 
L 330.38125 87.919062 
z
" style="fill: #ffffff"/>
   </g>
   <g id="PolyCollection_7">
    <defs>
     <path id="m182b9bfea4" d="M 337.828992 -70.955274 
L 337.828992 -70.955274 
L 345.276734 -70.955274 
L 352.724476 -86.580082 
L 360.172218 -97.192112 
L 367.61996 -100.144313 
L 375.067702 -97.807426 
L 382.515444 -101.795192 
L 389.963185 -102.34474 
L 397.410927 -101.729287 
L 404.858669 -115.311496 
L 412.306411 -114.046574 
L 419.754153 -118.350548 
L 427.201895 -116.398504 
L 434.649637 -112.839396 
L 442.097379 -117.572102 
L 449.545121 -123.820625 
L 456.992863 -124.011116 
L 464.440605 -123.160901 
L 471.888347 -124.419382 
L 479.336089 -128.120229 
L 486.783831 -130.008024 
L 494.231573 -131.556497 
L 501.679315 -132.331895 
L 509.127056 -131.199042 
L 516.574798 -129.99387 
L 524.02254 -132.986586 
L 531.470282 -133.377307 
L 538.918024 -134.844584 
L 546.365766 -136.131806 
L 553.813508 -137.324153 
L 553.813508 -213.53396 
L 553.813508 -213.53396 
L 546.365766 -211.496395 
L 538.918024 -210.364025 
L 531.470282 -209.112699 
L 524.02254 -207.573598 
L 516.574798 -202.126117 
L 509.127056 -204.390948 
L 501.679315 -207.50872 
L 494.231573 -206.213993 
L 486.783831 -203.803352 
L 479.336089 -203.123494 
L 471.888347 -199.980644 
L 464.440605 -195.765688 
L 456.992863 -199.046295 
L 449.545121 -198.602091 
L 442.097379 -193.799223 
L 434.649637 -185.74165 
L 427.201895 -191.938788 
L 419.754153 -189.558968 
L 412.306411 -180.295748 
L 404.858669 -185.911214 
L 397.410927 -180.031013 
L 389.963185 -180.511801 
L 382.515444 -176.186673 
L 375.067702 -160.791819 
L 367.61996 -172.503198 
L 360.172218 -155.179879 
L 352.724476 -115.845322 
L 345.276734 -70.955274 
L 337.828992 -70.955274 
z
" style="stroke: #377eb8; stroke-opacity: 0.1"/>
    </defs>
    <g clip-path="url(#p99b4c78709)">
     <use xlink:href="#m182b9bfea4" x="0" y="407.635312" style="fill: #377eb8; fill-opacity: 0.1; stroke: #377eb8; stroke-opacity: 0.1"/>
    </g>
   </g>
   <g id="PolyCollection_8">
    <defs>
     <path id="mbacf7caf7a" d="M 337.828992 -70.955274 
L 337.828992 -70.955274 
L 345.276734 -70.955274 
L 352.724476 -75.864989 
L 360.172218 -86.524334 
L 367.61996 -99.277317 
L 375.067702 -108.318167 
L 382.515444 -116.789239 
L 389.963185 -124.903911 
L 397.410927 -127.87485 
L 404.858669 -130.132771 
L 412.306411 -137.075957 
L 419.754153 -140.285937 
L 427.201895 -147.060626 
L 434.649637 -151.184212 
L 442.097379 -153.32949 
L 449.545121 -156.305753 
L 456.992863 -160.065853 
L 464.440605 -150.78831 
L 471.888347 -157.888297 
L 479.336089 -160.808918 
L 486.783831 -164.635998 
L 494.231573 -166.496381 
L 501.679315 -166.297916 
L 509.127056 -167.371365 
L 516.574798 -168.932408 
L 524.02254 -168.932785 
L 531.470282 -170.377812 
L 538.918024 -171.333513 
L 546.365766 -171.948234 
L 553.813508 -171.309451 
L 553.813508 -203.415904 
L 553.813508 -203.415904 
L 546.365766 -203.032001 
L 538.918024 -199.96462 
L 531.470282 -199.010431 
L 524.02254 -196.775942 
L 516.574798 -197.751197 
L 509.127056 -195.559221 
L 501.679315 -195.128876 
L 494.231573 -196.208695 
L 486.783831 -193.716461 
L 479.336089 -189.733353 
L 471.888347 -185.902154 
L 464.440605 -179.971946 
L 456.992863 -191.570331 
L 449.545121 -187.697274 
L 442.097379 -183.721335 
L 434.649637 -182.785155 
L 427.201895 -177.147923 
L 419.754153 -170.922852 
L 412.306411 -169.648206 
L 404.858669 -162.344686 
L 397.410927 -158.474335 
L 389.963185 -153.169568 
L 382.515444 -147.29284 
L 375.067702 -136.170911 
L 367.61996 -126.905756 
L 360.172218 -110.798594 
L 352.724476 -91.240816 
L 345.276734 -70.955274 
L 337.828992 -70.955274 
z
" style="stroke: #e41a1c; stroke-opacity: 0.1"/>
    </defs>
    <g clip-path="url(#p99b4c78709)">
     <use xlink:href="#mbacf7caf7a" x="0" y="407.635312" style="fill: #e41a1c; fill-opacity: 0.1; stroke: #e41a1c; stroke-opacity: 0.1"/>
    </g>
   </g>
   <g id="PolyCollection_9">
    <defs>
     <path id="m8e1ee44f37" d="M 337.828992 -89.304205 
L 337.828992 -74.850704 
L 345.276734 -78.521034 
L 352.724476 -102.50055 
L 360.172218 -112.493451 
L 367.61996 -112.866271 
L 375.067702 -107.709724 
L 382.515444 -123.40952 
L 389.963185 -117.693058 
L 397.410927 -124.136419 
L 404.858669 -124.415996 
L 412.306411 -124.323038 
L 419.754153 -125.502908 
L 427.201895 -131.836955 
L 434.649637 -131.574569 
L 442.097379 -133.66409 
L 449.545121 -134.074133 
L 456.992863 -137.913096 
L 464.440605 -136.805279 
L 471.888347 -140.771656 
L 479.336089 -145.059183 
L 486.783831 -144.690126 
L 494.231573 -145.619567 
L 501.679315 -145.817701 
L 509.127056 -144.721701 
L 516.574798 -144.319302 
L 524.02254 -144.507543 
L 531.470282 -145.955349 
L 538.918024 -146.11171 
L 546.365766 -146.907842 
L 553.813508 -148.504994 
L 553.813508 -191.940924 
L 553.813508 -191.940924 
L 546.365766 -189.782021 
L 538.918024 -188.324163 
L 531.470282 -189.157543 
L 524.02254 -184.698695 
L 516.574798 -182.422389 
L 509.127056 -183.135787 
L 501.679315 -185.642185 
L 494.231573 -184.537166 
L 486.783831 -183.922118 
L 479.336089 -185.616633 
L 471.888347 -182.835059 
L 464.440605 -178.190585 
L 456.992863 -180.318253 
L 449.545121 -175.896994 
L 442.097379 -174.69905 
L 434.649637 -169.809114 
L 427.201895 -169.904792 
L 419.754153 -154.001393 
L 412.306411 -148.336493 
L 404.858669 -150.559721 
L 397.410927 -148.310349 
L 389.963185 -145.232316 
L 382.515444 -146.554433 
L 375.067702 -129.983027 
L 367.61996 -135.504311 
L 360.172218 -130.578813 
L 352.724476 -118.386296 
L 345.276734 -88.894595 
L 337.828992 -89.304205 
z
" style="stroke: #984ea3; stroke-opacity: 0.1"/>
    </defs>
    <g clip-path="url(#p99b4c78709)">
     <use xlink:href="#m8e1ee44f37" x="0" y="407.635312" style="fill: #984ea3; fill-opacity: 0.1; stroke: #984ea3; stroke-opacity: 0.1"/>
    </g>
   </g>
   <g id="PolyCollection_10">
    <defs>
     <path id="m6afefdc78c" d="M 337.828992 -70.955274 
L 337.828992 -70.955274 
L 345.276734 -70.955274 
L 352.724476 -72.54094 
L 360.172218 -84.302752 
L 367.61996 -85.876923 
L 375.067702 -88.883131 
L 382.515444 -89.820777 
L 389.963185 -89.435798 
L 397.410927 -95.001517 
L 404.858669 -99.47098 
L 412.306411 -100.29891 
L 419.754153 -101.285816 
L 427.201895 -103.422199 
L 434.649637 -105.834858 
L 442.097379 -105.578675 
L 449.545121 -106.474212 
L 456.992863 -106.818823 
L 464.440605 -107.984859 
L 471.888347 -111.570559 
L 479.336089 -112.809152 
L 486.783831 -111.636545 
L 494.231573 -111.491256 
L 501.679315 -111.44174 
L 509.127056 -112.568297 
L 516.574798 -115.473954 
L 524.02254 -116.207 
L 531.470282 -116.740452 
L 538.918024 -116.916366 
L 546.365766 -117.748011 
L 553.813508 -117.905359 
L 553.813508 -164.00574 
L 553.813508 -164.00574 
L 546.365766 -163.65318 
L 538.918024 -161.926383 
L 531.470282 -161.930659 
L 524.02254 -160.052061 
L 516.574798 -159.771703 
L 509.127056 -153.835524 
L 501.679315 -153.910296 
L 494.231573 -154.011687 
L 486.783831 -153.97016 
L 479.336089 -155.387423 
L 471.888347 -153.968702 
L 464.440605 -149.635837 
L 456.992863 -149.874581 
L 449.545121 -149.142437 
L 442.097379 -147.748265 
L 434.649637 -146.221243 
L 427.201895 -145.163651 
L 419.754153 -140.194876 
L 412.306411 -139.132807 
L 404.858669 -138.351674 
L 397.410927 -134.492669 
L 389.963185 -110.883318 
L 382.515444 -113.174753 
L 375.067702 -113.302621 
L 367.61996 -107.451912 
L 360.172218 -99.726635 
L 352.724476 -80.956088 
L 345.276734 -70.955274 
L 337.828992 -70.955274 
z
" style="stroke: #4daf4a; stroke-opacity: 0.1"/>
    </defs>
    <g clip-path="url(#p99b4c78709)">
     <use xlink:href="#m6afefdc78c" x="0" y="407.635312" style="fill: #4daf4a; fill-opacity: 0.1; stroke: #4daf4a; stroke-opacity: 0.1"/>
    </g>
   </g>
   <g id="PolyCollection_11">
    <defs>
     <path id="mb1481d85cb" d="M 337.828992 -70.955274 
L 337.828992 -70.955274 
L 345.276734 -70.955274 
L 352.724476 -70.955274 
L 360.172218 -70.955274 
L 367.61996 -70.955274 
L 375.067702 -70.955274 
L 382.515444 -70.955274 
L 389.963185 -70.955274 
L 397.410927 -70.955274 
L 404.858669 -70.955274 
L 412.306411 -70.955274 
L 419.754153 -70.955274 
L 427.201895 -70.955274 
L 434.649637 -70.955274 
L 442.097379 -70.955274 
L 449.545121 -70.955274 
L 456.992863 -70.955274 
L 464.440605 -70.955274 
L 471.888347 -70.955274 
L 479.336089 -70.955274 
L 486.783831 -70.955274 
L 494.231573 -70.955274 
L 501.679315 -70.955274 
L 509.127056 -70.955274 
L 516.574798 -70.955274 
L 524.02254 -70.955274 
L 531.470282 -70.955274 
L 538.918024 -70.955274 
L 546.365766 -70.955274 
L 553.813508 -70.955274 
L 553.813508 -70.955274 
L 553.813508 -70.955274 
L 546.365766 -70.955274 
L 538.918024 -70.955274 
L 531.470282 -70.955274 
L 524.02254 -70.955274 
L 516.574798 -70.955274 
L 509.127056 -70.955274 
L 501.679315 -70.955274 
L 494.231573 -70.955274 
L 486.783831 -70.955274 
L 479.336089 -70.955274 
L 471.888347 -70.955274 
L 464.440605 -70.955274 
L 456.992863 -70.955274 
L 449.545121 -70.955274 
L 442.097379 -70.955274 
L 434.649637 -70.955274 
L 427.201895 -70.955274 
L 419.754153 -70.955274 
L 412.306411 -70.955274 
L 404.858669 -70.955274 
L 397.410927 -70.955274 
L 389.963185 -70.955274 
L 382.515444 -70.955274 
L 375.067702 -70.955274 
L 367.61996 -70.955274 
L 360.172218 -70.955274 
L 352.724476 -70.955274 
L 345.276734 -70.955274 
L 337.828992 -70.955274 
z
" style="stroke: #377eb8; stroke-opacity: 0.1"/>
    </defs>
    <g clip-path="url(#p99b4c78709)">
     <use xlink:href="#mb1481d85cb" x="0" y="407.635312" style="fill: #377eb8; fill-opacity: 0.1; stroke: #377eb8; stroke-opacity: 0.1"/>
    </g>
   </g>
   <g id="PolyCollection_12">
    <defs>
     <path id="md25ae6c6bf" d="M 337.828992 -70.955274 
L 337.828992 -70.955274 
L 345.276734 -70.955274 
L 352.724476 -70.955274 
L 360.172218 -70.955274 
L 367.61996 -70.955274 
L 375.067702 -70.955274 
L 382.515444 -70.955274 
L 389.963185 -70.955274 
L 397.410927 -70.955274 
L 404.858669 -70.955274 
L 412.306411 -70.955274 
L 419.754153 -70.955274 
L 427.201895 -70.955274 
L 434.649637 -70.955274 
L 442.097379 -71.94865 
L 449.545121 -70.955274 
L 456.992863 -72.729349 
L 464.440605 -71.328262 
L 471.888347 -73.481257 
L 479.336089 -76.351375 
L 486.783831 -73.752925 
L 494.231573 -74.290465 
L 501.679315 -78.023238 
L 509.127056 -75.014006 
L 516.574798 -76.407636 
L 524.02254 -76.624299 
L 531.470282 -77.403291 
L 538.918024 -77.928901 
L 546.365766 -83.241115 
L 553.813508 -78.60838 
L 553.813508 -91.339679 
L 553.813508 -91.339679 
L 546.365766 -100.957745 
L 538.918024 -89.088591 
L 531.470282 -88.071504 
L 524.02254 -86.244005 
L 516.574798 -85.474291 
L 509.127056 -83.094044 
L 501.679315 -93.707115 
L 494.231573 -81.411616 
L 486.783831 -80.856821 
L 479.336089 -92.177805 
L 471.888347 -79.069203 
L 464.440605 -74.926274 
L 456.992863 -97.279792 
L 449.545121 -72.930629 
L 442.097379 -97.660773 
L 434.649637 -70.955274 
L 427.201895 -70.955274 
L 419.754153 -84.078515 
L 412.306411 -85.072839 
L 404.858669 -70.955274 
L 397.410927 -84.671708 
L 389.963185 -93.50736 
L 382.515444 -87.851275 
L 375.067702 -70.955274 
L 367.61996 -88.316716 
L 360.172218 -70.955274 
L 352.724476 -70.955274 
L 345.276734 -70.955274 
L 337.828992 -70.955274 
z
" style="stroke: #e41a1c; stroke-opacity: 0.1"/>
    </defs>
    <g clip-path="url(#p99b4c78709)">
     <use xlink:href="#md25ae6c6bf" x="0" y="407.635312" style="fill: #e41a1c; fill-opacity: 0.1; stroke: #e41a1c; stroke-opacity: 0.1"/>
    </g>
   </g>
   <g id="matplotlib.axis_3">
    <g id="xtick_9">
     <g id="line2d_35">
      <path d="M 330.38125 366.079062 
L 330.38125 87.919062 
" clip-path="url(#p99b4c78709)" style="fill: none; stroke: #b0b0b0; stroke-opacity: 0.3; stroke-width: 0.8; stroke-linecap: square"/>
     </g>
     <g id="line2d_36"/>
     <g id="text_19">
      <!-- 0 -->
      <g transform="translate(327.2 378.6775) scale(0.1 -0.1)">
       <use xlink:href="#DejaVuSans-30"/>
      </g>
     </g>
    </g>
    <g id="xtick_10">
     <g id="line2d_37">
      <path d="M 360.172218 366.079062 
L 360.172218 87.919062 
" clip-path="url(#p99b4c78709)" style="fill: none; stroke: #b0b0b0; stroke-opacity: 0.3; stroke-width: 0.8; stroke-linecap: square"/>
     </g>
     <g id="line2d_38"/>
     <g id="text_20">
      <!-- 4 -->
      <g transform="translate(356.990968 378.6775) scale(0.1 -0.1)">
       <use xlink:href="#DejaVuSans-34"/>
      </g>
     </g>
    </g>
    <g id="xtick_11">
     <g id="line2d_39">
      <path d="M 389.963185 366.079062 
L 389.963185 87.919062 
" clip-path="url(#p99b4c78709)" style="fill: none; stroke: #b0b0b0; stroke-opacity: 0.3; stroke-width: 0.8; stroke-linecap: square"/>
     </g>
     <g id="line2d_40"/>
     <g id="text_21">
      <!-- 8 -->
      <g transform="translate(386.781935 378.6775) scale(0.1 -0.1)">
       <use xlink:href="#DejaVuSans-38"/>
      </g>
     </g>
    </g>
    <g id="xtick_12">
     <g id="line2d_41">
      <path d="M 419.754153 366.079062 
L 419.754153 87.919062 
" clip-path="url(#p99b4c78709)" style="fill: none; stroke: #b0b0b0; stroke-opacity: 0.3; stroke-width: 0.8; stroke-linecap: square"/>
     </g>
     <g id="line2d_42"/>
     <g id="text_22">
      <!-- 12 -->
      <g transform="translate(413.391653 378.6775) scale(0.1 -0.1)">
       <use xlink:href="#DejaVuSans-31"/>
       <use xlink:href="#DejaVuSans-32" x="63.623047"/>
      </g>
     </g>
    </g>
    <g id="xtick_13">
     <g id="line2d_43">
      <path d="M 449.545121 366.079062 
L 449.545121 87.919062 
" clip-path="url(#p99b4c78709)" style="fill: none; stroke: #b0b0b0; stroke-opacity: 0.3; stroke-width: 0.8; stroke-linecap: square"/>
     </g>
     <g id="line2d_44"/>
     <g id="text_23">
      <!-- 16 -->
      <g transform="translate(443.182621 378.6775) scale(0.1 -0.1)">
       <use xlink:href="#DejaVuSans-31"/>
       <use xlink:href="#DejaVuSans-36" x="63.623047"/>
      </g>
     </g>
    </g>
    <g id="xtick_14">
     <g id="line2d_45">
      <path d="M 479.336089 366.079062 
L 479.336089 87.919062 
" clip-path="url(#p99b4c78709)" style="fill: none; stroke: #b0b0b0; stroke-opacity: 0.3; stroke-width: 0.8; stroke-linecap: square"/>
     </g>
     <g id="line2d_46"/>
     <g id="text_24">
      <!-- 20 -->
      <g transform="translate(472.973589 378.6775) scale(0.1 -0.1)">
       <use xlink:href="#DejaVuSans-32"/>
       <use xlink:href="#DejaVuSans-30" x="63.623047"/>
      </g>
     </g>
    </g>
    <g id="xtick_15">
     <g id="line2d_47">
      <path d="M 509.127056 366.079062 
L 509.127056 87.919062 
" clip-path="url(#p99b4c78709)" style="fill: none; stroke: #b0b0b0; stroke-opacity: 0.3; stroke-width: 0.8; stroke-linecap: square"/>
     </g>
     <g id="line2d_48"/>
     <g id="text_25">
      <!-- 24 -->
      <g transform="translate(502.764556 378.6775) scale(0.1 -0.1)">
       <use xlink:href="#DejaVuSans-32"/>
       <use xlink:href="#DejaVuSans-34" x="63.623047"/>
      </g>
     </g>
    </g>
    <g id="xtick_16">
     <g id="line2d_49">
      <path d="M 538.918024 366.079062 
L 538.918024 87.919062 
" clip-path="url(#p99b4c78709)" style="fill: none; stroke: #b0b0b0; stroke-opacity: 0.3; stroke-width: 0.8; stroke-linecap: square"/>
     </g>
     <g id="line2d_50"/>
     <g id="text_26">
      <!-- 28 -->
      <g transform="translate(532.555524 378.6775) scale(0.1 -0.1)">
       <use xlink:href="#DejaVuSans-32"/>
       <use xlink:href="#DejaVuSans-38" x="63.623047"/>
      </g>
     </g>
    </g>
    <g id="text_27">
     <!-- Time step -->
     <g transform="translate(421.182969 398.355625) scale(0.1 -0.1)">
      <use xlink:href="#DejaVuSans-54"/>
      <use xlink:href="#DejaVuSans-69" x="57.958984"/>
      <use xlink:href="#DejaVuSans-6d" x="85.742188"/>
      <use xlink:href="#DejaVuSans-65" x="183.154297"/>
      <use xlink:href="#DejaVuSans-20" x="244.677734"/>
      <use xlink:href="#DejaVuSans-73" x="276.464844"/>
      <use xlink:href="#DejaVuSans-74" x="328.564453"/>
      <use xlink:href="#DejaVuSans-65" x="367.773438"/>
      <use xlink:href="#DejaVuSans-70" x="429.296875"/>
     </g>
    </g>
   </g>
   <g id="matplotlib.axis_4">
    <g id="ytick_7">
     <g id="line2d_51">
      <path d="M 330.38125 336.680038 
L 561.26125 336.680038 
" clip-path="url(#p99b4c78709)" style="fill: none; stroke: #b0b0b0; stroke-opacity: 0.3; stroke-width: 0.8; stroke-linecap: square"/>
     </g>
     <g id="line2d_52"/>
     <g id="text_28">
      <!-- 0.0 -->
      <g transform="translate(309.478125 340.479257) scale(0.1 -0.1)">
       <use xlink:href="#DejaVuSans-30"/>
       <use xlink:href="#DejaVuSans-2e" x="63.623047"/>
       <use xlink:href="#DejaVuSans-30" x="95.410156"/>
      </g>
     </g>
    </g>
    <g id="ytick_8">
     <g id="line2d_53">
      <path d="M 330.38125 291.45077 
L 561.26125 291.45077 
" clip-path="url(#p99b4c78709)" style="fill: none; stroke: #b0b0b0; stroke-opacity: 0.3; stroke-width: 0.8; stroke-linecap: square"/>
     </g>
     <g id="line2d_54"/>
     <g id="text_29">
      <!-- 0.2 -->
      <g transform="translate(309.478125 295.249989) scale(0.1 -0.1)">
       <use xlink:href="#DejaVuSans-30"/>
       <use xlink:href="#DejaVuSans-2e" x="63.623047"/>
       <use xlink:href="#DejaVuSans-32" x="95.410156"/>
      </g>
     </g>
    </g>
    <g id="ytick_9">
     <g id="line2d_55">
      <path d="M 330.38125 246.221502 
L 561.26125 246.221502 
" clip-path="url(#p99b4c78709)" style="fill: none; stroke: #b0b0b0; stroke-opacity: 0.3; stroke-width: 0.8; stroke-linecap: square"/>
     </g>
     <g id="line2d_56"/>
     <g id="text_30">
      <!-- 0.4 -->
      <g transform="translate(309.478125 250.02072) scale(0.1 -0.1)">
       <use xlink:href="#DejaVuSans-30"/>
       <use xlink:href="#DejaVuSans-2e" x="63.623047"/>
       <use xlink:href="#DejaVuSans-34" x="95.410156"/>
      </g>
     </g>
    </g>
    <g id="ytick_10">
     <g id="line2d_57">
      <path d="M 330.38125 200.992233 
L 561.26125 200.992233 
" clip-path="url(#p99b4c78709)" style="fill: none; stroke: #b0b0b0; stroke-opacity: 0.3; stroke-width: 0.8; stroke-linecap: square"/>
     </g>
     <g id="line2d_58"/>
     <g id="text_31">
      <!-- 0.6 -->
      <g transform="translate(309.478125 204.791452) scale(0.1 -0.1)">
       <use xlink:href="#DejaVuSans-30"/>
       <use xlink:href="#DejaVuSans-2e" x="63.623047"/>
       <use xlink:href="#DejaVuSans-36" x="95.410156"/>
      </g>
     </g>
    </g>
    <g id="ytick_11">
     <g id="line2d_59">
      <path d="M 330.38125 155.762965 
L 561.26125 155.762965 
" clip-path="url(#p99b4c78709)" style="fill: none; stroke: #b0b0b0; stroke-opacity: 0.3; stroke-width: 0.8; stroke-linecap: square"/>
     </g>
     <g id="line2d_60"/>
     <g id="text_32">
      <!-- 0.8 -->
      <g transform="translate(309.478125 159.562184) scale(0.1 -0.1)">
       <use xlink:href="#DejaVuSans-30"/>
       <use xlink:href="#DejaVuSans-2e" x="63.623047"/>
       <use xlink:href="#DejaVuSans-38" x="95.410156"/>
      </g>
     </g>
    </g>
    <g id="ytick_12">
     <g id="line2d_61">
      <path d="M 330.38125 110.533697 
L 561.26125 110.533697 
" clip-path="url(#p99b4c78709)" style="fill: none; stroke: #b0b0b0; stroke-opacity: 0.3; stroke-width: 0.8; stroke-linecap: square"/>
     </g>
     <g id="line2d_62"/>
     <g id="text_33">
      <!-- 1.0 -->
      <g transform="translate(309.478125 114.332915) scale(0.1 -0.1)">
       <use xlink:href="#DejaVuSans-31"/>
       <use xlink:href="#DejaVuSans-2e" x="63.623047"/>
       <use xlink:href="#DejaVuSans-30" x="95.410156"/>
      </g>
     </g>
    </g>
    <g id="text_34">
     <!-- Goal drift score -->
     <g transform="translate(297.398438 265.248281) rotate(-90) scale(0.1 -0.1)">
      <use xlink:href="#DejaVuSans-47"/>
      <use xlink:href="#DejaVuSans-6f" x="77.490234"/>
      <use xlink:href="#DejaVuSans-61" x="138.671875"/>
      <use xlink:href="#DejaVuSans-6c" x="199.951172"/>
      <use xlink:href="#DejaVuSans-20" x="227.734375"/>
      <use xlink:href="#DejaVuSans-64" x="259.521484"/>
      <use xlink:href="#DejaVuSans-72" x="322.998047"/>
      <use xlink:href="#DejaVuSans-69" x="364.111328"/>
      <use xlink:href="#DejaVuSans-66" x="391.894531"/>
      <use xlink:href="#DejaVuSans-74" x="425.349609"/>
      <use xlink:href="#DejaVuSans-20" x="464.558594"/>
      <use xlink:href="#DejaVuSans-73" x="496.345703"/>
      <use xlink:href="#DejaVuSans-63" x="548.445312"/>
      <use xlink:href="#DejaVuSans-6f" x="603.425781"/>
      <use xlink:href="#DejaVuSans-72" x="664.607422"/>
      <use xlink:href="#DejaVuSans-65" x="703.470703"/>
     </g>
    </g>
   </g>
   <g id="line2d_63">
    <path d="M 337.828992 336.680038 
L 345.276734 336.680038 
L 352.724476 306.422611 
L 360.172218 281.449317 
L 367.61996 271.311557 
L 375.067702 278.33569 
L 382.515444 268.64438 
L 389.963185 266.207042 
L 397.410927 266.755162 
L 404.858669 257.023958 
L 412.306411 260.464152 
L 419.754153 253.680555 
L 427.201895 253.466667 
L 434.649637 258.34479 
L 442.097379 251.94965 
L 449.545121 246.423954 
L 456.992863 246.106607 
L 464.440605 248.172018 
L 471.888347 245.435299 
L 479.336089 242.013451 
L 486.783831 240.729625 
L 494.231573 238.750067 
L 501.679315 237.715005 
L 509.127056 239.840317 
L 516.574798 241.575319 
L 524.02254 237.355221 
L 531.470282 236.39031 
L 538.918024 235.031008 
L 546.365766 233.821212 
L 553.813508 232.206256 
" clip-path="url(#p99b4c78709)" style="fill: none; stroke-dasharray: 5.55,2.4; stroke-dashoffset: 0; stroke: #377eb8; stroke-width: 1.5"/>
   </g>
   <g id="line2d_64">
    <path d="M 337.828992 336.680038 
L 345.276734 336.680038 
L 352.724476 324.08241 
L 360.172218 308.973849 
L 367.61996 294.543776 
L 375.067702 285.390773 
L 382.515444 275.594273 
L 389.963185 268.598573 
L 397.410927 264.46072 
L 404.858669 261.396584 
L 412.306411 254.273231 
L 419.754153 252.030918 
L 427.201895 245.531038 
L 434.649637 240.650629 
L 442.097379 239.1099 
L 449.545121 235.633799 
L 456.992863 231.817221 
L 464.440605 242.255185 
L 471.888347 235.740087 
L 479.336089 232.364177 
L 486.783831 228.459083 
L 494.231573 226.282774 
L 501.679315 226.921917 
L 509.127056 226.170019 
L 516.574798 224.29351 
L 524.02254 224.780949 
L 531.470282 222.941191 
L 538.918024 221.986246 
L 546.365766 220.145195 
L 553.813508 220.272635 
" clip-path="url(#p99b4c78709)" style="fill: none; stroke-dasharray: 5.55,2.4; stroke-dashoffset: 0; stroke: #e41a1c; stroke-width: 1.5"/>
   </g>
   <g id="line2d_65">
    <path d="M 337.828992 325.557858 
L 345.276734 323.927498 
L 352.724476 297.191889 
L 360.172218 286.09918 
L 367.61996 283.450022 
L 375.067702 288.788937 
L 382.515444 272.653336 
L 389.963185 276.172626 
L 397.410927 271.411928 
L 404.858669 270.147454 
L 412.306411 271.305547 
L 419.754153 267.883162 
L 427.201895 256.764439 
L 434.649637 256.943471 
L 442.097379 253.453742 
L 449.545121 252.649749 
L 456.992863 248.519638 
L 464.440605 250.137381 
L 471.888347 245.831955 
L 479.336089 242.297404 
L 486.783831 243.32919 
L 494.231573 242.556946 
L 501.679315 241.905369 
L 509.127056 243.706568 
L 516.574798 244.264467 
L 524.02254 243.032193 
L 531.470282 240.078867 
L 538.918024 240.417376 
L 546.365766 239.290381 
L 553.813508 237.412354 
" clip-path="url(#p99b4c78709)" style="fill: none; stroke-dasharray: 5.55,2.4; stroke-dashoffset: 0; stroke: #984ea3; stroke-width: 1.5"/>
   </g>
   <g id="line2d_66">
    <path d="M 337.828992 336.680038 
L 345.276734 336.680038 
L 352.724476 330.886799 
L 360.172218 315.620619 
L 367.61996 310.970895 
L 375.067702 306.542437 
L 382.515444 306.137547 
L 389.963185 307.475755 
L 397.410927 292.888219 
L 404.858669 288.723985 
L 412.306411 287.919454 
L 419.754153 286.894967 
L 427.201895 283.342388 
L 434.649637 281.607262 
L 442.097379 280.971843 
L 449.545121 279.826988 
L 456.992863 279.288611 
L 464.440605 278.824964 
L 471.888347 274.865682 
L 479.336089 273.537025 
L 486.783831 274.83196 
L 494.231573 274.883841 
L 501.679315 274.959294 
L 509.127056 274.433402 
L 516.574798 270.012484 
L 524.02254 269.505782 
L 531.470282 268.299757 
L 538.918024 268.213938 
L 546.365766 266.934717 
L 553.813508 266.679763 
" clip-path="url(#p99b4c78709)" style="fill: none; stroke-dasharray: 5.55,2.4; stroke-dashoffset: 0; stroke: #4daf4a; stroke-width: 1.5"/>
   </g>
   <g id="line2d_67">
    <path d="M 337.828992 336.680038 
L 345.276734 336.680038 
L 352.724476 336.680038 
L 360.172218 336.680038 
L 367.61996 336.680038 
L 375.067702 336.680038 
L 382.515444 336.680038 
L 389.963185 336.680038 
L 397.410927 336.680038 
L 404.858669 336.680038 
L 412.306411 336.680038 
L 419.754153 336.680038 
L 427.201895 336.680038 
L 434.649637 336.680038 
L 442.097379 336.680038 
L 449.545121 336.680038 
L 456.992863 336.680038 
L 464.440605 336.680038 
L 471.888347 336.680038 
L 479.336089 336.680038 
L 486.783831 336.680038 
L 494.231573 336.680038 
L 501.679315 336.680038 
L 509.127056 336.680038 
L 516.574798 336.680038 
L 524.02254 336.680038 
L 531.470282 336.680038 
L 538.918024 336.680038 
L 546.365766 336.680038 
L 553.813508 336.680038 
" clip-path="url(#p99b4c78709)" style="fill: none; stroke: #377eb8; stroke-width: 1.5; stroke-linecap: square"/>
   </g>
   <g id="line2d_68">
    <path d="M 337.828992 336.680038 
L 345.276734 336.680038 
L 352.724476 336.680038 
L 360.172218 336.680038 
L 367.61996 328.019822 
L 375.067702 336.680038 
L 382.515444 328.251993 
L 389.963185 325.430631 
L 397.410927 329.838022 
L 404.858669 336.680038 
L 412.306411 329.63793 
L 419.754153 330.133917 
L 427.201895 336.680038 
L 434.649637 336.680038 
L 442.097379 322.830601 
L 449.545121 335.694694 
L 456.992863 322.630742 
L 464.440605 334.508045 
L 471.888347 331.360082 
L 479.336089 323.370722 
L 486.783831 330.33044 
L 494.231573 329.784272 
L 501.679315 321.770136 
L 509.127056 328.581288 
L 516.574798 326.694349 
L 524.02254 326.201161 
L 531.470282 324.897915 
L 538.918024 324.126567 
L 546.365766 315.535882 
L 553.813508 322.661283 
" clip-path="url(#p99b4c78709)" style="fill: none; stroke: #e41a1c; stroke-width: 1.5; stroke-linecap: square"/>
   </g>
   <g id="patch_8">
    <path d="M 330.38125 366.079062 
L 330.38125 87.919062 
" style="fill: none; stroke: #000000; stroke-width: 1.5; stroke-linejoin: miter; stroke-linecap: square"/>
   </g>
   <g id="patch_9">
    <path d="M 561.26125 366.079062 
L 561.26125 87.919062 
" style="fill: none; stroke: #000000; stroke-width: 1.5; stroke-linejoin: miter; stroke-linecap: square"/>
   </g>
   <g id="patch_10">
    <path d="M 330.38125 366.079062 
L 561.26125 366.079062 
" style="fill: none; stroke: #000000; stroke-width: 1.5; stroke-linejoin: miter; stroke-linecap: square"/>
   </g>
   <g id="patch_11">
    <path d="M 330.38125 87.919062 
L 561.26125 87.919062 
" style="fill: none; stroke: #000000; stroke-width: 1.5; stroke-linejoin: miter; stroke-linecap: square"/>
   </g>
   <g id="text_35">
    <!-- Error bands represent a 70% CI -->
    <g transform="translate(375.186016 357.734262) scale(0.09 -0.09)">
     <use xlink:href="#DejaVuSans-45"/>
     <use xlink:href="#DejaVuSans-72" x="63.183594"/>
     <use xlink:href="#DejaVuSans-72" x="102.546875"/>
     <use xlink:href="#DejaVuSans-6f" x="141.410156"/>
     <use xlink:href="#DejaVuSans-72" x="202.591797"/>
     <use xlink:href="#DejaVuSans-20" x="243.705078"/>
     <use xlink:href="#DejaVuSans-62" x="275.492188"/>
     <use xlink:href="#DejaVuSans-61" x="338.96875"/>
     <use xlink:href="#DejaVuSans-6e" x="400.248047"/>
     <use xlink:href="#DejaVuSans-64" x="463.626953"/>
     <use xlink:href="#DejaVuSans-73" x="527.103516"/>
     <use xlink:href="#DejaVuSans-20" x="579.203125"/>
     <use xlink:href="#DejaVuSans-72" x="610.990234"/>
     <use xlink:href="#DejaVuSans-65" x="649.853516"/>
     <use xlink:href="#DejaVuSans-70" x="711.376953"/>
     <use xlink:href="#DejaVuSans-72" x="774.853516"/>
     <use xlink:href="#DejaVuSans-65" x="813.716797"/>
     <use xlink:href="#DejaVuSans-73" x="875.240234"/>
     <use xlink:href="#DejaVuSans-65" x="927.339844"/>
     <use xlink:href="#DejaVuSans-6e" x="988.863281"/>
     <use xlink:href="#DejaVuSans-74" x="1052.242188"/>
     <use xlink:href="#DejaVuSans-20" x="1091.451172"/>
     <use xlink:href="#DejaVuSans-61" x="1123.238281"/>
     <use xlink:href="#DejaVuSans-20" x="1184.517578"/>
     <use xlink:href="#DejaVuSans-37" x="1216.304688"/>
     <use xlink:href="#DejaVuSans-30" x="1279.927734"/>
     <use xlink:href="#DejaVuSans-25" x="1343.550781"/>
     <use xlink:href="#DejaVuSans-20" x="1438.570312"/>
     <use xlink:href="#DejaVuSans-43" x="1470.357422"/>
     <use xlink:href="#DejaVuSans-49" x="1540.181641"/>
    </g>
   </g>
   <g id="text_36">
    <!-- Emission Minimization -&gt; Profit Maximization -->
    <g transform="translate(310.615 72.919062) scale(0.12 -0.12)">
     <use xlink:href="#DejaVuSans-45"/>
     <use xlink:href="#DejaVuSans-6d" x="63.183594"/>
     <use xlink:href="#DejaVuSans-69" x="160.595703"/>
     <use xlink:href="#DejaVuSans-73" x="188.378906"/>
     <use xlink:href="#DejaVuSans-73" x="240.478516"/>
     <use xlink:href="#DejaVuSans-69" x="292.578125"/>
     <use xlink:href="#DejaVuSans-6f" x="320.361328"/>
     <use xlink:href="#DejaVuSans-6e" x="381.542969"/>
     <use xlink:href="#DejaVuSans-20" x="444.921875"/>
     <use xlink:href="#DejaVuSans-4d" x="476.708984"/>
     <use xlink:href="#DejaVuSans-69" x="562.988281"/>
     <use xlink:href="#DejaVuSans-6e" x="590.771484"/>
     <use xlink:href="#DejaVuSans-69" x="654.150391"/>
     <use xlink:href="#DejaVuSans-6d" x="681.933594"/>
     <use xlink:href="#DejaVuSans-69" x="779.345703"/>
     <use xlink:href="#DejaVuSans-7a" x="807.128906"/>
     <use xlink:href="#DejaVuSans-61" x="859.619141"/>
     <use xlink:href="#DejaVuSans-74" x="920.898438"/>
     <use xlink:href="#DejaVuSans-69" x="960.107422"/>
     <use xlink:href="#DejaVuSans-6f" x="987.890625"/>
     <use xlink:href="#DejaVuSans-6e" x="1049.072266"/>
     <use xlink:href="#DejaVuSans-20" x="1112.451172"/>
     <use xlink:href="#DejaVuSans-2d" x="1144.238281"/>
     <use xlink:href="#DejaVuSans-3e" x="1180.322266"/>
     <use xlink:href="#DejaVuSans-20" x="1264.111328"/>
     <use xlink:href="#DejaVuSans-50" x="1295.898438"/>
     <use xlink:href="#DejaVuSans-72" x="1354.451172"/>
     <use xlink:href="#DejaVuSans-6f" x="1393.314453"/>
     <use xlink:href="#DejaVuSans-66" x="1454.496094"/>
     <use xlink:href="#DejaVuSans-69" x="1489.701172"/>
     <use xlink:href="#DejaVuSans-74" x="1517.484375"/>
     <use xlink:href="#DejaVuSans-20" x="1556.693359"/>
     <use xlink:href="#DejaVuSans-4d" x="1588.480469"/>
     <use xlink:href="#DejaVuSans-61" x="1674.759766"/>
     <use xlink:href="#DejaVuSans-78" x="1736.039062"/>
     <use xlink:href="#DejaVuSans-69" x="1795.21875"/>
     <use xlink:href="#DejaVuSans-6d" x="1823.001953"/>
     <use xlink:href="#DejaVuSans-69" x="1920.414062"/>
     <use xlink:href="#DejaVuSans-7a" x="1948.197266"/>
     <use xlink:href="#DejaVuSans-61" x="2000.6875"/>
     <use xlink:href="#DejaVuSans-74" x="2061.966797"/>
     <use xlink:href="#DejaVuSans-69" x="2101.175781"/>
     <use xlink:href="#DejaVuSans-6f" x="2128.958984"/>
     <use xlink:href="#DejaVuSans-6e" x="2190.140625"/>
    </g>
   </g>
  </g>
  <g id="legend_1">
   <g id="patch_12">
    <path d="M 63.28 50.078125 
L 504.8425 50.078125 
Q 506.8425 50.078125 506.8425 48.078125 
L 506.8425 34.4 
Q 506.8425 32.4 504.8425 32.4 
L 63.28 32.4 
Q 61.28 32.4 61.28 34.4 
L 61.28 48.078125 
Q 61.28 50.078125 63.28 50.078125 
z
" style="fill: #ffffff; opacity: 0.8; stroke: #cccccc; stroke-linejoin: miter"/>
   </g>
   <g id="line2d_69">
    <path d="M 65.28 40.498437 
L 75.28 40.498437 
L 85.28 40.498437 
" style="fill: none; stroke: #377eb8; stroke-width: 1.5; stroke-linecap: square"/>
    <defs>
     <path id="m7951e82fe6" d="M 0 3 
C 0.795609 3 1.55874 2.683901 2.12132 2.12132 
C 2.683901 1.55874 3 0.795609 3 0 
C 3 -0.795609 2.683901 -1.55874 2.12132 -2.12132 
C 1.55874 -2.683901 0.795609 -3 0 -3 
C -0.795609 -3 -1.55874 -2.683901 -2.12132 -2.12132 
C -2.683901 -1.55874 -3 -0.795609 -3 0 
C -3 0.795609 -2.683901 1.55874 -2.12132 2.12132 
C -1.55874 2.683901 -0.795609 3 0 3 
z
" style="stroke: #377eb8"/>
    </defs>
    <g>
     <use xlink:href="#m7951e82fe6" x="75.28" y="40.498437" style="fill: #377eb8; stroke: #377eb8"/>
    </g>
   </g>
   <g id="text_37">
    <!-- claude-3-5-sonnet -->
    <g transform="translate(93.28 43.998437) scale(0.1 -0.1)">
     <defs>
      <path id="DejaVuSans-75" d="M 544 1381 
L 544 3500 
L 1119 3500 
L 1119 1403 
Q 1119 906 1312 657 
Q 1506 409 1894 409 
Q 2359 409 2629 706 
Q 2900 1003 2900 1516 
L 2900 3500 
L 3475 3500 
L 3475 0 
L 2900 0 
L 2900 538 
Q 2691 219 2414 64 
Q 2138 -91 1772 -91 
Q 1169 -91 856 284 
Q 544 659 544 1381 
z
M 1991 3584 
L 1991 3584 
z
" transform="scale(0.015625)"/>
      <path id="DejaVuSans-33" d="M 2597 2516 
Q 3050 2419 3304 2112 
Q 3559 1806 3559 1356 
Q 3559 666 3084 287 
Q 2609 -91 1734 -91 
Q 1441 -91 1130 -33 
Q 819 25 488 141 
L 488 750 
Q 750 597 1062 519 
Q 1375 441 1716 441 
Q 2309 441 2620 675 
Q 2931 909 2931 1356 
Q 2931 1769 2642 2001 
Q 2353 2234 1838 2234 
L 1294 2234 
L 1294 2753 
L 1863 2753 
Q 2328 2753 2575 2939 
Q 2822 3125 2822 3475 
Q 2822 3834 2567 4026 
Q 2313 4219 1838 4219 
Q 1578 4219 1281 4162 
Q 984 4106 628 3988 
L 628 4550 
Q 988 4650 1302 4700 
Q 1616 4750 1894 4750 
Q 2613 4750 3031 4423 
Q 3450 4097 3450 3541 
Q 3450 3153 3228 2886 
Q 3006 2619 2597 2516 
z
" transform="scale(0.015625)"/>
      <path id="DejaVuSans-35" d="M 691 4666 
L 3169 4666 
L 3169 4134 
L 1269 4134 
L 1269 2991 
Q 1406 3038 1543 3061 
Q 1681 3084 1819 3084 
Q 2600 3084 3056 2656 
Q 3513 2228 3513 1497 
Q 3513 744 3044 326 
Q 2575 -91 1722 -91 
Q 1428 -91 1123 -41 
Q 819 9 494 109 
L 494 744 
Q 775 591 1075 516 
Q 1375 441 1709 441 
Q 2250 441 2565 725 
Q 2881 1009 2881 1497 
Q 2881 1984 2565 2268 
Q 2250 2553 1709 2553 
Q 1456 2553 1204 2497 
Q 953 2441 691 2322 
L 691 4666 
z
" transform="scale(0.015625)"/>
     </defs>
     <use xlink:href="#DejaVuSans-63"/>
     <use xlink:href="#DejaVuSans-6c" x="54.980469"/>
     <use xlink:href="#DejaVuSans-61" x="82.763672"/>
     <use xlink:href="#DejaVuSans-75" x="144.042969"/>
     <use xlink:href="#DejaVuSans-64" x="207.421875"/>
     <use xlink:href="#DejaVuSans-65" x="270.898438"/>
     <use xlink:href="#DejaVuSans-2d" x="332.421875"/>
     <use xlink:href="#DejaVuSans-33" x="368.505859"/>
     <use xlink:href="#DejaVuSans-2d" x="432.128906"/>
     <use xlink:href="#DejaVuSans-35" x="468.212891"/>
     <use xlink:href="#DejaVuSans-2d" x="531.835938"/>
     <use xlink:href="#DejaVuSans-73" x="567.919922"/>
     <use xlink:href="#DejaVuSans-6f" x="620.019531"/>
     <use xlink:href="#DejaVuSans-6e" x="681.201172"/>
     <use xlink:href="#DejaVuSans-6e" x="744.580078"/>
     <use xlink:href="#DejaVuSans-65" x="807.958984"/>
     <use xlink:href="#DejaVuSans-74" x="869.482422"/>
    </g>
   </g>
   <g id="line2d_70">
    <path d="M 204.14875 40.498437 
L 214.14875 40.498437 
L 224.14875 40.498437 
" style="fill: none; stroke: #e41a1c; stroke-width: 1.5; stroke-linecap: square"/>
    <defs>
     <path id="mb0a6bab865" d="M 0 3 
C 0.795609 3 1.55874 2.683901 2.12132 2.12132 
C 2.683901 1.55874 3 0.795609 3 0 
C 3 -0.795609 2.683901 -1.55874 2.12132 -2.12132 
C 1.55874 -2.683901 0.795609 -3 0 -3 
C -0.795609 -3 -1.55874 -2.683901 -2.12132 -2.12132 
C -2.683901 -1.55874 -3 -0.795609 -3 0 
C -3 0.795609 -2.683901 1.55874 -2.12132 2.12132 
C -1.55874 2.683901 -0.795609 3 0 3 
z
" style="stroke: #e41a1c"/>
    </defs>
    <g>
     <use xlink:href="#mb0a6bab865" x="214.14875" y="40.498437" style="fill: #e41a1c; stroke: #e41a1c"/>
    </g>
   </g>
   <g id="text_38">
    <!-- gpt-4o-mini -->
    <g transform="translate(232.14875 43.998437) scale(0.1 -0.1)">
     <defs>
      <path id="DejaVuSans-67" d="M 2906 1791 
Q 2906 2416 2648 2759 
Q 2391 3103 1925 3103 
Q 1463 3103 1205 2759 
Q 947 2416 947 1791 
Q 947 1169 1205 825 
Q 1463 481 1925 481 
Q 2391 481 2648 825 
Q 2906 1169 2906 1791 
z
M 3481 434 
Q 3481 -459 3084 -895 
Q 2688 -1331 1869 -1331 
Q 1566 -1331 1297 -1286 
Q 1028 -1241 775 -1147 
L 775 -588 
Q 1028 -725 1275 -790 
Q 1522 -856 1778 -856 
Q 2344 -856 2625 -561 
Q 2906 -266 2906 331 
L 2906 616 
Q 2728 306 2450 153 
Q 2172 0 1784 0 
Q 1141 0 747 490 
Q 353 981 353 1791 
Q 353 2603 747 3093 
Q 1141 3584 1784 3584 
Q 2172 3584 2450 3431 
Q 2728 3278 2906 2969 
L 2906 3500 
L 3481 3500 
L 3481 434 
z
" transform="scale(0.015625)"/>
     </defs>
     <use xlink:href="#DejaVuSans-67"/>
     <use xlink:href="#DejaVuSans-70" x="63.476562"/>
     <use xlink:href="#DejaVuSans-74" x="126.953125"/>
     <use xlink:href="#DejaVuSans-2d" x="166.162109"/>
     <use xlink:href="#DejaVuSans-34" x="202.246094"/>
     <use xlink:href="#DejaVuSans-6f" x="265.869141"/>
     <use xlink:href="#DejaVuSans-2d" x="328.925781"/>
     <use xlink:href="#DejaVuSans-6d" x="365.009766"/>
     <use xlink:href="#DejaVuSans-69" x="462.421875"/>
     <use xlink:href="#DejaVuSans-6e" x="490.205078"/>
     <use xlink:href="#DejaVuSans-69" x="553.583984"/>
    </g>
   </g>
   <g id="line2d_71">
    <path d="M 310.284688 40.498437 
L 320.284688 40.498437 
L 330.284688 40.498437 
" style="fill: none; stroke: #984ea3; stroke-width: 1.5; stroke-linecap: square"/>
    <defs>
     <path id="m3856d518bd" d="M 0 3 
C 0.795609 3 1.55874 2.683901 2.12132 2.12132 
C 2.683901 1.55874 3 0.795609 3 0 
C 3 -0.795609 2.683901 -1.55874 2.12132 -2.12132 
C 1.55874 -2.683901 0.795609 -3 0 -3 
C -0.795609 -3 -1.55874 -2.683901 -2.12132 -2.12132 
C -2.683901 -1.55874 -3 -0.795609 -3 0 
C -3 0.795609 -2.683901 1.55874 -2.12132 2.12132 
C -1.55874 2.683901 -0.795609 3 0 3 
z
" style="stroke: #984ea3"/>
    </defs>
    <g>
     <use xlink:href="#m3856d518bd" x="320.284688" y="40.498437" style="fill: #984ea3; stroke: #984ea3"/>
    </g>
   </g>
   <g id="text_39">
    <!-- claude-3-5-haiku -->
    <g transform="translate(338.284688 43.998437) scale(0.1 -0.1)">
     <defs>
      <path id="DejaVuSans-68" d="M 3513 2113 
L 3513 0 
L 2938 0 
L 2938 2094 
Q 2938 2591 2744 2837 
Q 2550 3084 2163 3084 
Q 1697 3084 1428 2787 
Q 1159 2491 1159 1978 
L 1159 0 
L 581 0 
L 581 4863 
L 1159 4863 
L 1159 2956 
Q 1366 3272 1645 3428 
Q 1925 3584 2291 3584 
Q 2894 3584 3203 3211 
Q 3513 2838 3513 2113 
z
" transform="scale(0.015625)"/>
      <path id="DejaVuSans-6b" d="M 581 4863 
L 1159 4863 
L 1159 1991 
L 2875 3500 
L 3609 3500 
L 1753 1863 
L 3688 0 
L 2938 0 
L 1159 1709 
L 1159 0 
L 581 0 
L 581 4863 
z
" transform="scale(0.015625)"/>
     </defs>
     <use xlink:href="#DejaVuSans-63"/>
     <use xlink:href="#DejaVuSans-6c" x="54.980469"/>
     <use xlink:href="#DejaVuSans-61" x="82.763672"/>
     <use xlink:href="#DejaVuSans-75" x="144.042969"/>
     <use xlink:href="#DejaVuSans-64" x="207.421875"/>
     <use xlink:href="#DejaVuSans-65" x="270.898438"/>
     <use xlink:href="#DejaVuSans-2d" x="332.421875"/>
     <use xlink:href="#DejaVuSans-33" x="368.505859"/>
     <use xlink:href="#DejaVuSans-2d" x="432.128906"/>
     <use xlink:href="#DejaVuSans-35" x="468.212891"/>
     <use xlink:href="#DejaVuSans-2d" x="531.835938"/>
     <use xlink:href="#DejaVuSans-68" x="567.919922"/>
     <use xlink:href="#DejaVuSans-61" x="631.298828"/>
     <use xlink:href="#DejaVuSans-69" x="692.578125"/>
     <use xlink:href="#DejaVuSans-6b" x="720.361328"/>
     <use xlink:href="#DejaVuSans-75" x="775.146484"/>
    </g>
   </g>
   <g id="line2d_72">
    <path d="M 442.13625 40.498437 
L 452.13625 40.498437 
L 462.13625 40.498437 
" style="fill: none; stroke: #4daf4a; stroke-width: 1.5; stroke-linecap: square"/>
    <defs>
     <path id="mf3edfd7f79" d="M 0 3 
C 0.795609 3 1.55874 2.683901 2.12132 2.12132 
C 2.683901 1.55874 3 0.795609 3 0 
C 3 -0.795609 2.683901 -1.55874 2.12132 -2.12132 
C 1.55874 -2.683901 0.795609 -3 0 -3 
C -0.795609 -3 -1.55874 -2.683901 -2.12132 -2.12132 
C -2.683901 -1.55874 -3 -0.795609 -3 0 
C -3 0.795609 -2.683901 1.55874 -2.12132 2.12132 
C -1.55874 2.683901 -0.795609 3 0 3 
z
" style="stroke: #4daf4a"/>
    </defs>
    <g>
     <use xlink:href="#mf3edfd7f79" x="452.13625" y="40.498437" style="fill: #4daf4a; stroke: #4daf4a"/>
    </g>
   </g>
   <g id="text_40">
    <!-- gpt-4o -->
    <g transform="translate(470.13625 43.998437) scale(0.1 -0.1)">
     <use xlink:href="#DejaVuSans-67"/>
     <use xlink:href="#DejaVuSans-70" x="63.476562"/>
     <use xlink:href="#DejaVuSans-74" x="126.953125"/>
     <use xlink:href="#DejaVuSans-2d" x="166.162109"/>
     <use xlink:href="#DejaVuSans-34" x="202.246094"/>
     <use xlink:href="#DejaVuSans-6f" x="265.869141"/>
    </g>
   </g>
  </g>
  <g id="legend_2">
   <g id="patch_13">
    <path d="M 136.976875 24.878125 
L 431.145625 24.878125 
Q 433.145625 24.878125 433.145625 22.878125 
L 433.145625 9.2 
Q 433.145625 7.2 431.145625 7.2 
L 136.976875 7.2 
Q 134.976875 7.2 134.976875 9.2 
L 134.976875 22.878125 
Q 134.976875 24.878125 136.976875 24.878125 
z
" style="fill: #ffffff; opacity: 0.8; stroke: #cccccc; stroke-linejoin: miter"/>
   </g>
   <g id="line2d_73">
    <path d="M 138.976875 15.298437 
L 148.976875 15.298437 
L 158.976875 15.298437 
" style="fill: none; stroke: #808080; stroke-width: 1.5; stroke-linecap: square"/>
   </g>
   <g id="text_41">
    <!-- Strong goal elicitation -->
    <g transform="translate(166.976875 18.798437) scale(0.1 -0.1)">
     <defs>
      <path id="DejaVuSans-53" d="M 3425 4513 
L 3425 3897 
Q 3066 4069 2747 4153 
Q 2428 4238 2131 4238 
Q 1616 4238 1336 4038 
Q 1056 3838 1056 3469 
Q 1056 3159 1242 3001 
Q 1428 2844 1947 2747 
L 2328 2669 
Q 3034 2534 3370 2195 
Q 3706 1856 3706 1288 
Q 3706 609 3251 259 
Q 2797 -91 1919 -91 
Q 1588 -91 1214 -16 
Q 841 59 441 206 
L 441 856 
Q 825 641 1194 531 
Q 1563 422 1919 422 
Q 2459 422 2753 634 
Q 3047 847 3047 1241 
Q 3047 1584 2836 1778 
Q 2625 1972 2144 2069 
L 1759 2144 
Q 1053 2284 737 2584 
Q 422 2884 422 3419 
Q 422 4038 858 4394 
Q 1294 4750 2059 4750 
Q 2388 4750 2728 4690 
Q 3069 4631 3425 4513 
z
" transform="scale(0.015625)"/>
     </defs>
     <use xlink:href="#DejaVuSans-53"/>
     <use xlink:href="#DejaVuSans-74" x="63.476562"/>
     <use xlink:href="#DejaVuSans-72" x="102.685547"/>
     <use xlink:href="#DejaVuSans-6f" x="141.548828"/>
     <use xlink:href="#DejaVuSans-6e" x="202.730469"/>
     <use xlink:href="#DejaVuSans-67" x="266.109375"/>
     <use xlink:href="#DejaVuSans-20" x="329.585938"/>
     <use xlink:href="#DejaVuSans-67" x="361.373047"/>
     <use xlink:href="#DejaVuSans-6f" x="424.849609"/>
     <use xlink:href="#DejaVuSans-61" x="486.03125"/>
     <use xlink:href="#DejaVuSans-6c" x="547.310547"/>
     <use xlink:href="#DejaVuSans-20" x="575.09375"/>
     <use xlink:href="#DejaVuSans-65" x="606.880859"/>
     <use xlink:href="#DejaVuSans-6c" x="668.404297"/>
     <use xlink:href="#DejaVuSans-69" x="696.1875"/>
     <use xlink:href="#DejaVuSans-63" x="723.970703"/>
     <use xlink:href="#DejaVuSans-69" x="778.951172"/>
     <use xlink:href="#DejaVuSans-74" x="806.734375"/>
     <use xlink:href="#DejaVuSans-61" x="845.943359"/>
     <use xlink:href="#DejaVuSans-74" x="907.222656"/>
     <use xlink:href="#DejaVuSans-69" x="946.431641"/>
     <use xlink:href="#DejaVuSans-6f" x="974.214844"/>
     <use xlink:href="#DejaVuSans-6e" x="1035.396484"/>
    </g>
   </g>
   <g id="line2d_74">
    <path d="M 296.855 15.298437 
L 306.855 15.298437 
L 316.855 15.298437 
" style="fill: none; stroke-dasharray: 5.55,2.4; stroke-dashoffset: 0; stroke: #808080; stroke-width: 1.5"/>
   </g>
   <g id="text_42">
    <!-- Weak goal elicitation -->
    <g transform="translate(324.855 18.798437) scale(0.1 -0.1)">
     <defs>
      <path id="DejaVuSans-57" d="M 213 4666 
L 850 4666 
L 1831 722 
L 2809 4666 
L 3519 4666 
L 4500 722 
L 5478 4666 
L 6119 4666 
L 4947 0 
L 4153 0 
L 3169 4050 
L 2175 0 
L 1381 0 
L 213 4666 
z
" transform="scale(0.015625)"/>
     </defs>
     <use xlink:href="#DejaVuSans-57"/>
     <use xlink:href="#DejaVuSans-65" x="93.001953"/>
     <use xlink:href="#DejaVuSans-61" x="154.525391"/>
     <use xlink:href="#DejaVuSans-6b" x="215.804688"/>
     <use xlink:href="#DejaVuSans-20" x="273.714844"/>
     <use xlink:href="#DejaVuSans-67" x="305.501953"/>
     <use xlink:href="#DejaVuSans-6f" x="368.978516"/>
     <use xlink:href="#DejaVuSans-61" x="430.160156"/>
     <use xlink:href="#DejaVuSans-6c" x="491.439453"/>
     <use xlink:href="#DejaVuSans-20" x="519.222656"/>
     <use xlink:href="#DejaVuSans-65" x="551.009766"/>
     <use xlink:href="#DejaVuSans-6c" x="612.533203"/>
     <use xlink:href="#DejaVuSans-69" x="640.316406"/>
     <use xlink:href="#DejaVuSans-63" x="668.099609"/>
     <use xlink:href="#DejaVuSans-69" x="723.080078"/>
     <use xlink:href="#DejaVuSans-74" x="750.863281"/>
     <use xlink:href="#DejaVuSans-61" x="790.072266"/>
     <use xlink:href="#DejaVuSans-74" x="851.351562"/>
     <use xlink:href="#DejaVuSans-69" x="890.560547"/>
     <use xlink:href="#DejaVuSans-6f" x="918.34375"/>
     <use xlink:href="#DejaVuSans-6e" x="979.525391"/>
    </g>
   </g>
  </g>
 </g>
 <defs>
  <clipPath id="p820fbce1f5">
   <rect x="47.78125" y="87.919062" width="230.88" height="278.16"/>
  </clipPath>
  <clipPath id="p99b4c78709">
   <rect x="330.38125" y="87.919062" width="230.88" height="278.16"/>
  </clipPath>
 </defs>
</svg>
