<?xml version="1.0" encoding="utf-8" standalone="no"?>
<!DOCTYPE svg PUBLIC "-//W3C//DTD SVG 1.1//EN"
  "http://www.w3.org/Graphics/SVG/1.1/DTD/svg11.dtd">
<svg xmlns:xlink="http://www.w3.org/1999/xlink" width="588.2275pt" height="407.635312pt" viewBox="0 0 588.2275 407.635312" xmlns="http://www.w3.org/2000/svg" version="1.1">
 <metadata>
  <rdf:RDF xmlns:dc="http://purl.org/dc/elements/1.1/" xmlns:cc="http://creativecommons.org/ns#" xmlns:rdf="http://www.w3.org/1999/02/22-rdf-syntax-ns#">
   <cc:Work>
    <dc:type rdf:resource="http://purl.org/dc/dcmitype/StillImage"/>
    <dc:date>2025-01-20T14:04:38.378115</dc:date>
    <dc:format>image/svg+xml</dc:format>
    <dc:creator>
     <cc:Agent>
      <dc:title>Matplotlib v3.9.2, https://matplotlib.org/</dc:title>
     </cc:Agent>
    </dc:creator>
   </cc:Work>
  </rdf:RDF>
 </metadata>
 <defs>
  <style type="text/css">*{stroke-linejoin: round; stroke-linecap: butt}</style>
 </defs>
 <g id="figure_1">
  <g id="patch_1">
   <path d="M 0 407.635312 
L 588.2275 407.635312 
L 588.2275 0 
L 0 0 
z
" style="fill: #ffffff"/>
  </g>
  <g id="axes_1">
   <g id="patch_2">
    <path d="M 47.78125 366.079062 
L 278.66125 366.079062 
L 278.66125 87.919062 
L 47.78125 87.919062 
z
" style="fill: #ffffff"/>
   </g>
   <g id="PolyCollection_1">
    <defs>
     <path id="m1aacce73f5" d="M 58.275795 -133.552006 
L 58.275795 -66.570421 
L 65.04647 -64.73625 
L 71.817144 -226.987442 
L 78.587819 -240.479934 
L 85.358493 -229.021852 
L 92.129168 -236.222497 
L 98.899842 -246.536432 
L 105.670517 -248.053325 
L 112.441191 -255.389374 
L 119.211866 -258.142834 
L 125.98254 -253.874289 
L 132.753215 -255.429892 
L 139.523889 -260.841522 
L 146.294564 -259.935476 
L 153.065238 -254.990236 
L 159.835913 -259.354601 
L 166.606587 -259.214173 
L 173.377262 -256.731276 
L 180.147936 -256.366199 
L 186.918611 -253.610145 
L 193.689285 -262.826827 
L 200.45996 -255.875092 
L 207.230634 -254.367623 
L 214.001309 -246.547707 
L 220.771983 -255.362407 
L 227.542658 -252.957804 
L 234.313332 -256.157831 
L 241.084007 -262.005536 
L 247.854681 -266.539086 
L 254.625356 -246.126196 
L 261.39603 -264.732353 
L 268.166705 -261.459882 
L 268.166705 -285.784478 
L 268.166705 -285.784478 
L 261.39603 -287.523649 
L 254.625356 -269.82809 
L 247.854681 -289.280352 
L 241.084007 -289.150261 
L 234.313332 -280.806582 
L 227.542658 -275.303164 
L 220.771983 -280.713596 
L 214.001309 -254.387792 
L 207.230634 -260.259692 
L 200.45996 -281.461207 
L 193.689285 -285.266974 
L 186.918611 -279.205012 
L 180.147936 -280.383906 
L 173.377262 -275.365196 
L 166.606587 -281.834977 
L 159.835913 -281.813429 
L 153.065238 -279.775851 
L 146.294564 -274.847888 
L 139.523889 -282.487964 
L 132.753215 -276.335025 
L 125.98254 -279.459359 
L 119.211866 -281.644334 
L 112.441191 -285.848768 
L 105.670517 -277.898511 
L 98.899842 -278.389296 
L 92.129168 -274.758638 
L 85.358493 -274.348028 
L 78.587819 -275.213801 
L 71.817144 -269.857786 
L 65.04647 -93.55015 
L 58.275795 -133.552006 
z
" style="stroke: #2c7bb6; stroke-opacity: 0.1"/>
    </defs>
    <g clip-path="url(#p207f9e4f77)">
     <use xlink:href="#m1aacce73f5" x="0" y="407.635312" style="fill: #2c7bb6; fill-opacity: 0.1; stroke: #2c7bb6; stroke-opacity: 0.1"/>
    </g>
   </g>
   <g id="PolyCollection_2">
    <defs>
     <path id="m8a6af0cb5a" d="M 58.275795 -74.197668 
L 58.275795 -64.73625 
L 65.04647 -64.73625 
L 71.817144 -81.27621 
L 78.587819 -110.632868 
L 85.358493 -118.250627 
L 92.129168 -118.436849 
L 98.899842 -117.5545 
L 105.670517 -111.034182 
L 112.441191 -117.867094 
L 119.211866 -109.371285 
L 125.98254 -101.265699 
L 132.753215 -103.43732 
L 139.523889 -93.89931 
L 146.294564 -92.595688 
L 153.065238 -94.300731 
L 159.835913 -95.000619 
L 166.606587 -98.579353 
L 173.377262 -96.35172 
L 180.147936 -100.164702 
L 186.918611 -99.50215 
L 193.689285 -102.355868 
L 200.45996 -107.626075 
L 207.230634 -107.335824 
L 214.001309 -107.32171 
L 220.771983 -111.957858 
L 227.542658 -107.960908 
L 234.313332 -108.343692 
L 241.084007 -111.766292 
L 247.854681 -112.802478 
L 254.625356 -113.667487 
L 261.39603 -114.135915 
L 268.166705 -115.303504 
L 268.166705 -203.450974 
L 268.166705 -203.450974 
L 261.39603 -204.655288 
L 254.625356 -204.20821 
L 247.854681 -202.436523 
L 241.084007 -198.367732 
L 234.313332 -197.965005 
L 227.542658 -195.67682 
L 220.771983 -195.163907 
L 214.001309 -194.628528 
L 207.230634 -194.618021 
L 200.45996 -190.446817 
L 193.689285 -189.638456 
L 186.918611 -185.822044 
L 180.147936 -184.097404 
L 173.377262 -179.701583 
L 166.606587 -181.296768 
L 159.835913 -177.889841 
L 153.065238 -178.843509 
L 146.294564 -175.741996 
L 139.523889 -176.491934 
L 132.753215 -175.414436 
L 125.98254 -183.35252 
L 119.211866 -180.936476 
L 112.441191 -174.06124 
L 105.670517 -186.17429 
L 98.899842 -185.793647 
L 92.129168 -193.069309 
L 85.358493 -186.362596 
L 78.587819 -167.117753 
L 71.817144 -127.861075 
L 65.04647 -80.600017 
L 58.275795 -74.197668 
z
" style="stroke: #d7191c; stroke-opacity: 0.1"/>
    </defs>
    <g clip-path="url(#p207f9e4f77)">
     <use xlink:href="#m8a6af0cb5a" x="0" y="407.635312" style="fill: #d7191c; fill-opacity: 0.1; stroke: #d7191c; stroke-opacity: 0.1"/>
    </g>
   </g>
   <g id="PolyCollection_3">
    <defs>
     <path id="m40d559c9cf" d="M 58.275795 -104.004346 
L 58.275795 -64.73625 
L 65.04647 -64.73625 
L 71.817144 -101.475557 
L 78.587819 -97.722283 
L 85.358493 -96.821383 
L 92.129168 -79.074453 
L 98.899842 -81.201428 
L 105.670517 -76.958974 
L 112.441191 -72.825717 
L 119.211866 -76.725984 
L 125.98254 -68.851706 
L 132.753215 -68.462481 
L 139.523889 -65.189697 
L 146.294564 -65.141974 
L 153.065238 -68.21719 
L 159.835913 -65.094898 
L 166.606587 -65.075108 
L 173.377262 -64.968354 
L 180.147936 -64.73625 
L 186.918611 -64.73625 
L 193.689285 -64.73625 
L 200.45996 -64.73625 
L 207.230634 -64.73625 
L 214.001309 -64.73625 
L 220.771983 -64.73625 
L 227.542658 -64.73625 
L 234.313332 -64.73625 
L 241.084007 -64.73625 
L 247.854681 -64.73625 
L 254.625356 -64.73625 
L 261.39603 -64.73625 
L 268.166705 -64.73625 
L 268.166705 -65.966709 
L 268.166705 -65.966709 
L 261.39603 -65.97536 
L 254.625356 -66.169112 
L 247.854681 -66.368166 
L 241.084007 -66.05963 
L 234.313332 -68.764556 
L 227.542658 -66.563177 
L 220.771983 -66.572392 
L 214.001309 -66.637574 
L 207.230634 -66.800439 
L 200.45996 -66.871444 
L 193.689285 -66.252363 
L 186.918611 -67.148762 
L 180.147936 -69.358779 
L 173.377262 -69.652008 
L 166.606587 -68.890233 
L 159.835913 -69.132829 
L 153.065238 -73.760921 
L 146.294564 -69.709929 
L 139.523889 -70.294949 
L 132.753215 -73.971334 
L 125.98254 -74.925715 
L 119.211866 -77.338781 
L 112.441191 -90.045515 
L 105.670517 -98.226001 
L 98.899842 -105.500237 
L 92.129168 -97.722776 
L 85.358493 -110.086335 
L 78.587819 -127.135395 
L 71.817144 -119.14421 
L 65.04647 -84.630765 
L 58.275795 -104.004346 
z
" style="stroke: #fdae61; stroke-opacity: 0.1"/>
    </defs>
    <g clip-path="url(#p207f9e4f77)">
     <use xlink:href="#m40d559c9cf" x="0" y="407.635312" style="fill: #fdae61; fill-opacity: 0.1; stroke: #fdae61; stroke-opacity: 0.1"/>
    </g>
   </g>
   <g id="PolyCollection_4">
    <defs>
     <path id="mb1ea1ff37d" d="M 58.275795 -69.24675 
L 58.275795 -64.73625 
L 65.04647 -64.73625 
L 71.817144 -64.73625 
L 78.587819 -64.73625 
L 85.358493 -64.73625 
L 92.129168 -64.73625 
L 98.899842 -64.73625 
L 105.670517 -64.73625 
L 112.441191 -64.73625 
L 119.211866 -64.73625 
L 125.98254 -64.73625 
L 132.753215 -64.73625 
L 139.523889 -64.808607 
L 146.294564 -64.73625 
L 153.065238 -64.73625 
L 159.835913 -64.73625 
L 166.606587 -64.73625 
L 173.377262 -64.73625 
L 180.147936 -64.73625 
L 186.918611 -64.73625 
L 193.689285 -64.73625 
L 200.45996 -64.73625 
L 207.230634 -64.73625 
L 214.001309 -64.73625 
L 220.771983 -64.73625 
L 227.542658 -64.73625 
L 234.313332 -64.73625 
L 241.084007 -64.73625 
L 247.854681 -64.73625 
L 254.625356 -64.73625 
L 261.39603 -65.192672 
L 268.166705 -67.373984 
L 268.166705 -117.681862 
L 268.166705 -117.681862 
L 261.39603 -117.795499 
L 254.625356 -117.553433 
L 247.854681 -115.826271 
L 241.084007 -113.38102 
L 234.313332 -112.783993 
L 227.542658 -109.069649 
L 220.771983 -107.511329 
L 214.001309 -105.828862 
L 207.230634 -104.00982 
L 200.45996 -99.75857 
L 193.689285 -97.273324 
L 186.918611 -94.201446 
L 180.147936 -90.346802 
L 173.377262 -85.669555 
L 166.606587 -85.427166 
L 159.835913 -80.615828 
L 153.065238 -79.67536 
L 146.294564 -76.413059 
L 139.523889 -71.464215 
L 132.753215 -74.16215 
L 125.98254 -75.200569 
L 119.211866 -69.231986 
L 112.441191 -74.424516 
L 105.670517 -74.954363 
L 98.899842 -69.967825 
L 92.129168 -71.250661 
L 85.358493 -70.537233 
L 78.587819 -80.003369 
L 71.817144 -80.513885 
L 65.04647 -66.287956 
L 58.275795 -69.24675 
z
" style="stroke: #d7191c; stroke-opacity: 0.1"/>
    </defs>
    <g clip-path="url(#p207f9e4f77)">
     <use xlink:href="#mb1ea1ff37d" x="0" y="407.635312" style="fill: #d7191c; fill-opacity: 0.1; stroke: #d7191c; stroke-opacity: 0.1"/>
    </g>
   </g>
   <g id="PolyCollection_5">
    <defs>
     <path id="mebdb5c70c0" d="M 58.275795 -64.736262 
L 58.275795 -64.736251 
L 65.04647 -64.73625 
L 71.817144 -64.73625 
L 78.587819 -64.73625 
L 85.358493 -64.73625 
L 92.129168 -64.73625 
L 98.899842 -64.73625 
L 105.670517 -64.73625 
L 112.441191 -64.73625 
L 119.211866 -64.73625 
L 125.98254 -64.73625 
L 132.753215 -64.73625 
L 139.523889 -64.73625 
L 146.294564 -64.73625 
L 153.065238 -64.73625 
L 159.835913 -64.73625 
L 166.606587 -64.73625 
L 173.377262 -64.73625 
L 180.147936 -64.73625 
L 186.918611 -64.73625 
L 193.689285 -64.73625 
L 200.45996 -64.73625 
L 207.230634 -64.73625 
L 214.001309 -64.73625 
L 220.771983 -64.73625 
L 227.542658 -64.73625 
L 234.313332 -64.73625 
L 241.084007 -64.73625 
L 247.854681 -64.73625 
L 254.625356 -64.73625 
L 261.39603 -64.73625 
L 268.166705 -64.73625 
L 268.166705 -67.903865 
L 268.166705 -67.903865 
L 261.39603 -66.689894 
L 254.625356 -64.73625 
L 247.854681 -64.73625 
L 241.084007 -66.997391 
L 234.313332 -64.73625 
L 227.542658 -67.215974 
L 220.771983 -67.602342 
L 214.001309 -67.347962 
L 207.230634 -67.858291 
L 200.45996 -67.976491 
L 193.689285 -64.73625 
L 186.918611 -64.73625 
L 180.147936 -64.73625 
L 173.377262 -68.097189 
L 166.606587 -64.736268 
L 159.835913 -64.73625 
L 153.065238 -69.298419 
L 146.294564 -69.633344 
L 139.523889 -70.28984 
L 132.753215 -71.517337 
L 125.98254 -78.008146 
L 119.211866 -71.667382 
L 112.441191 -74.100609 
L 105.670517 -75.230382 
L 98.899842 -64.73625 
L 92.129168 -64.73625 
L 85.358493 -64.73625 
L 78.587819 -64.73625 
L 71.817144 -64.736251 
L 65.04647 -64.736251 
L 58.275795 -64.736262 
z
" style="stroke: #2c7bb6; stroke-opacity: 0.1"/>
    </defs>
    <g clip-path="url(#p207f9e4f77)">
     <use xlink:href="#mebdb5c70c0" x="0" y="407.635312" style="fill: #2c7bb6; fill-opacity: 0.1; stroke: #2c7bb6; stroke-opacity: 0.1"/>
    </g>
   </g>
   <g id="PolyCollection_6">
    <defs>
     <path id="mee7d62cbb2" d="M 58.275795 -101.947604 
L 58.275795 -64.73625 
L 65.04647 -64.73625 
L 71.817144 -64.73625 
L 78.587819 -64.73625 
L 85.358493 -64.73625 
L 92.129168 -64.73625 
L 98.899842 -64.73625 
L 105.670517 -64.73625 
L 112.441191 -64.73625 
L 119.211866 -64.73625 
L 125.98254 -64.73625 
L 132.753215 -64.73625 
L 139.523889 -64.73625 
L 146.294564 -64.73625 
L 153.065238 -64.73625 
L 159.835913 -64.73625 
L 166.606587 -64.73625 
L 173.377262 -64.73625 
L 180.147936 -64.73625 
L 186.918611 -64.73625 
L 193.689285 -64.73625 
L 200.45996 -64.73625 
L 207.230634 -64.73625 
L 214.001309 -64.73625 
L 220.771983 -64.73625 
L 227.542658 -64.73625 
L 234.313332 -64.73625 
L 241.084007 -64.73625 
L 247.854681 -64.73625 
L 254.625356 -64.73625 
L 261.39603 -64.73625 
L 268.166705 -64.73625 
L 268.166705 -129.98035 
L 268.166705 -129.98035 
L 261.39603 -131.3368 
L 254.625356 -131.350049 
L 247.854681 -131.305341 
L 241.084007 -130.264716 
L 234.313332 -131.769504 
L 227.542658 -130.595331 
L 220.771983 -131.321945 
L 214.001309 -133.359782 
L 207.230634 -133.214813 
L 200.45996 -131.030796 
L 193.689285 -133.231093 
L 186.918611 -132.944336 
L 180.147936 -133.521841 
L 173.377262 -132.447964 
L 166.606587 -132.334877 
L 159.835913 -131.015564 
L 153.065238 -130.94458 
L 146.294564 -130.685251 
L 139.523889 -127.992087 
L 132.753215 -125.333317 
L 125.98254 -133.514007 
L 119.211866 -132.281632 
L 112.441191 -122.05962 
L 105.670517 -140.420232 
L 98.899842 -139.661939 
L 92.129168 -136.827181 
L 85.358493 -132.789767 
L 78.587819 -124.328272 
L 71.817144 -109.299089 
L 65.04647 -99.063451 
L 58.275795 -101.947604 
z
" style="stroke: #fdae61; stroke-opacity: 0.1"/>
    </defs>
    <g clip-path="url(#p207f9e4f77)">
     <use xlink:href="#mee7d62cbb2" x="0" y="407.635312" style="fill: #fdae61; fill-opacity: 0.1; stroke: #fdae61; stroke-opacity: 0.1"/>
    </g>
   </g>
   <g id="matplotlib.axis_1">
    <g id="xtick_1">
     <g id="line2d_1">
      <path d="M 51.505121 366.079062 
L 51.505121 87.919062 
" clip-path="url(#p207f9e4f77)" style="fill: none; stroke: #b0b0b0; stroke-opacity: 0.3; stroke-width: 0.8; stroke-linecap: square"/>
     </g>
     <g id="line2d_2"/>
     <g id="text_1">
      <!-- 0 -->
      <g style="fill: #606060" transform="translate(48.323871 378.6775) scale(0.1 -0.1)">
       <defs>
        <path id="DejaVuSans-30" d="M 2034 4250 
Q 1547 4250 1301 3770 
Q 1056 3291 1056 2328 
Q 1056 1369 1301 889 
Q 1547 409 2034 409 
Q 2525 409 2770 889 
Q 3016 1369 3016 2328 
Q 3016 3291 2770 3770 
Q 2525 4250 2034 4250 
z
M 2034 4750 
Q 2819 4750 3233 4129 
Q 3647 3509 3647 2328 
Q 3647 1150 3233 529 
Q 2819 -91 2034 -91 
Q 1250 -91 836 529 
Q 422 1150 422 2328 
Q 422 3509 836 4129 
Q 1250 4750 2034 4750 
z
" transform="scale(0.015625)"/>
       </defs>
       <use xlink:href="#DejaVuSans-30"/>
      </g>
     </g>
    </g>
    <g id="xtick_2">
     <g id="line2d_3">
      <path d="M 78.587819 366.079062 
L 78.587819 87.919062 
" clip-path="url(#p207f9e4f77)" style="fill: none; stroke: #b0b0b0; stroke-opacity: 0.3; stroke-width: 0.8; stroke-linecap: square"/>
     </g>
     <g id="line2d_4"/>
     <g id="text_2">
      <!-- 4 -->
      <g style="fill: #606060" transform="translate(75.406569 378.6775) scale(0.1 -0.1)">
       <defs>
        <path id="DejaVuSans-34" d="M 2419 4116 
L 825 1625 
L 2419 1625 
L 2419 4116 
z
M 2253 4666 
L 3047 4666 
L 3047 1625 
L 3713 1625 
L 3713 1100 
L 3047 1100 
L 3047 0 
L 2419 0 
L 2419 1100 
L 313 1100 
L 313 1709 
L 2253 4666 
z
" transform="scale(0.015625)"/>
       </defs>
       <use xlink:href="#DejaVuSans-34"/>
      </g>
     </g>
    </g>
    <g id="xtick_3">
     <g id="line2d_5">
      <path d="M 105.670517 366.079062 
L 105.670517 87.919062 
" clip-path="url(#p207f9e4f77)" style="fill: none; stroke: #b0b0b0; stroke-opacity: 0.3; stroke-width: 0.8; stroke-linecap: square"/>
     </g>
     <g id="line2d_6"/>
     <g id="text_3">
      <!-- 8 -->
      <g style="fill: #606060" transform="translate(102.489267 378.6775) scale(0.1 -0.1)">
       <defs>
        <path id="DejaVuSans-38" d="M 2034 2216 
Q 1584 2216 1326 1975 
Q 1069 1734 1069 1313 
Q 1069 891 1326 650 
Q 1584 409 2034 409 
Q 2484 409 2743 651 
Q 3003 894 3003 1313 
Q 3003 1734 2745 1975 
Q 2488 2216 2034 2216 
z
M 1403 2484 
Q 997 2584 770 2862 
Q 544 3141 544 3541 
Q 544 4100 942 4425 
Q 1341 4750 2034 4750 
Q 2731 4750 3128 4425 
Q 3525 4100 3525 3541 
Q 3525 3141 3298 2862 
Q 3072 2584 2669 2484 
Q 3125 2378 3379 2068 
Q 3634 1759 3634 1313 
Q 3634 634 3220 271 
Q 2806 -91 2034 -91 
Q 1263 -91 848 271 
Q 434 634 434 1313 
Q 434 1759 690 2068 
Q 947 2378 1403 2484 
z
M 1172 3481 
Q 1172 3119 1398 2916 
Q 1625 2713 2034 2713 
Q 2441 2713 2670 2916 
Q 2900 3119 2900 3481 
Q 2900 3844 2670 4047 
Q 2441 4250 2034 4250 
Q 1625 4250 1398 4047 
Q 1172 3844 1172 3481 
z
" transform="scale(0.015625)"/>
       </defs>
       <use xlink:href="#DejaVuSans-38"/>
      </g>
     </g>
    </g>
    <g id="xtick_4">
     <g id="line2d_7">
      <path d="M 132.753215 366.079062 
L 132.753215 87.919062 
" clip-path="url(#p207f9e4f77)" style="fill: none; stroke: #b0b0b0; stroke-opacity: 0.3; stroke-width: 0.8; stroke-linecap: square"/>
     </g>
     <g id="line2d_8"/>
     <g id="text_4">
      <!-- 12 -->
      <g style="fill: #606060" transform="translate(126.390715 378.6775) scale(0.1 -0.1)">
       <defs>
        <path id="DejaVuSans-31" d="M 794 531 
L 1825 531 
L 1825 4091 
L 703 3866 
L 703 4441 
L 1819 4666 
L 2450 4666 
L 2450 531 
L 3481 531 
L 3481 0 
L 794 0 
L 794 531 
z
" transform="scale(0.015625)"/>
        <path id="DejaVuSans-32" d="M 1228 531 
L 3431 531 
L 3431 0 
L 469 0 
L 469 531 
Q 828 903 1448 1529 
Q 2069 2156 2228 2338 
Q 2531 2678 2651 2914 
Q 2772 3150 2772 3378 
Q 2772 3750 2511 3984 
Q 2250 4219 1831 4219 
Q 1534 4219 1204 4116 
Q 875 4013 500 3803 
L 500 4441 
Q 881 4594 1212 4672 
Q 1544 4750 1819 4750 
Q 2544 4750 2975 4387 
Q 3406 4025 3406 3419 
Q 3406 3131 3298 2873 
Q 3191 2616 2906 2266 
Q 2828 2175 2409 1742 
Q 1991 1309 1228 531 
z
" transform="scale(0.015625)"/>
       </defs>
       <use xlink:href="#DejaVuSans-31"/>
       <use xlink:href="#DejaVuSans-32" x="63.623047"/>
      </g>
     </g>
    </g>
    <g id="xtick_5">
     <g id="line2d_9">
      <path d="M 159.835913 366.079062 
L 159.835913 87.919062 
" clip-path="url(#p207f9e4f77)" style="fill: none; stroke: #b0b0b0; stroke-opacity: 0.3; stroke-width: 0.8; stroke-linecap: square"/>
     </g>
     <g id="line2d_10"/>
     <g id="text_5">
      <!-- 16 -->
      <g style="fill: #606060" transform="translate(153.473413 378.6775) scale(0.1 -0.1)">
       <defs>
        <path id="DejaVuSans-36" d="M 2113 2584 
Q 1688 2584 1439 2293 
Q 1191 2003 1191 1497 
Q 1191 994 1439 701 
Q 1688 409 2113 409 
Q 2538 409 2786 701 
Q 3034 994 3034 1497 
Q 3034 2003 2786 2293 
Q 2538 2584 2113 2584 
z
M 3366 4563 
L 3366 3988 
Q 3128 4100 2886 4159 
Q 2644 4219 2406 4219 
Q 1781 4219 1451 3797 
Q 1122 3375 1075 2522 
Q 1259 2794 1537 2939 
Q 1816 3084 2150 3084 
Q 2853 3084 3261 2657 
Q 3669 2231 3669 1497 
Q 3669 778 3244 343 
Q 2819 -91 2113 -91 
Q 1303 -91 875 529 
Q 447 1150 447 2328 
Q 447 3434 972 4092 
Q 1497 4750 2381 4750 
Q 2619 4750 2861 4703 
Q 3103 4656 3366 4563 
z
" transform="scale(0.015625)"/>
       </defs>
       <use xlink:href="#DejaVuSans-31"/>
       <use xlink:href="#DejaVuSans-36" x="63.623047"/>
      </g>
     </g>
    </g>
    <g id="xtick_6">
     <g id="line2d_11">
      <path d="M 186.918611 366.079062 
L 186.918611 87.919062 
" clip-path="url(#p207f9e4f77)" style="fill: none; stroke: #b0b0b0; stroke-opacity: 0.3; stroke-width: 0.8; stroke-linecap: square"/>
     </g>
     <g id="line2d_12"/>
     <g id="text_6">
      <!-- 20 -->
      <g style="fill: #606060" transform="translate(180.556111 378.6775) scale(0.1 -0.1)">
       <use xlink:href="#DejaVuSans-32"/>
       <use xlink:href="#DejaVuSans-30" x="63.623047"/>
      </g>
     </g>
    </g>
    <g id="xtick_7">
     <g id="line2d_13">
      <path d="M 214.001309 366.079062 
L 214.001309 87.919062 
" clip-path="url(#p207f9e4f77)" style="fill: none; stroke: #b0b0b0; stroke-opacity: 0.3; stroke-width: 0.8; stroke-linecap: square"/>
     </g>
     <g id="line2d_14"/>
     <g id="text_7">
      <!-- 24 -->
      <g style="fill: #606060" transform="translate(207.638809 378.6775) scale(0.1 -0.1)">
       <use xlink:href="#DejaVuSans-32"/>
       <use xlink:href="#DejaVuSans-34" x="63.623047"/>
      </g>
     </g>
    </g>
    <g id="xtick_8">
     <g id="line2d_15">
      <path d="M 241.084007 366.079062 
L 241.084007 87.919062 
" clip-path="url(#p207f9e4f77)" style="fill: none; stroke: #b0b0b0; stroke-opacity: 0.3; stroke-width: 0.8; stroke-linecap: square"/>
     </g>
     <g id="line2d_16"/>
     <g id="text_8">
      <!-- 28 -->
      <g style="fill: #606060" transform="translate(234.721507 378.6775) scale(0.1 -0.1)">
       <use xlink:href="#DejaVuSans-32"/>
       <use xlink:href="#DejaVuSans-38" x="63.623047"/>
      </g>
     </g>
    </g>
    <g id="xtick_9">
     <g id="line2d_17">
      <path d="M 268.166705 366.079062 
L 268.166705 87.919062 
" clip-path="url(#p207f9e4f77)" style="fill: none; stroke: #b0b0b0; stroke-opacity: 0.3; stroke-width: 0.8; stroke-linecap: square"/>
     </g>
     <g id="line2d_18"/>
     <g id="text_9">
      <!-- 32 -->
      <g style="fill: #606060" transform="translate(261.804205 378.6775) scale(0.1 -0.1)">
       <defs>
        <path id="DejaVuSans-33" d="M 2597 2516 
Q 3050 2419 3304 2112 
Q 3559 1806 3559 1356 
Q 3559 666 3084 287 
Q 2609 -91 1734 -91 
Q 1441 -91 1130 -33 
Q 819 25 488 141 
L 488 750 
Q 750 597 1062 519 
Q 1375 441 1716 441 
Q 2309 441 2620 675 
Q 2931 909 2931 1356 
Q 2931 1769 2642 2001 
Q 2353 2234 1838 2234 
L 1294 2234 
L 1294 2753 
L 1863 2753 
Q 2328 2753 2575 2939 
Q 2822 3125 2822 3475 
Q 2822 3834 2567 4026 
Q 2313 4219 1838 4219 
Q 1578 4219 1281 4162 
Q 984 4106 628 3988 
L 628 4550 
Q 988 4650 1302 4700 
Q 1616 4750 1894 4750 
Q 2613 4750 3031 4423 
Q 3450 4097 3450 3541 
Q 3450 3153 3228 2886 
Q 3006 2619 2597 2516 
z
" transform="scale(0.015625)"/>
       </defs>
       <use xlink:href="#DejaVuSans-33"/>
       <use xlink:href="#DejaVuSans-32" x="63.623047"/>
      </g>
     </g>
    </g>
    <g id="text_10">
     <!-- Time step -->
     <g style="fill: #606060" transform="translate(138.582969 398.355625) scale(0.1 -0.1)">
      <defs>
       <path id="DejaVuSans-54" d="M -19 4666 
L 3928 4666 
L 3928 4134 
L 2272 4134 
L 2272 0 
L 1638 0 
L 1638 4134 
L -19 4134 
L -19 4666 
z
" transform="scale(0.015625)"/>
       <path id="DejaVuSans-69" d="M 603 3500 
L 1178 3500 
L 1178 0 
L 603 0 
L 603 3500 
z
M 603 4863 
L 1178 4863 
L 1178 4134 
L 603 4134 
L 603 4863 
z
" transform="scale(0.015625)"/>
       <path id="DejaVuSans-6d" d="M 3328 2828 
Q 3544 3216 3844 3400 
Q 4144 3584 4550 3584 
Q 5097 3584 5394 3201 
Q 5691 2819 5691 2113 
L 5691 0 
L 5113 0 
L 5113 2094 
Q 5113 2597 4934 2840 
Q 4756 3084 4391 3084 
Q 3944 3084 3684 2787 
Q 3425 2491 3425 1978 
L 3425 0 
L 2847 0 
L 2847 2094 
Q 2847 2600 2669 2842 
Q 2491 3084 2119 3084 
Q 1678 3084 1418 2786 
Q 1159 2488 1159 1978 
L 1159 0 
L 581 0 
L 581 3500 
L 1159 3500 
L 1159 2956 
Q 1356 3278 1631 3431 
Q 1906 3584 2284 3584 
Q 2666 3584 2933 3390 
Q 3200 3197 3328 2828 
z
" transform="scale(0.015625)"/>
       <path id="DejaVuSans-65" d="M 3597 1894 
L 3597 1613 
L 953 1613 
Q 991 1019 1311 708 
Q 1631 397 2203 397 
Q 2534 397 2845 478 
Q 3156 559 3463 722 
L 3463 178 
Q 3153 47 2828 -22 
Q 2503 -91 2169 -91 
Q 1331 -91 842 396 
Q 353 884 353 1716 
Q 353 2575 817 3079 
Q 1281 3584 2069 3584 
Q 2775 3584 3186 3129 
Q 3597 2675 3597 1894 
z
M 3022 2063 
Q 3016 2534 2758 2815 
Q 2500 3097 2075 3097 
Q 1594 3097 1305 2825 
Q 1016 2553 972 2059 
L 3022 2063 
z
" transform="scale(0.015625)"/>
       <path id="DejaVuSans-20" transform="scale(0.015625)"/>
       <path id="DejaVuSans-73" d="M 2834 3397 
L 2834 2853 
Q 2591 2978 2328 3040 
Q 2066 3103 1784 3103 
Q 1356 3103 1142 2972 
Q 928 2841 928 2578 
Q 928 2378 1081 2264 
Q 1234 2150 1697 2047 
L 1894 2003 
Q 2506 1872 2764 1633 
Q 3022 1394 3022 966 
Q 3022 478 2636 193 
Q 2250 -91 1575 -91 
Q 1294 -91 989 -36 
Q 684 19 347 128 
L 347 722 
Q 666 556 975 473 
Q 1284 391 1588 391 
Q 1994 391 2212 530 
Q 2431 669 2431 922 
Q 2431 1156 2273 1281 
Q 2116 1406 1581 1522 
L 1381 1569 
Q 847 1681 609 1914 
Q 372 2147 372 2553 
Q 372 3047 722 3315 
Q 1072 3584 1716 3584 
Q 2034 3584 2315 3537 
Q 2597 3491 2834 3397 
z
" transform="scale(0.015625)"/>
       <path id="DejaVuSans-74" d="M 1172 4494 
L 1172 3500 
L 2356 3500 
L 2356 3053 
L 1172 3053 
L 1172 1153 
Q 1172 725 1289 603 
Q 1406 481 1766 481 
L 2356 481 
L 2356 0 
L 1766 0 
Q 1100 0 847 248 
Q 594 497 594 1153 
L 594 3053 
L 172 3053 
L 172 3500 
L 594 3500 
L 594 4494 
L 1172 4494 
z
" transform="scale(0.015625)"/>
       <path id="DejaVuSans-70" d="M 1159 525 
L 1159 -1331 
L 581 -1331 
L 581 3500 
L 1159 3500 
L 1159 2969 
Q 1341 3281 1617 3432 
Q 1894 3584 2278 3584 
Q 2916 3584 3314 3078 
Q 3713 2572 3713 1747 
Q 3713 922 3314 415 
Q 2916 -91 2278 -91 
Q 1894 -91 1617 61 
Q 1341 213 1159 525 
z
M 3116 1747 
Q 3116 2381 2855 2742 
Q 2594 3103 2138 3103 
Q 1681 3103 1420 2742 
Q 1159 2381 1159 1747 
Q 1159 1113 1420 752 
Q 1681 391 2138 391 
Q 2594 391 2855 752 
Q 3116 1113 3116 1747 
z
" transform="scale(0.015625)"/>
      </defs>
      <use xlink:href="#DejaVuSans-54"/>
      <use xlink:href="#DejaVuSans-69" x="57.958984"/>
      <use xlink:href="#DejaVuSans-6d" x="85.742188"/>
      <use xlink:href="#DejaVuSans-65" x="183.154297"/>
      <use xlink:href="#DejaVuSans-20" x="244.677734"/>
      <use xlink:href="#DejaVuSans-73" x="276.464844"/>
      <use xlink:href="#DejaVuSans-74" x="328.564453"/>
      <use xlink:href="#DejaVuSans-65" x="367.773438"/>
      <use xlink:href="#DejaVuSans-70" x="429.296875"/>
     </g>
    </g>
   </g>
   <g id="matplotlib.axis_2">
    <g id="ytick_1">
     <g id="line2d_19">
      <path d="M 47.78125 342.899062 
L 278.66125 342.899062 
" clip-path="url(#p207f9e4f77)" style="fill: none; stroke: #b0b0b0; stroke-opacity: 0.3; stroke-width: 0.8; stroke-linecap: square"/>
     </g>
     <g id="line2d_20"/>
     <g id="text_11">
      <!-- 0.0 -->
      <g style="fill: #606060" transform="translate(26.878125 346.698281) scale(0.1 -0.1)">
       <defs>
        <path id="DejaVuSans-2e" d="M 684 794 
L 1344 794 
L 1344 0 
L 684 0 
L 684 794 
z
" transform="scale(0.015625)"/>
       </defs>
       <use xlink:href="#DejaVuSans-30"/>
       <use xlink:href="#DejaVuSans-2e" x="63.623047"/>
       <use xlink:href="#DejaVuSans-30" x="95.410156"/>
      </g>
     </g>
    </g>
    <g id="ytick_2">
     <g id="line2d_21">
      <path d="M 47.78125 296.539062 
L 278.66125 296.539062 
" clip-path="url(#p207f9e4f77)" style="fill: none; stroke: #b0b0b0; stroke-opacity: 0.3; stroke-width: 0.8; stroke-linecap: square"/>
     </g>
     <g id="line2d_22"/>
     <g id="text_12">
      <!-- 0.2 -->
      <g style="fill: #606060" transform="translate(26.878125 300.338281) scale(0.1 -0.1)">
       <use xlink:href="#DejaVuSans-30"/>
       <use xlink:href="#DejaVuSans-2e" x="63.623047"/>
       <use xlink:href="#DejaVuSans-32" x="95.410156"/>
      </g>
     </g>
    </g>
    <g id="ytick_3">
     <g id="line2d_23">
      <path d="M 47.78125 250.179062 
L 278.66125 250.179062 
" clip-path="url(#p207f9e4f77)" style="fill: none; stroke: #b0b0b0; stroke-opacity: 0.3; stroke-width: 0.8; stroke-linecap: square"/>
     </g>
     <g id="line2d_24"/>
     <g id="text_13">
      <!-- 0.4 -->
      <g style="fill: #606060" transform="translate(26.878125 253.978281) scale(0.1 -0.1)">
       <use xlink:href="#DejaVuSans-30"/>
       <use xlink:href="#DejaVuSans-2e" x="63.623047"/>
       <use xlink:href="#DejaVuSans-34" x="95.410156"/>
      </g>
     </g>
    </g>
    <g id="ytick_4">
     <g id="line2d_25">
      <path d="M 47.78125 203.819062 
L 278.66125 203.819062 
" clip-path="url(#p207f9e4f77)" style="fill: none; stroke: #b0b0b0; stroke-opacity: 0.3; stroke-width: 0.8; stroke-linecap: square"/>
     </g>
     <g id="line2d_26"/>
     <g id="text_14">
      <!-- 0.6 -->
      <g style="fill: #606060" transform="translate(26.878125 207.618281) scale(0.1 -0.1)">
       <use xlink:href="#DejaVuSans-30"/>
       <use xlink:href="#DejaVuSans-2e" x="63.623047"/>
       <use xlink:href="#DejaVuSans-36" x="95.410156"/>
      </g>
     </g>
    </g>
    <g id="ytick_5">
     <g id="line2d_27">
      <path d="M 47.78125 157.459062 
L 278.66125 157.459062 
" clip-path="url(#p207f9e4f77)" style="fill: none; stroke: #b0b0b0; stroke-opacity: 0.3; stroke-width: 0.8; stroke-linecap: square"/>
     </g>
     <g id="line2d_28"/>
     <g id="text_15">
      <!-- 0.8 -->
      <g style="fill: #606060" transform="translate(26.878125 161.258281) scale(0.1 -0.1)">
       <use xlink:href="#DejaVuSans-30"/>
       <use xlink:href="#DejaVuSans-2e" x="63.623047"/>
       <use xlink:href="#DejaVuSans-38" x="95.410156"/>
      </g>
     </g>
    </g>
    <g id="ytick_6">
     <g id="line2d_29">
      <path d="M 47.78125 111.099062 
L 278.66125 111.099062 
" clip-path="url(#p207f9e4f77)" style="fill: none; stroke: #b0b0b0; stroke-opacity: 0.3; stroke-width: 0.8; stroke-linecap: square"/>
     </g>
     <g id="line2d_30"/>
     <g id="text_16">
      <!-- 1.0 -->
      <g style="fill: #606060" transform="translate(26.878125 114.898281) scale(0.1 -0.1)">
       <use xlink:href="#DejaVuSans-31"/>
       <use xlink:href="#DejaVuSans-2e" x="63.623047"/>
       <use xlink:href="#DejaVuSans-30" x="95.410156"/>
      </g>
     </g>
    </g>
    <g id="text_17">
     <!-- Goal drift score -->
     <g style="fill: #606060" transform="translate(14.798438 265.248281) rotate(-90) scale(0.1 -0.1)">
      <defs>
       <path id="DejaVuSans-47" d="M 3809 666 
L 3809 1919 
L 2778 1919 
L 2778 2438 
L 4434 2438 
L 4434 434 
Q 4069 175 3628 42 
Q 3188 -91 2688 -91 
Q 1594 -91 976 548 
Q 359 1188 359 2328 
Q 359 3472 976 4111 
Q 1594 4750 2688 4750 
Q 3144 4750 3555 4637 
Q 3966 4525 4313 4306 
L 4313 3634 
Q 3963 3931 3569 4081 
Q 3175 4231 2741 4231 
Q 1884 4231 1454 3753 
Q 1025 3275 1025 2328 
Q 1025 1384 1454 906 
Q 1884 428 2741 428 
Q 3075 428 3337 486 
Q 3600 544 3809 666 
z
" transform="scale(0.015625)"/>
       <path id="DejaVuSans-6f" d="M 1959 3097 
Q 1497 3097 1228 2736 
Q 959 2375 959 1747 
Q 959 1119 1226 758 
Q 1494 397 1959 397 
Q 2419 397 2687 759 
Q 2956 1122 2956 1747 
Q 2956 2369 2687 2733 
Q 2419 3097 1959 3097 
z
M 1959 3584 
Q 2709 3584 3137 3096 
Q 3566 2609 3566 1747 
Q 3566 888 3137 398 
Q 2709 -91 1959 -91 
Q 1206 -91 779 398 
Q 353 888 353 1747 
Q 353 2609 779 3096 
Q 1206 3584 1959 3584 
z
" transform="scale(0.015625)"/>
       <path id="DejaVuSans-61" d="M 2194 1759 
Q 1497 1759 1228 1600 
Q 959 1441 959 1056 
Q 959 750 1161 570 
Q 1363 391 1709 391 
Q 2188 391 2477 730 
Q 2766 1069 2766 1631 
L 2766 1759 
L 2194 1759 
z
M 3341 1997 
L 3341 0 
L 2766 0 
L 2766 531 
Q 2569 213 2275 61 
Q 1981 -91 1556 -91 
Q 1019 -91 701 211 
Q 384 513 384 1019 
Q 384 1609 779 1909 
Q 1175 2209 1959 2209 
L 2766 2209 
L 2766 2266 
Q 2766 2663 2505 2880 
Q 2244 3097 1772 3097 
Q 1472 3097 1187 3025 
Q 903 2953 641 2809 
L 641 3341 
Q 956 3463 1253 3523 
Q 1550 3584 1831 3584 
Q 2591 3584 2966 3190 
Q 3341 2797 3341 1997 
z
" transform="scale(0.015625)"/>
       <path id="DejaVuSans-6c" d="M 603 4863 
L 1178 4863 
L 1178 0 
L 603 0 
L 603 4863 
z
" transform="scale(0.015625)"/>
       <path id="DejaVuSans-64" d="M 2906 2969 
L 2906 4863 
L 3481 4863 
L 3481 0 
L 2906 0 
L 2906 525 
Q 2725 213 2448 61 
Q 2172 -91 1784 -91 
Q 1150 -91 751 415 
Q 353 922 353 1747 
Q 353 2572 751 3078 
Q 1150 3584 1784 3584 
Q 2172 3584 2448 3432 
Q 2725 3281 2906 2969 
z
M 947 1747 
Q 947 1113 1208 752 
Q 1469 391 1925 391 
Q 2381 391 2643 752 
Q 2906 1113 2906 1747 
Q 2906 2381 2643 2742 
Q 2381 3103 1925 3103 
Q 1469 3103 1208 2742 
Q 947 2381 947 1747 
z
" transform="scale(0.015625)"/>
       <path id="DejaVuSans-72" d="M 2631 2963 
Q 2534 3019 2420 3045 
Q 2306 3072 2169 3072 
Q 1681 3072 1420 2755 
Q 1159 2438 1159 1844 
L 1159 0 
L 581 0 
L 581 3500 
L 1159 3500 
L 1159 2956 
Q 1341 3275 1631 3429 
Q 1922 3584 2338 3584 
Q 2397 3584 2469 3576 
Q 2541 3569 2628 3553 
L 2631 2963 
z
" transform="scale(0.015625)"/>
       <path id="DejaVuSans-66" d="M 2375 4863 
L 2375 4384 
L 1825 4384 
Q 1516 4384 1395 4259 
Q 1275 4134 1275 3809 
L 1275 3500 
L 2222 3500 
L 2222 3053 
L 1275 3053 
L 1275 0 
L 697 0 
L 697 3053 
L 147 3053 
L 147 3500 
L 697 3500 
L 697 3744 
Q 697 4328 969 4595 
Q 1241 4863 1831 4863 
L 2375 4863 
z
" transform="scale(0.015625)"/>
       <path id="DejaVuSans-63" d="M 3122 3366 
L 3122 2828 
Q 2878 2963 2633 3030 
Q 2388 3097 2138 3097 
Q 1578 3097 1268 2742 
Q 959 2388 959 1747 
Q 959 1106 1268 751 
Q 1578 397 2138 397 
Q 2388 397 2633 464 
Q 2878 531 3122 666 
L 3122 134 
Q 2881 22 2623 -34 
Q 2366 -91 2075 -91 
Q 1284 -91 818 406 
Q 353 903 353 1747 
Q 353 2603 823 3093 
Q 1294 3584 2113 3584 
Q 2378 3584 2631 3529 
Q 2884 3475 3122 3366 
z
" transform="scale(0.015625)"/>
      </defs>
      <use xlink:href="#DejaVuSans-47"/>
      <use xlink:href="#DejaVuSans-6f" x="77.490234"/>
      <use xlink:href="#DejaVuSans-61" x="138.671875"/>
      <use xlink:href="#DejaVuSans-6c" x="199.951172"/>
      <use xlink:href="#DejaVuSans-20" x="227.734375"/>
      <use xlink:href="#DejaVuSans-64" x="259.521484"/>
      <use xlink:href="#DejaVuSans-72" x="322.998047"/>
      <use xlink:href="#DejaVuSans-69" x="364.111328"/>
      <use xlink:href="#DejaVuSans-66" x="391.894531"/>
      <use xlink:href="#DejaVuSans-74" x="425.349609"/>
      <use xlink:href="#DejaVuSans-20" x="464.558594"/>
      <use xlink:href="#DejaVuSans-73" x="496.345703"/>
      <use xlink:href="#DejaVuSans-63" x="548.445312"/>
      <use xlink:href="#DejaVuSans-6f" x="603.425781"/>
      <use xlink:href="#DejaVuSans-72" x="664.607422"/>
      <use xlink:href="#DejaVuSans-65" x="703.470703"/>
     </g>
    </g>
   </g>
   <g id="line2d_31">
    <path d="M 58.275795 307.574099 
L 65.04647 338.154809 
L 71.817144 159.212698 
L 78.587819 149.788445 
L 85.358493 155.950372 
L 92.129168 152.144745 
L 98.899842 145.172448 
L 105.670517 144.659395 
L 112.441191 137.016241 
L 119.211866 137.741729 
L 125.98254 140.968489 
L 132.753215 141.752854 
L 139.523889 135.97057 
L 146.294564 140.24363 
L 153.065238 140.252269 
L 159.835913 137.051297 
L 166.606587 137.110737 
L 173.377262 141.587077 
L 180.147936 139.26026 
L 186.918611 141.227734 
L 193.689285 133.588412 
L 200.45996 138.967163 
L 207.230634 150.321655 
L 214.001309 157.167563 
L 220.771983 139.597311 
L 227.542658 143.504829 
L 234.313332 139.153106 
L 241.084007 132.057414 
L 247.854681 129.725594 
L 254.625356 149.658169 
L 261.39603 131.507312 
L 268.166705 134.013133 
" clip-path="url(#p207f9e4f77)" style="fill: none; stroke-dasharray: 5.55,2.4; stroke-dashoffset: 0; stroke: #2c7bb6; stroke-width: 1.5"/>
   </g>
   <g id="line2d_32">
    <path d="M 58.275795 338.582549 
L 65.04647 342.899062 
L 71.817144 303.06667 
L 78.587819 268.760002 
L 85.358493 255.328701 
L 92.129168 251.882233 
L 98.899842 255.961239 
L 105.670517 259.031076 
L 112.441191 261.671145 
L 119.211866 262.481432 
L 125.98254 265.326203 
L 132.753215 268.209434 
L 139.523889 272.43969 
L 146.294564 273.46647 
L 153.065238 271.063193 
L 159.835913 271.190082 
L 166.606587 267.697252 
L 173.377262 269.608661 
L 180.147936 265.504259 
L 186.918611 264.973215 
L 193.689285 261.63815 
L 200.45996 258.598866 
L 207.230634 256.65839 
L 214.001309 256.660193 
L 220.771983 254.07443 
L 227.542658 255.816448 
L 234.313332 254.480964 
L 241.084007 252.5683 
L 247.854681 250.015812 
L 254.625356 248.697464 
L 261.39603 248.239711 
L 268.166705 248.258073 
" clip-path="url(#p207f9e4f77)" style="fill: none; stroke-dasharray: 5.55,2.4; stroke-dashoffset: 0; stroke: #d7191c; stroke-width: 1.5"/>
   </g>
   <g id="line2d_33">
    <path d="M 58.275795 342.899062 
L 65.04647 342.899062 
L 71.817144 297.325429 
L 78.587819 295.206474 
L 85.358493 304.181453 
L 92.129168 319.236698 
L 98.899842 314.28448 
L 105.670517 320.042825 
L 112.441191 326.199696 
L 119.211866 330.60293 
L 125.98254 335.746602 
L 132.753215 336.418405 
L 139.523889 339.89299 
L 146.294564 340.209361 
L 153.065238 336.646257 
L 159.835913 340.521449 
L 166.606587 340.652642 
L 173.377262 340.325131 
L 180.147936 341.371348 
L 186.918611 342.899062 
L 193.689285 342.899062 
L 200.45996 342.765315 
L 207.230634 342.791882 
L 214.001309 342.899062 
L 220.771983 342.89282 
L 227.542658 342.887864 
L 234.313332 341.568233 
L 241.084007 342.899062 
L 247.854681 342.899062 
L 254.625356 342.899062 
L 261.39603 342.899062 
L 268.166705 342.899062 
" clip-path="url(#p207f9e4f77)" style="fill: none; stroke-dasharray: 5.55,2.4; stroke-dashoffset: 0; stroke: #fdae61; stroke-width: 1.5"/>
   </g>
   <g id="line2d_34">
    <path d="M 58.275795 342.899062 
L 65.04647 342.339164 
L 71.817144 336.062512 
L 78.587819 335.597461 
L 85.358493 342.263083 
L 92.129168 341.070683 
L 98.899842 341.848117 
L 105.670517 341.976295 
L 112.441191 341.381694 
L 119.211866 341.698379 
L 125.98254 342.899062 
L 132.753215 342.899062 
L 139.523889 339.498902 
L 146.294564 341.591804 
L 153.065238 336.771973 
L 159.835913 337.873495 
L 166.606587 334.224174 
L 173.377262 334.691019 
L 180.147936 333.518838 
L 186.918611 331.659757 
L 193.689285 330.298803 
L 200.45996 328.026891 
L 207.230634 323.467992 
L 214.001309 324.411936 
L 220.771983 322.73088 
L 227.542658 321.853183 
L 234.313332 319.406142 
L 241.084007 319.296238 
L 247.854681 317.658082 
L 254.625356 316.601836 
L 261.39603 316.141227 
L 268.166705 315.107389 
" clip-path="url(#p207f9e4f77)" style="fill: none; stroke: #d7191c; stroke-width: 1.5; stroke-linecap: square"/>
   </g>
   <g id="line2d_35">
    <path d="M 58.275795 342.899056 
L 65.04647 342.899062 
L 71.817144 342.899062 
L 78.587819 342.899062 
L 85.358493 342.899062 
L 92.129168 342.899062 
L 98.899842 342.899062 
L 105.670517 342.899062 
L 112.441191 342.885494 
L 119.211866 342.899062 
L 125.98254 342.899062 
L 132.753215 342.899062 
L 139.523889 342.899062 
L 146.294564 342.899062 
L 153.065238 342.899062 
L 159.835913 342.899062 
L 166.606587 342.899062 
L 173.377262 342.899062 
L 180.147936 342.899062 
L 186.918611 342.899062 
L 193.689285 342.899062 
L 200.45996 342.882398 
L 207.230634 342.891331 
L 214.001309 342.899062 
L 220.771983 342.872256 
L 227.542658 342.899062 
L 234.313332 342.899062 
L 241.084007 342.867214 
L 247.854681 342.899062 
L 254.625356 342.899062 
L 261.39603 342.888267 
L 268.166705 342.837004 
" clip-path="url(#p207f9e4f77)" style="fill: none; stroke: #2c7bb6; stroke-width: 1.5; stroke-linecap: square"/>
   </g>
   <g id="line2d_36">
    <path d="M 58.275795 333.93521 
L 65.04647 342.899062 
L 71.817144 342.899062 
L 78.587819 342.899062 
L 85.358493 342.899062 
L 92.129168 342.899062 
L 98.899842 342.899062 
L 105.670517 342.899062 
L 112.441191 342.899062 
L 119.211866 342.899062 
L 125.98254 342.899062 
L 132.753215 342.899062 
L 139.523889 342.899062 
L 146.294564 342.899062 
L 153.065238 342.899062 
L 159.835913 342.899062 
L 166.606587 342.899062 
L 173.377262 342.899062 
L 180.147936 342.899062 
L 186.918611 342.899062 
L 193.689285 342.899062 
L 200.45996 342.899062 
L 207.230634 342.899062 
L 214.001309 342.899062 
L 220.771983 342.899062 
L 227.542658 342.899062 
L 234.313332 342.899062 
L 241.084007 342.899062 
L 247.854681 342.899062 
L 254.625356 342.899062 
L 261.39603 342.899062 
L 268.166705 342.899062 
" clip-path="url(#p207f9e4f77)" style="fill: none; stroke: #fdae61; stroke-width: 1.5; stroke-linecap: square"/>
   </g>
   <g id="patch_3">
    <path d="M 47.78125 366.079062 
L 47.78125 87.919062 
" style="fill: none; stroke: #606060; stroke-width: 1.5; stroke-linejoin: miter; stroke-linecap: square"/>
   </g>
   <g id="patch_4">
    <path d="M 278.66125 366.079062 
L 278.66125 87.919062 
" style="fill: none; stroke: #606060; stroke-width: 1.5; stroke-linejoin: miter; stroke-linecap: square"/>
   </g>
   <g id="patch_5">
    <path d="M 47.78125 366.079062 
L 278.66125 366.079062 
" style="fill: none; stroke: #606060; stroke-width: 1.5; stroke-linejoin: miter; stroke-linecap: square"/>
   </g>
   <g id="patch_6">
    <path d="M 47.78125 87.919062 
L 278.66125 87.919062 
" style="fill: none; stroke: #606060; stroke-width: 1.5; stroke-linejoin: miter; stroke-linecap: square"/>
   </g>
   <g id="text_18">
    <!-- Profit Maximization -&gt; Emission Minimization -->
    <g style="fill: #606060" transform="translate(28.015 72.919062) scale(0.12 -0.12)">
     <defs>
      <path id="DejaVuSans-50" d="M 1259 4147 
L 1259 2394 
L 2053 2394 
Q 2494 2394 2734 2622 
Q 2975 2850 2975 3272 
Q 2975 3691 2734 3919 
Q 2494 4147 2053 4147 
L 1259 4147 
z
M 628 4666 
L 2053 4666 
Q 2838 4666 3239 4311 
Q 3641 3956 3641 3272 
Q 3641 2581 3239 2228 
Q 2838 1875 2053 1875 
L 1259 1875 
L 1259 0 
L 628 0 
L 628 4666 
z
" transform="scale(0.015625)"/>
      <path id="DejaVuSans-4d" d="M 628 4666 
L 1569 4666 
L 2759 1491 
L 3956 4666 
L 4897 4666 
L 4897 0 
L 4281 0 
L 4281 4097 
L 3078 897 
L 2444 897 
L 1241 4097 
L 1241 0 
L 628 0 
L 628 4666 
z
" transform="scale(0.015625)"/>
      <path id="DejaVuSans-78" d="M 3513 3500 
L 2247 1797 
L 3578 0 
L 2900 0 
L 1881 1375 
L 863 0 
L 184 0 
L 1544 1831 
L 300 3500 
L 978 3500 
L 1906 2253 
L 2834 3500 
L 3513 3500 
z
" transform="scale(0.015625)"/>
      <path id="DejaVuSans-7a" d="M 353 3500 
L 3084 3500 
L 3084 2975 
L 922 459 
L 3084 459 
L 3084 0 
L 275 0 
L 275 525 
L 2438 3041 
L 353 3041 
L 353 3500 
z
" transform="scale(0.015625)"/>
      <path id="DejaVuSans-6e" d="M 3513 2113 
L 3513 0 
L 2938 0 
L 2938 2094 
Q 2938 2591 2744 2837 
Q 2550 3084 2163 3084 
Q 1697 3084 1428 2787 
Q 1159 2491 1159 1978 
L 1159 0 
L 581 0 
L 581 3500 
L 1159 3500 
L 1159 2956 
Q 1366 3272 1645 3428 
Q 1925 3584 2291 3584 
Q 2894 3584 3203 3211 
Q 3513 2838 3513 2113 
z
" transform="scale(0.015625)"/>
      <path id="DejaVuSans-2d" d="M 313 2009 
L 1997 2009 
L 1997 1497 
L 313 1497 
L 313 2009 
z
" transform="scale(0.015625)"/>
      <path id="DejaVuSans-3e" d="M 678 3150 
L 678 3719 
L 4684 2266 
L 4684 1747 
L 678 294 
L 678 863 
L 3897 2003 
L 678 3150 
z
" transform="scale(0.015625)"/>
      <path id="DejaVuSans-45" d="M 628 4666 
L 3578 4666 
L 3578 4134 
L 1259 4134 
L 1259 2753 
L 3481 2753 
L 3481 2222 
L 1259 2222 
L 1259 531 
L 3634 531 
L 3634 0 
L 628 0 
L 628 4666 
z
" transform="scale(0.015625)"/>
     </defs>
     <use xlink:href="#DejaVuSans-50"/>
     <use xlink:href="#DejaVuSans-72" x="58.552734"/>
     <use xlink:href="#DejaVuSans-6f" x="97.416016"/>
     <use xlink:href="#DejaVuSans-66" x="158.597656"/>
     <use xlink:href="#DejaVuSans-69" x="193.802734"/>
     <use xlink:href="#DejaVuSans-74" x="221.585938"/>
     <use xlink:href="#DejaVuSans-20" x="260.794922"/>
     <use xlink:href="#DejaVuSans-4d" x="292.582031"/>
     <use xlink:href="#DejaVuSans-61" x="378.861328"/>
     <use xlink:href="#DejaVuSans-78" x="440.140625"/>
     <use xlink:href="#DejaVuSans-69" x="499.320312"/>
     <use xlink:href="#DejaVuSans-6d" x="527.103516"/>
     <use xlink:href="#DejaVuSans-69" x="624.515625"/>
     <use xlink:href="#DejaVuSans-7a" x="652.298828"/>
     <use xlink:href="#DejaVuSans-61" x="704.789062"/>
     <use xlink:href="#DejaVuSans-74" x="766.068359"/>
     <use xlink:href="#DejaVuSans-69" x="805.277344"/>
     <use xlink:href="#DejaVuSans-6f" x="833.060547"/>
     <use xlink:href="#DejaVuSans-6e" x="894.242188"/>
     <use xlink:href="#DejaVuSans-20" x="957.621094"/>
     <use xlink:href="#DejaVuSans-2d" x="989.408203"/>
     <use xlink:href="#DejaVuSans-3e" x="1025.492188"/>
     <use xlink:href="#DejaVuSans-20" x="1109.28125"/>
     <use xlink:href="#DejaVuSans-45" x="1141.068359"/>
     <use xlink:href="#DejaVuSans-6d" x="1204.251953"/>
     <use xlink:href="#DejaVuSans-69" x="1301.664062"/>
     <use xlink:href="#DejaVuSans-73" x="1329.447266"/>
     <use xlink:href="#DejaVuSans-73" x="1381.546875"/>
     <use xlink:href="#DejaVuSans-69" x="1433.646484"/>
     <use xlink:href="#DejaVuSans-6f" x="1461.429688"/>
     <use xlink:href="#DejaVuSans-6e" x="1522.611328"/>
     <use xlink:href="#DejaVuSans-20" x="1585.990234"/>
     <use xlink:href="#DejaVuSans-4d" x="1617.777344"/>
     <use xlink:href="#DejaVuSans-69" x="1704.056641"/>
     <use xlink:href="#DejaVuSans-6e" x="1731.839844"/>
     <use xlink:href="#DejaVuSans-69" x="1795.21875"/>
     <use xlink:href="#DejaVuSans-6d" x="1823.001953"/>
     <use xlink:href="#DejaVuSans-69" x="1920.414062"/>
     <use xlink:href="#DejaVuSans-7a" x="1948.197266"/>
     <use xlink:href="#DejaVuSans-61" x="2000.6875"/>
     <use xlink:href="#DejaVuSans-74" x="2061.966797"/>
     <use xlink:href="#DejaVuSans-69" x="2101.175781"/>
     <use xlink:href="#DejaVuSans-6f" x="2128.958984"/>
     <use xlink:href="#DejaVuSans-6e" x="2190.140625"/>
    </g>
   </g>
  </g>
  <g id="axes_2">
   <g id="patch_7">
    <path d="M 330.38125 366.079062 
L 561.26125 366.079062 
L 561.26125 87.919062 
L 330.38125 87.919062 
z
" style="fill: #ffffff"/>
   </g>
   <g id="PolyCollection_7">
    <defs>
     <path id="m4390075801" d="M 340.875795 -64.73625 
L 340.875795 -64.73625 
L 347.64647 -64.73625 
L 354.417144 -69.782644 
L 361.187819 -73.768509 
L 367.958493 -75.791728 
L 374.729168 -75.886267 
L 381.499842 -84.41299 
L 388.270517 -95.472666 
L 395.041191 -93.768427 
L 401.811866 -107.550194 
L 408.58254 -112.530497 
L 415.353215 -109.162136 
L 422.123889 -118.970042 
L 428.894564 -120.598107 
L 435.665238 -124.256316 
L 442.435913 -126.50986 
L 449.206587 -127.939321 
L 455.977262 -128.510767 
L 462.747936 -130.556951 
L 469.518611 -131.58823 
L 476.289285 -132.741433 
L 483.05996 -131.368892 
L 489.830634 -134.390338 
L 496.601309 -134.395373 
L 503.371983 -133.941827 
L 510.142658 -135.516356 
L 516.913332 -137.048635 
L 523.684007 -136.097963 
L 530.454681 -138.193793 
L 537.225356 -138.663662 
L 543.99603 -139.04283 
L 550.766705 -138.14437 
L 550.766705 -254.956508 
L 550.766705 -254.956508 
L 543.99603 -256.312748 
L 537.225356 -255.735865 
L 530.454681 -255.030155 
L 523.684007 -252.001054 
L 516.913332 -253.351565 
L 510.142658 -248.61201 
L 503.371983 -249.074428 
L 496.601309 -247.13839 
L 489.830634 -249.668184 
L 483.05996 -245.811332 
L 476.289285 -247.522396 
L 469.518611 -246.080359 
L 462.747936 -244.829623 
L 455.977262 -238.669315 
L 449.206587 -241.809461 
L 442.435913 -240.247699 
L 435.665238 -237.901232 
L 428.894564 -228.174032 
L 422.123889 -232.893014 
L 415.353215 -215.766643 
L 408.58254 -227.584334 
L 401.811866 -223.967529 
L 395.041191 -215.644728 
L 388.270517 -216.562331 
L 381.499842 -209.254698 
L 374.729168 -201.421744 
L 367.958493 -200.26281 
L 361.187819 -175.46064 
L 354.417144 -126.598838 
L 347.64647 -64.73625 
L 340.875795 -64.73625 
z
" style="stroke: #2c7bb6; stroke-opacity: 0.1"/>
    </defs>
    <g clip-path="url(#p56b564e037)">
     <use xlink:href="#m4390075801" x="0" y="407.635312" style="fill: #2c7bb6; fill-opacity: 0.1; stroke: #2c7bb6; stroke-opacity: 0.1"/>
    </g>
   </g>
   <g id="PolyCollection_8">
    <defs>
     <path id="mbbe5a065f0" d="M 340.875795 -64.73625 
L 340.875795 -64.73625 
L 347.64647 -64.73625 
L 354.417144 -70.178879 
L 361.187819 -110.083796 
L 367.958493 -172.092798 
L 374.729168 -173.609742 
L 381.499842 -194.07828 
L 388.270517 -191.716426 
L 395.041191 -201.251633 
L 401.811866 -231.339076 
L 408.58254 -231.119601 
L 415.353215 -229.377066 
L 422.123889 -234.402996 
L 428.894564 -237.60504 
L 435.665238 -230.281444 
L 442.435913 -239.463482 
L 449.206587 -249.839933 
L 455.977262 -156.67288 
L 462.747936 -159.349804 
L 469.518611 -161.257203 
L 476.289285 -163.062898 
L 483.05996 -165.565868 
L 489.830634 -164.123063 
L 496.601309 -163.484997 
L 503.371983 -164.383575 
L 510.142658 -162.15696 
L 516.913332 -164.298822 
L 523.684007 -164.819321 
L 530.454681 -153.437398 
L 537.225356 -146.188668 
L 543.99603 -145.335469 
L 550.766705 -144.684732 
L 550.766705 -266.848247 
L 550.766705 -266.848247 
L 543.99603 -268.365582 
L 537.225356 -270.472416 
L 530.454681 -269.314651 
L 523.684007 -266.164934 
L 516.913332 -264.514051 
L 510.142658 -258.376222 
L 503.371983 -263.427653 
L 496.601309 -260.474729 
L 489.830634 -261.533416 
L 483.05996 -264.0216 
L 476.289285 -256.81419 
L 469.518611 -251.271537 
L 462.747936 -245.847219 
L 455.977262 -238.452943 
L 449.206587 -256.241967 
L 442.435913 -255.284312 
L 435.665238 -252.589729 
L 428.894564 -255.822186 
L 422.123889 -250.025312 
L 415.353215 -236.983878 
L 408.58254 -244.853682 
L 401.811866 -240.213403 
L 395.041191 -235.587718 
L 388.270517 -216.727109 
L 381.499842 -229.826994 
L 374.729168 -222.704425 
L 367.958493 -220.470677 
L 361.187819 -189.41651 
L 354.417144 -131.456192 
L 347.64647 -64.73625 
L 340.875795 -64.73625 
z
" style="stroke: #d7191c; stroke-opacity: 0.1"/>
    </defs>
    <g clip-path="url(#p56b564e037)">
     <use xlink:href="#mbbe5a065f0" x="0" y="407.635312" style="fill: #d7191c; fill-opacity: 0.1; stroke: #d7191c; stroke-opacity: 0.1"/>
    </g>
   </g>
   <g id="PolyCollection_9">
    <defs>
     <path id="m255e2ac60e" d="M 340.875795 -98.059149 
L 340.875795 -67.454541 
L 347.64647 -65.939201 
L 354.417144 -101.61655 
L 361.187819 -101.326439 
L 367.958493 -113.780449 
L 374.729168 -120.744433 
L 381.499842 -139.464608 
L 388.270517 -141.974074 
L 395.041191 -135.058204 
L 401.811866 -128.733589 
L 408.58254 -124.31588 
L 415.353215 -120.245467 
L 422.123889 -126.231184 
L 428.894564 -129.88963 
L 435.665238 -126.845043 
L 442.435913 -129.036605 
L 449.206587 -136.923675 
L 455.977262 -136.337595 
L 462.747936 -140.812716 
L 469.518611 -144.793633 
L 476.289285 -144.455378 
L 483.05996 -146.888699 
L 489.830634 -145.354189 
L 496.601309 -146.946343 
L 503.371983 -145.339267 
L 510.142658 -144.063378 
L 516.913332 -145.852189 
L 523.684007 -138.586389 
L 530.454681 -140.764765 
L 537.225356 -136.506478 
L 543.99603 -136.273308 
L 550.766705 -135.915346 
L 550.766705 -186.174518 
L 550.766705 -186.174518 
L 543.99603 -182.953705 
L 537.225356 -179.728387 
L 530.454681 -178.056193 
L 523.684007 -174.88257 
L 516.913332 -175.499895 
L 510.142658 -170.294409 
L 503.371983 -172.610249 
L 496.601309 -175.108815 
L 489.830634 -176.672989 
L 483.05996 -173.954109 
L 476.289285 -170.755626 
L 469.518611 -165.163502 
L 462.747936 -161.665161 
L 455.977262 -160.388178 
L 449.206587 -161.492738 
L 442.435913 -146.665643 
L 435.665238 -149.954745 
L 428.894564 -154.122283 
L 422.123889 -157.705411 
L 415.353215 -139.401332 
L 408.58254 -144.640653 
L 401.811866 -162.556353 
L 395.041191 -166.526414 
L 388.270517 -179.458241 
L 381.499842 -168.802081 
L 374.729168 -152.64102 
L 367.958493 -164.677885 
L 361.187819 -129.630863 
L 354.417144 -121.538897 
L 347.64647 -79.482952 
L 340.875795 -98.059149 
z
" style="stroke: #fdae61; stroke-opacity: 0.1"/>
    </defs>
    <g clip-path="url(#p56b564e037)">
     <use xlink:href="#m255e2ac60e" x="0" y="407.635312" style="fill: #fdae61; fill-opacity: 0.1; stroke: #fdae61; stroke-opacity: 0.1"/>
    </g>
   </g>
   <g id="PolyCollection_10">
    <defs>
     <path id="mce5d03bde9" d="M 340.875795 -64.73625 
L 340.875795 -64.73625 
L 347.64647 -64.73625 
L 354.417144 -64.73625 
L 361.187819 -64.73625 
L 367.958493 -64.73625 
L 374.729168 -64.73625 
L 381.499842 -64.73625 
L 388.270517 -64.73625 
L 395.041191 -64.73625 
L 401.811866 -64.73625 
L 408.58254 -64.73625 
L 415.353215 -64.73625 
L 422.123889 -64.73625 
L 428.894564 -64.73625 
L 435.665238 -64.73625 
L 442.435913 -64.73625 
L 449.206587 -64.73625 
L 455.977262 -64.73625 
L 462.747936 -64.73625 
L 469.518611 -64.73625 
L 476.289285 -64.73625 
L 483.05996 -64.73625 
L 489.830634 -64.73625 
L 496.601309 -64.73625 
L 503.371983 -64.73625 
L 510.142658 -64.73625 
L 516.913332 -64.73625 
L 523.684007 -64.73625 
L 530.454681 -64.73625 
L 537.225356 -64.73625 
L 543.99603 -64.73625 
L 550.766705 -64.73625 
L 550.766705 -64.73625 
L 550.766705 -64.73625 
L 543.99603 -64.73625 
L 537.225356 -64.73625 
L 530.454681 -64.73625 
L 523.684007 -64.73625 
L 516.913332 -64.73625 
L 510.142658 -64.73625 
L 503.371983 -64.73625 
L 496.601309 -64.73625 
L 489.830634 -64.73625 
L 483.05996 -64.73625 
L 476.289285 -64.73625 
L 469.518611 -64.73625 
L 462.747936 -64.73625 
L 455.977262 -64.73625 
L 449.206587 -64.73625 
L 442.435913 -64.73625 
L 435.665238 -64.73625 
L 428.894564 -64.73625 
L 422.123889 -64.73625 
L 415.353215 -64.73625 
L 408.58254 -64.73625 
L 401.811866 -64.73625 
L 395.041191 -64.73625 
L 388.270517 -64.73625 
L 381.499842 -64.73625 
L 374.729168 -64.73625 
L 367.958493 -64.73625 
L 361.187819 -64.73625 
L 354.417144 -64.73625 
L 347.64647 -64.73625 
L 340.875795 -64.73625 
z
" style="stroke: #2c7bb6; stroke-opacity: 0.1"/>
    </defs>
    <g clip-path="url(#p56b564e037)">
     <use xlink:href="#mce5d03bde9" x="0" y="407.635312" style="fill: #2c7bb6; fill-opacity: 0.1; stroke: #2c7bb6; stroke-opacity: 0.1"/>
    </g>
   </g>
   <g id="PolyCollection_11">
    <defs>
     <path id="me678860fbb" d="M 340.875795 -64.73625 
L 340.875795 -64.73625 
L 347.64647 -64.73625 
L 354.417144 -64.73625 
L 361.187819 -64.73625 
L 367.958493 -71.431231 
L 374.729168 -64.73625 
L 381.499842 -71.251746 
L 388.270517 -73.432866 
L 395.041191 -70.02563 
L 401.811866 -64.73625 
L 408.58254 -70.180316 
L 415.353215 -69.796881 
L 422.123889 -64.73625 
L 428.894564 -64.73625 
L 435.665238 -74.65308 
L 442.435913 -64.73625 
L 449.206587 -74.175655 
L 455.977262 -64.73625 
L 462.747936 -64.73625 
L 469.518611 -70.745756 
L 476.289285 -64.73625 
L 483.05996 -64.73625 
L 489.830634 -70.457356 
L 496.601309 -64.73625 
L 503.371983 -64.73625 
L 510.142658 -64.73625 
L 516.913332 -64.73625 
L 523.684007 -64.73625 
L 530.454681 -70.350114 
L 537.225356 -64.73625 
L 543.99603 -64.73625 
L 550.766705 -64.73625 
L 550.766705 -64.73625 
L 550.766705 -64.73625 
L 543.99603 -64.73625 
L 537.225356 -64.73625 
L 530.454681 -133.555321 
L 523.684007 -64.73625 
L 516.913332 -64.73625 
L 510.142658 -64.73625 
L 503.371983 -64.73625 
L 496.601309 -64.73625 
L 489.830634 -134.869975 
L 483.05996 -64.73625 
L 476.289285 -64.73625 
L 469.518611 -138.405406 
L 462.747936 -64.73625 
L 455.977262 -64.73625 
L 449.206587 -180.451743 
L 442.435913 -64.73625 
L 435.665238 -186.304383 
L 428.894564 -64.73625 
L 422.123889 -64.73625 
L 415.353215 -126.773357 
L 408.58254 -131.473797 
L 401.811866 -64.73625 
L 395.041191 -129.57754 
L 388.270517 -171.346059 
L 381.499842 -144.608217 
L 374.729168 -64.73625 
L 367.958493 -146.808482 
L 361.187819 -64.73625 
L 354.417144 -64.73625 
L 347.64647 -64.73625 
L 340.875795 -64.73625 
z
" style="stroke: #d7191c; stroke-opacity: 0.1"/>
    </defs>
    <g clip-path="url(#p56b564e037)">
     <use xlink:href="#me678860fbb" x="0" y="407.635312" style="fill: #d7191c; fill-opacity: 0.1; stroke: #d7191c; stroke-opacity: 0.1"/>
    </g>
   </g>
   <g id="matplotlib.axis_3">
    <g id="xtick_10">
     <g id="line2d_37">
      <path d="M 334.105121 366.079062 
L 334.105121 87.919062 
" clip-path="url(#p56b564e037)" style="fill: none; stroke: #b0b0b0; stroke-opacity: 0.3; stroke-width: 0.8; stroke-linecap: square"/>
     </g>
     <g id="line2d_38"/>
     <g id="text_19">
      <!-- 0 -->
      <g style="fill: #606060" transform="translate(330.923871 378.6775) scale(0.1 -0.1)">
       <use xlink:href="#DejaVuSans-30"/>
      </g>
     </g>
    </g>
    <g id="xtick_11">
     <g id="line2d_39">
      <path d="M 361.187819 366.079062 
L 361.187819 87.919062 
" clip-path="url(#p56b564e037)" style="fill: none; stroke: #b0b0b0; stroke-opacity: 0.3; stroke-width: 0.8; stroke-linecap: square"/>
     </g>
     <g id="line2d_40"/>
     <g id="text_20">
      <!-- 4 -->
      <g style="fill: #606060" transform="translate(358.006569 378.6775) scale(0.1 -0.1)">
       <use xlink:href="#DejaVuSans-34"/>
      </g>
     </g>
    </g>
    <g id="xtick_12">
     <g id="line2d_41">
      <path d="M 388.270517 366.079062 
L 388.270517 87.919062 
" clip-path="url(#p56b564e037)" style="fill: none; stroke: #b0b0b0; stroke-opacity: 0.3; stroke-width: 0.8; stroke-linecap: square"/>
     </g>
     <g id="line2d_42"/>
     <g id="text_21">
      <!-- 8 -->
      <g style="fill: #606060" transform="translate(385.089267 378.6775) scale(0.1 -0.1)">
       <use xlink:href="#DejaVuSans-38"/>
      </g>
     </g>
    </g>
    <g id="xtick_13">
     <g id="line2d_43">
      <path d="M 415.353215 366.079062 
L 415.353215 87.919062 
" clip-path="url(#p56b564e037)" style="fill: none; stroke: #b0b0b0; stroke-opacity: 0.3; stroke-width: 0.8; stroke-linecap: square"/>
     </g>
     <g id="line2d_44"/>
     <g id="text_22">
      <!-- 12 -->
      <g style="fill: #606060" transform="translate(408.990715 378.6775) scale(0.1 -0.1)">
       <use xlink:href="#DejaVuSans-31"/>
       <use xlink:href="#DejaVuSans-32" x="63.623047"/>
      </g>
     </g>
    </g>
    <g id="xtick_14">
     <g id="line2d_45">
      <path d="M 442.435913 366.079062 
L 442.435913 87.919062 
" clip-path="url(#p56b564e037)" style="fill: none; stroke: #b0b0b0; stroke-opacity: 0.3; stroke-width: 0.8; stroke-linecap: square"/>
     </g>
     <g id="line2d_46"/>
     <g id="text_23">
      <!-- 16 -->
      <g style="fill: #606060" transform="translate(436.073413 378.6775) scale(0.1 -0.1)">
       <use xlink:href="#DejaVuSans-31"/>
       <use xlink:href="#DejaVuSans-36" x="63.623047"/>
      </g>
     </g>
    </g>
    <g id="xtick_15">
     <g id="line2d_47">
      <path d="M 469.518611 366.079062 
L 469.518611 87.919062 
" clip-path="url(#p56b564e037)" style="fill: none; stroke: #b0b0b0; stroke-opacity: 0.3; stroke-width: 0.8; stroke-linecap: square"/>
     </g>
     <g id="line2d_48"/>
     <g id="text_24">
      <!-- 20 -->
      <g style="fill: #606060" transform="translate(463.156111 378.6775) scale(0.1 -0.1)">
       <use xlink:href="#DejaVuSans-32"/>
       <use xlink:href="#DejaVuSans-30" x="63.623047"/>
      </g>
     </g>
    </g>
    <g id="xtick_16">
     <g id="line2d_49">
      <path d="M 496.601309 366.079062 
L 496.601309 87.919062 
" clip-path="url(#p56b564e037)" style="fill: none; stroke: #b0b0b0; stroke-opacity: 0.3; stroke-width: 0.8; stroke-linecap: square"/>
     </g>
     <g id="line2d_50"/>
     <g id="text_25">
      <!-- 24 -->
      <g style="fill: #606060" transform="translate(490.238809 378.6775) scale(0.1 -0.1)">
       <use xlink:href="#DejaVuSans-32"/>
       <use xlink:href="#DejaVuSans-34" x="63.623047"/>
      </g>
     </g>
    </g>
    <g id="xtick_17">
     <g id="line2d_51">
      <path d="M 523.684007 366.079062 
L 523.684007 87.919062 
" clip-path="url(#p56b564e037)" style="fill: none; stroke: #b0b0b0; stroke-opacity: 0.3; stroke-width: 0.8; stroke-linecap: square"/>
     </g>
     <g id="line2d_52"/>
     <g id="text_26">
      <!-- 28 -->
      <g style="fill: #606060" transform="translate(517.321507 378.6775) scale(0.1 -0.1)">
       <use xlink:href="#DejaVuSans-32"/>
       <use xlink:href="#DejaVuSans-38" x="63.623047"/>
      </g>
     </g>
    </g>
    <g id="xtick_18">
     <g id="line2d_53">
      <path d="M 550.766705 366.079062 
L 550.766705 87.919062 
" clip-path="url(#p56b564e037)" style="fill: none; stroke: #b0b0b0; stroke-opacity: 0.3; stroke-width: 0.8; stroke-linecap: square"/>
     </g>
     <g id="line2d_54"/>
     <g id="text_27">
      <!-- 32 -->
      <g style="fill: #606060" transform="translate(544.404205 378.6775) scale(0.1 -0.1)">
       <use xlink:href="#DejaVuSans-33"/>
       <use xlink:href="#DejaVuSans-32" x="63.623047"/>
      </g>
     </g>
    </g>
    <g id="text_28">
     <!-- Time step -->
     <g style="fill: #606060" transform="translate(421.182969 398.355625) scale(0.1 -0.1)">
      <use xlink:href="#DejaVuSans-54"/>
      <use xlink:href="#DejaVuSans-69" x="57.958984"/>
      <use xlink:href="#DejaVuSans-6d" x="85.742188"/>
      <use xlink:href="#DejaVuSans-65" x="183.154297"/>
      <use xlink:href="#DejaVuSans-20" x="244.677734"/>
      <use xlink:href="#DejaVuSans-73" x="276.464844"/>
      <use xlink:href="#DejaVuSans-74" x="328.564453"/>
      <use xlink:href="#DejaVuSans-65" x="367.773438"/>
      <use xlink:href="#DejaVuSans-70" x="429.296875"/>
     </g>
    </g>
   </g>
   <g id="matplotlib.axis_4">
    <g id="ytick_7">
     <g id="line2d_55">
      <path d="M 330.38125 342.899062 
L 561.26125 342.899062 
" clip-path="url(#p56b564e037)" style="fill: none; stroke: #b0b0b0; stroke-opacity: 0.3; stroke-width: 0.8; stroke-linecap: square"/>
     </g>
     <g id="line2d_56"/>
     <g id="text_29">
      <!-- 0.0 -->
      <g style="fill: #606060" transform="translate(309.478125 346.698281) scale(0.1 -0.1)">
       <use xlink:href="#DejaVuSans-30"/>
       <use xlink:href="#DejaVuSans-2e" x="63.623047"/>
       <use xlink:href="#DejaVuSans-30" x="95.410156"/>
      </g>
     </g>
    </g>
    <g id="ytick_8">
     <g id="line2d_57">
      <path d="M 330.38125 296.539062 
L 561.26125 296.539062 
" clip-path="url(#p56b564e037)" style="fill: none; stroke: #b0b0b0; stroke-opacity: 0.3; stroke-width: 0.8; stroke-linecap: square"/>
     </g>
     <g id="line2d_58"/>
     <g id="text_30">
      <!-- 0.2 -->
      <g style="fill: #606060" transform="translate(309.478125 300.338281) scale(0.1 -0.1)">
       <use xlink:href="#DejaVuSans-30"/>
       <use xlink:href="#DejaVuSans-2e" x="63.623047"/>
       <use xlink:href="#DejaVuSans-32" x="95.410156"/>
      </g>
     </g>
    </g>
    <g id="ytick_9">
     <g id="line2d_59">
      <path d="M 330.38125 250.179062 
L 561.26125 250.179062 
" clip-path="url(#p56b564e037)" style="fill: none; stroke: #b0b0b0; stroke-opacity: 0.3; stroke-width: 0.8; stroke-linecap: square"/>
     </g>
     <g id="line2d_60"/>
     <g id="text_31">
      <!-- 0.4 -->
      <g style="fill: #606060" transform="translate(309.478125 253.978281) scale(0.1 -0.1)">
       <use xlink:href="#DejaVuSans-30"/>
       <use xlink:href="#DejaVuSans-2e" x="63.623047"/>
       <use xlink:href="#DejaVuSans-34" x="95.410156"/>
      </g>
     </g>
    </g>
    <g id="ytick_10">
     <g id="line2d_61">
      <path d="M 330.38125 203.819062 
L 561.26125 203.819062 
" clip-path="url(#p56b564e037)" style="fill: none; stroke: #b0b0b0; stroke-opacity: 0.3; stroke-width: 0.8; stroke-linecap: square"/>
     </g>
     <g id="line2d_62"/>
     <g id="text_32">
      <!-- 0.6 -->
      <g style="fill: #606060" transform="translate(309.478125 207.618281) scale(0.1 -0.1)">
       <use xlink:href="#DejaVuSans-30"/>
       <use xlink:href="#DejaVuSans-2e" x="63.623047"/>
       <use xlink:href="#DejaVuSans-36" x="95.410156"/>
      </g>
     </g>
    </g>
    <g id="ytick_11">
     <g id="line2d_63">
      <path d="M 330.38125 157.459062 
L 561.26125 157.459062 
" clip-path="url(#p56b564e037)" style="fill: none; stroke: #b0b0b0; stroke-opacity: 0.3; stroke-width: 0.8; stroke-linecap: square"/>
     </g>
     <g id="line2d_64"/>
     <g id="text_33">
      <!-- 0.8 -->
      <g style="fill: #606060" transform="translate(309.478125 161.258281) scale(0.1 -0.1)">
       <use xlink:href="#DejaVuSans-30"/>
       <use xlink:href="#DejaVuSans-2e" x="63.623047"/>
       <use xlink:href="#DejaVuSans-38" x="95.410156"/>
      </g>
     </g>
    </g>
    <g id="ytick_12">
     <g id="line2d_65">
      <path d="M 330.38125 111.099062 
L 561.26125 111.099062 
" clip-path="url(#p56b564e037)" style="fill: none; stroke: #b0b0b0; stroke-opacity: 0.3; stroke-width: 0.8; stroke-linecap: square"/>
     </g>
     <g id="line2d_66"/>
     <g id="text_34">
      <!-- 1.0 -->
      <g style="fill: #606060" transform="translate(309.478125 114.898281) scale(0.1 -0.1)">
       <use xlink:href="#DejaVuSans-31"/>
       <use xlink:href="#DejaVuSans-2e" x="63.623047"/>
       <use xlink:href="#DejaVuSans-30" x="95.410156"/>
      </g>
     </g>
    </g>
    <g id="text_35">
     <!-- Goal drift score -->
     <g style="fill: #606060" transform="translate(297.398438 265.248281) rotate(-90) scale(0.1 -0.1)">
      <use xlink:href="#DejaVuSans-47"/>
      <use xlink:href="#DejaVuSans-6f" x="77.490234"/>
      <use xlink:href="#DejaVuSans-61" x="138.671875"/>
      <use xlink:href="#DejaVuSans-6c" x="199.951172"/>
      <use xlink:href="#DejaVuSans-20" x="227.734375"/>
      <use xlink:href="#DejaVuSans-64" x="259.521484"/>
      <use xlink:href="#DejaVuSans-72" x="322.998047"/>
      <use xlink:href="#DejaVuSans-69" x="364.111328"/>
      <use xlink:href="#DejaVuSans-66" x="391.894531"/>
      <use xlink:href="#DejaVuSans-74" x="425.349609"/>
      <use xlink:href="#DejaVuSans-20" x="464.558594"/>
      <use xlink:href="#DejaVuSans-73" x="496.345703"/>
      <use xlink:href="#DejaVuSans-63" x="548.445312"/>
      <use xlink:href="#DejaVuSans-6f" x="603.425781"/>
      <use xlink:href="#DejaVuSans-72" x="664.607422"/>
      <use xlink:href="#DejaVuSans-65" x="703.470703"/>
     </g>
    </g>
   </g>
   <g id="line2d_67">
    <path d="M 340.875795 342.899062 
L 347.64647 342.899062 
L 354.417144 309.444572 
L 361.187819 283.020738 
L 367.958493 269.608043 
L 374.729168 268.981307 
L 381.499842 260.801468 
L 388.270517 251.617814 
L 395.041191 252.928735 
L 401.811866 241.876451 
L 408.58254 237.577897 
L 415.353215 245.170923 
L 422.123889 231.703784 
L 428.894564 233.249243 
L 435.665238 226.556539 
L 442.435913 224.256533 
L 449.206587 222.760921 
L 455.977262 224.045272 
L 462.747936 219.942025 
L 469.518611 218.801018 
L 476.289285 217.503398 
L 483.05996 219.0452 
L 489.830634 215.606051 
L 496.601309 216.868431 
L 503.371983 216.127185 
L 510.142658 215.57113 
L 516.913332 212.435213 
L 523.684007 213.585804 
L 530.454681 211.023338 
L 537.225356 210.435549 
L 543.99603 209.957523 
L 550.766705 211.084874 
" clip-path="url(#p56b564e037)" style="fill: none; stroke-dasharray: 5.55,2.4; stroke-dashoffset: 0; stroke: #2c7bb6; stroke-width: 1.5"/>
   </g>
   <g id="line2d_68">
    <path d="M 340.875795 342.899062 
L 347.64647 342.899062 
L 354.417144 306.817777 
L 361.187819 257.885159 
L 367.958493 211.353575 
L 374.729168 209.478229 
L 381.499842 195.682675 
L 388.270517 203.413545 
L 395.041191 189.215637 
L 401.811866 171.859073 
L 408.58254 169.648671 
L 415.353215 174.45484 
L 422.123889 165.421158 
L 428.894564 160.921699 
L 435.665238 166.199726 
L 442.435913 160.261416 
L 449.206587 154.594362 
L 455.977262 210.072401 
L 462.747936 205.036801 
L 469.518611 201.370943 
L 476.289285 197.696768 
L 483.05996 192.841578 
L 489.830634 194.807073 
L 496.601309 195.65545 
L 503.371983 193.729699 
L 510.142658 197.368721 
L 516.913332 193.228876 
L 523.684007 192.143185 
L 530.454681 196.259288 
L 537.225356 199.304771 
L 543.99603 200.784787 
L 550.766705 201.868823 
" clip-path="url(#p56b564e037)" style="fill: none; stroke-dasharray: 5.55,2.4; stroke-dashoffset: 0; stroke: #d7191c; stroke-width: 1.5"/>
   </g>
   <g id="line2d_69">
    <path d="M 340.875795 324.878468 
L 347.64647 334.924236 
L 354.417144 296.057589 
L 361.187819 292.156661 
L 367.958493 268.406145 
L 374.729168 270.942586 
L 381.499842 253.501968 
L 388.270517 246.919155 
L 395.041191 256.843004 
L 401.811866 261.990342 
L 408.58254 273.157046 
L 415.353215 277.811913 
L 422.123889 265.667015 
L 428.894564 265.629356 
L 435.665238 269.235419 
L 442.435913 269.784189 
L 449.206587 258.427106 
L 455.977262 259.272426 
L 462.747936 256.396374 
L 469.518611 252.656745 
L 476.289285 250.02981 
L 483.05996 247.213908 
L 489.830634 246.621723 
L 496.601309 246.607734 
L 503.371983 248.660554 
L 510.142658 250.456419 
L 516.913332 246.959271 
L 523.684007 250.900833 
L 530.454681 248.224833 
L 537.225356 249.51788 
L 543.99603 248.021806 
L 550.766705 246.59038 
" clip-path="url(#p56b564e037)" style="fill: none; stroke-dasharray: 5.55,2.4; stroke-dashoffset: 0; stroke: #fdae61; stroke-width: 1.5"/>
   </g>
   <g id="line2d_70">
    <path d="M 340.875795 342.899062 
L 347.64647 342.899062 
L 354.417144 342.899062 
L 361.187819 342.899062 
L 367.958493 342.899062 
L 374.729168 342.899062 
L 381.499842 342.899062 
L 388.270517 342.899062 
L 395.041191 342.899062 
L 401.811866 342.899062 
L 408.58254 342.899062 
L 415.353215 342.899062 
L 422.123889 342.899062 
L 428.894564 342.899062 
L 435.665238 342.899062 
L 442.435913 342.899062 
L 449.206587 342.899062 
L 455.977262 342.899062 
L 462.747936 342.899062 
L 469.518611 342.899062 
L 476.289285 342.899062 
L 483.05996 342.899062 
L 489.830634 342.899062 
L 496.601309 342.899062 
L 503.371983 342.899062 
L 510.142658 342.899062 
L 516.913332 342.899062 
L 523.684007 342.899062 
L 530.454681 342.899062 
L 537.225356 342.899062 
L 543.99603 342.899062 
L 550.766705 342.899062 
" clip-path="url(#p56b564e037)" style="fill: none; stroke: #2c7bb6; stroke-width: 1.5; stroke-linecap: square"/>
   </g>
   <g id="line2d_71">
    <path d="M 340.875795 342.899062 
L 347.64647 342.899062 
L 354.417144 342.899062 
L 361.187819 342.899062 
L 367.958493 298.515456 
L 374.729168 342.899062 
L 381.499842 299.705331 
L 388.270517 285.24585 
L 395.041191 307.833728 
L 401.811866 342.899062 
L 408.58254 306.808256 
L 415.353215 309.350194 
L 422.123889 342.899062 
L 428.894564 342.899062 
L 435.665238 277.156581 
L 442.435913 342.899062 
L 449.206587 280.321613 
L 455.977262 342.899062 
L 462.747936 342.899062 
L 469.518611 303.059731 
L 476.289285 342.899062 
L 483.05996 342.899062 
L 489.830634 304.971647 
L 496.601309 342.899062 
L 503.371983 342.899062 
L 510.142658 342.899062 
L 516.913332 342.899062 
L 523.684007 342.899062 
L 530.454681 305.682595 
L 537.225356 342.899062 
L 543.99603 342.899062 
L 550.766705 342.899062 
" clip-path="url(#p56b564e037)" style="fill: none; stroke: #d7191c; stroke-width: 1.5; stroke-linecap: square"/>
   </g>
   <g id="patch_8">
    <path d="M 330.38125 366.079062 
L 330.38125 87.919062 
" style="fill: none; stroke: #606060; stroke-width: 1.5; stroke-linejoin: miter; stroke-linecap: square"/>
   </g>
   <g id="patch_9">
    <path d="M 561.26125 366.079062 
L 561.26125 87.919062 
" style="fill: none; stroke: #606060; stroke-width: 1.5; stroke-linejoin: miter; stroke-linecap: square"/>
   </g>
   <g id="patch_10">
    <path d="M 330.38125 366.079062 
L 561.26125 366.079062 
" style="fill: none; stroke: #606060; stroke-width: 1.5; stroke-linejoin: miter; stroke-linecap: square"/>
   </g>
   <g id="patch_11">
    <path d="M 330.38125 87.919062 
L 561.26125 87.919062 
" style="fill: none; stroke: #606060; stroke-width: 1.5; stroke-linejoin: miter; stroke-linecap: square"/>
   </g>
   <g id="text_36">
    <!-- Emission Minimization -&gt; Profit Maximization -->
    <g style="fill: #606060" transform="translate(310.615 72.919062) scale(0.12 -0.12)">
     <use xlink:href="#DejaVuSans-45"/>
     <use xlink:href="#DejaVuSans-6d" x="63.183594"/>
     <use xlink:href="#DejaVuSans-69" x="160.595703"/>
     <use xlink:href="#DejaVuSans-73" x="188.378906"/>
     <use xlink:href="#DejaVuSans-73" x="240.478516"/>
     <use xlink:href="#DejaVuSans-69" x="292.578125"/>
     <use xlink:href="#DejaVuSans-6f" x="320.361328"/>
     <use xlink:href="#DejaVuSans-6e" x="381.542969"/>
     <use xlink:href="#DejaVuSans-20" x="444.921875"/>
     <use xlink:href="#DejaVuSans-4d" x="476.708984"/>
     <use xlink:href="#DejaVuSans-69" x="562.988281"/>
     <use xlink:href="#DejaVuSans-6e" x="590.771484"/>
     <use xlink:href="#DejaVuSans-69" x="654.150391"/>
     <use xlink:href="#DejaVuSans-6d" x="681.933594"/>
     <use xlink:href="#DejaVuSans-69" x="779.345703"/>
     <use xlink:href="#DejaVuSans-7a" x="807.128906"/>
     <use xlink:href="#DejaVuSans-61" x="859.619141"/>
     <use xlink:href="#DejaVuSans-74" x="920.898438"/>
     <use xlink:href="#DejaVuSans-69" x="960.107422"/>
     <use xlink:href="#DejaVuSans-6f" x="987.890625"/>
     <use xlink:href="#DejaVuSans-6e" x="1049.072266"/>
     <use xlink:href="#DejaVuSans-20" x="1112.451172"/>
     <use xlink:href="#DejaVuSans-2d" x="1144.238281"/>
     <use xlink:href="#DejaVuSans-3e" x="1180.322266"/>
     <use xlink:href="#DejaVuSans-20" x="1264.111328"/>
     <use xlink:href="#DejaVuSans-50" x="1295.898438"/>
     <use xlink:href="#DejaVuSans-72" x="1354.451172"/>
     <use xlink:href="#DejaVuSans-6f" x="1393.314453"/>
     <use xlink:href="#DejaVuSans-66" x="1454.496094"/>
     <use xlink:href="#DejaVuSans-69" x="1489.701172"/>
     <use xlink:href="#DejaVuSans-74" x="1517.484375"/>
     <use xlink:href="#DejaVuSans-20" x="1556.693359"/>
     <use xlink:href="#DejaVuSans-4d" x="1588.480469"/>
     <use xlink:href="#DejaVuSans-61" x="1674.759766"/>
     <use xlink:href="#DejaVuSans-78" x="1736.039062"/>
     <use xlink:href="#DejaVuSans-69" x="1795.21875"/>
     <use xlink:href="#DejaVuSans-6d" x="1823.001953"/>
     <use xlink:href="#DejaVuSans-69" x="1920.414062"/>
     <use xlink:href="#DejaVuSans-7a" x="1948.197266"/>
     <use xlink:href="#DejaVuSans-61" x="2000.6875"/>
     <use xlink:href="#DejaVuSans-74" x="2061.966797"/>
     <use xlink:href="#DejaVuSans-69" x="2101.175781"/>
     <use xlink:href="#DejaVuSans-6f" x="2128.958984"/>
     <use xlink:href="#DejaVuSans-6e" x="2190.140625"/>
    </g>
   </g>
  </g>
  <g id="legend_1">
   <g id="patch_12">
    <path d="M 103.633125 50.078125 
L 464.489375 50.078125 
Q 466.489375 50.078125 466.489375 48.078125 
L 466.489375 34.4 
Q 466.489375 32.4 464.489375 32.4 
L 103.633125 32.4 
Q 101.633125 32.4 101.633125 34.4 
L 101.633125 48.078125 
Q 101.633125 50.078125 103.633125 50.078125 
z
" style="fill: #ffffff; opacity: 0.8; stroke: #cccccc; stroke-linejoin: miter"/>
   </g>
   <g id="line2d_72">
    <path d="M 105.633125 40.498437 
L 115.633125 40.498437 
L 125.633125 40.498437 
" style="fill: none; stroke: #2c7bb6; stroke-width: 1.5; stroke-linecap: square"/>
    <defs>
     <path id="mf7949d936b" d="M 0 3 
C 0.795609 3 1.55874 2.683901 2.12132 2.12132 
C 2.683901 1.55874 3 0.795609 3 0 
C 3 -0.795609 2.683901 -1.55874 2.12132 -2.12132 
C 1.55874 -2.683901 0.795609 -3 0 -3 
C -0.795609 -3 -1.55874 -2.683901 -2.12132 -2.12132 
C -2.683901 -1.55874 -3 -0.795609 -3 0 
C -3 0.795609 -2.683901 1.55874 -2.12132 2.12132 
C -1.55874 2.683901 -0.795609 3 0 3 
z
" style="stroke: #2c7bb6"/>
    </defs>
    <g>
     <use xlink:href="#mf7949d936b" x="115.633125" y="40.498437" style="fill: #2c7bb6; stroke: #2c7bb6"/>
    </g>
   </g>
   <g id="text_37">
    <!-- claude-3-5-sonnet -->
    <g transform="translate(133.633125 43.998437) scale(0.1 -0.1)">
     <defs>
      <path id="DejaVuSans-75" d="M 544 1381 
L 544 3500 
L 1119 3500 
L 1119 1403 
Q 1119 906 1312 657 
Q 1506 409 1894 409 
Q 2359 409 2629 706 
Q 2900 1003 2900 1516 
L 2900 3500 
L 3475 3500 
L 3475 0 
L 2900 0 
L 2900 538 
Q 2691 219 2414 64 
Q 2138 -91 1772 -91 
Q 1169 -91 856 284 
Q 544 659 544 1381 
z
M 1991 3584 
L 1991 3584 
z
" transform="scale(0.015625)"/>
      <path id="DejaVuSans-35" d="M 691 4666 
L 3169 4666 
L 3169 4134 
L 1269 4134 
L 1269 2991 
Q 1406 3038 1543 3061 
Q 1681 3084 1819 3084 
Q 2600 3084 3056 2656 
Q 3513 2228 3513 1497 
Q 3513 744 3044 326 
Q 2575 -91 1722 -91 
Q 1428 -91 1123 -41 
Q 819 9 494 109 
L 494 744 
Q 775 591 1075 516 
Q 1375 441 1709 441 
Q 2250 441 2565 725 
Q 2881 1009 2881 1497 
Q 2881 1984 2565 2268 
Q 2250 2553 1709 2553 
Q 1456 2553 1204 2497 
Q 953 2441 691 2322 
L 691 4666 
z
" transform="scale(0.015625)"/>
     </defs>
     <use xlink:href="#DejaVuSans-63"/>
     <use xlink:href="#DejaVuSans-6c" x="54.980469"/>
     <use xlink:href="#DejaVuSans-61" x="82.763672"/>
     <use xlink:href="#DejaVuSans-75" x="144.042969"/>
     <use xlink:href="#DejaVuSans-64" x="207.421875"/>
     <use xlink:href="#DejaVuSans-65" x="270.898438"/>
     <use xlink:href="#DejaVuSans-2d" x="332.421875"/>
     <use xlink:href="#DejaVuSans-33" x="368.505859"/>
     <use xlink:href="#DejaVuSans-2d" x="432.128906"/>
     <use xlink:href="#DejaVuSans-35" x="468.212891"/>
     <use xlink:href="#DejaVuSans-2d" x="531.835938"/>
     <use xlink:href="#DejaVuSans-73" x="567.919922"/>
     <use xlink:href="#DejaVuSans-6f" x="620.019531"/>
     <use xlink:href="#DejaVuSans-6e" x="681.201172"/>
     <use xlink:href="#DejaVuSans-6e" x="744.580078"/>
     <use xlink:href="#DejaVuSans-65" x="807.958984"/>
     <use xlink:href="#DejaVuSans-74" x="869.482422"/>
    </g>
   </g>
   <g id="line2d_73">
    <path d="M 244.501875 40.498437 
L 254.501875 40.498437 
L 264.501875 40.498437 
" style="fill: none; stroke: #d7191c; stroke-width: 1.5; stroke-linecap: square"/>
    <defs>
     <path id="mdc242d0c7d" d="M 0 3 
C 0.795609 3 1.55874 2.683901 2.12132 2.12132 
C 2.683901 1.55874 3 0.795609 3 0 
C 3 -0.795609 2.683901 -1.55874 2.12132 -2.12132 
C 1.55874 -2.683901 0.795609 -3 0 -3 
C -0.795609 -3 -1.55874 -2.683901 -2.12132 -2.12132 
C -2.683901 -1.55874 -3 -0.795609 -3 0 
C -3 0.795609 -2.683901 1.55874 -2.12132 2.12132 
C -1.55874 2.683901 -0.795609 3 0 3 
z
" style="stroke: #d7191c"/>
    </defs>
    <g>
     <use xlink:href="#mdc242d0c7d" x="254.501875" y="40.498437" style="fill: #d7191c; stroke: #d7191c"/>
    </g>
   </g>
   <g id="text_38">
    <!-- gpt-4o-mini -->
    <g transform="translate(272.501875 43.998437) scale(0.1 -0.1)">
     <defs>
      <path id="DejaVuSans-67" d="M 2906 1791 
Q 2906 2416 2648 2759 
Q 2391 3103 1925 3103 
Q 1463 3103 1205 2759 
Q 947 2416 947 1791 
Q 947 1169 1205 825 
Q 1463 481 1925 481 
Q 2391 481 2648 825 
Q 2906 1169 2906 1791 
z
M 3481 434 
Q 3481 -459 3084 -895 
Q 2688 -1331 1869 -1331 
Q 1566 -1331 1297 -1286 
Q 1028 -1241 775 -1147 
L 775 -588 
Q 1028 -725 1275 -790 
Q 1522 -856 1778 -856 
Q 2344 -856 2625 -561 
Q 2906 -266 2906 331 
L 2906 616 
Q 2728 306 2450 153 
Q 2172 0 1784 0 
Q 1141 0 747 490 
Q 353 981 353 1791 
Q 353 2603 747 3093 
Q 1141 3584 1784 3584 
Q 2172 3584 2450 3431 
Q 2728 3278 2906 2969 
L 2906 3500 
L 3481 3500 
L 3481 434 
z
" transform="scale(0.015625)"/>
     </defs>
     <use xlink:href="#DejaVuSans-67"/>
     <use xlink:href="#DejaVuSans-70" x="63.476562"/>
     <use xlink:href="#DejaVuSans-74" x="126.953125"/>
     <use xlink:href="#DejaVuSans-2d" x="166.162109"/>
     <use xlink:href="#DejaVuSans-34" x="202.246094"/>
     <use xlink:href="#DejaVuSans-6f" x="265.869141"/>
     <use xlink:href="#DejaVuSans-2d" x="328.925781"/>
     <use xlink:href="#DejaVuSans-6d" x="365.009766"/>
     <use xlink:href="#DejaVuSans-69" x="462.421875"/>
     <use xlink:href="#DejaVuSans-6e" x="490.205078"/>
     <use xlink:href="#DejaVuSans-69" x="553.583984"/>
    </g>
   </g>
   <g id="line2d_74">
    <path d="M 350.637812 40.498437 
L 360.637812 40.498437 
L 370.637812 40.498437 
" style="fill: none; stroke: #fdae61; stroke-width: 1.5; stroke-linecap: square"/>
    <defs>
     <path id="m65626ead61" d="M 0 3 
C 0.795609 3 1.55874 2.683901 2.12132 2.12132 
C 2.683901 1.55874 3 0.795609 3 0 
C 3 -0.795609 2.683901 -1.55874 2.12132 -2.12132 
C 1.55874 -2.683901 0.795609 -3 0 -3 
C -0.795609 -3 -1.55874 -2.683901 -2.12132 -2.12132 
C -2.683901 -1.55874 -3 -0.795609 -3 0 
C -3 0.795609 -2.683901 1.55874 -2.12132 2.12132 
C -1.55874 2.683901 -0.795609 3 0 3 
z
" style="stroke: #fdae61"/>
    </defs>
    <g>
     <use xlink:href="#m65626ead61" x="360.637812" y="40.498437" style="fill: #fdae61; stroke: #fdae61"/>
    </g>
   </g>
   <g id="text_39">
    <!-- claude-3-5-haiku -->
    <g transform="translate(378.637812 43.998437) scale(0.1 -0.1)">
     <defs>
      <path id="DejaVuSans-68" d="M 3513 2113 
L 3513 0 
L 2938 0 
L 2938 2094 
Q 2938 2591 2744 2837 
Q 2550 3084 2163 3084 
Q 1697 3084 1428 2787 
Q 1159 2491 1159 1978 
L 1159 0 
L 581 0 
L 581 4863 
L 1159 4863 
L 1159 2956 
Q 1366 3272 1645 3428 
Q 1925 3584 2291 3584 
Q 2894 3584 3203 3211 
Q 3513 2838 3513 2113 
z
" transform="scale(0.015625)"/>
      <path id="DejaVuSans-6b" d="M 581 4863 
L 1159 4863 
L 1159 1991 
L 2875 3500 
L 3609 3500 
L 1753 1863 
L 3688 0 
L 2938 0 
L 1159 1709 
L 1159 0 
L 581 0 
L 581 4863 
z
" transform="scale(0.015625)"/>
     </defs>
     <use xlink:href="#DejaVuSans-63"/>
     <use xlink:href="#DejaVuSans-6c" x="54.980469"/>
     <use xlink:href="#DejaVuSans-61" x="82.763672"/>
     <use xlink:href="#DejaVuSans-75" x="144.042969"/>
     <use xlink:href="#DejaVuSans-64" x="207.421875"/>
     <use xlink:href="#DejaVuSans-65" x="270.898438"/>
     <use xlink:href="#DejaVuSans-2d" x="332.421875"/>
     <use xlink:href="#DejaVuSans-33" x="368.505859"/>
     <use xlink:href="#DejaVuSans-2d" x="432.128906"/>
     <use xlink:href="#DejaVuSans-35" x="468.212891"/>
     <use xlink:href="#DejaVuSans-2d" x="531.835938"/>
     <use xlink:href="#DejaVuSans-68" x="567.919922"/>
     <use xlink:href="#DejaVuSans-61" x="631.298828"/>
     <use xlink:href="#DejaVuSans-69" x="692.578125"/>
     <use xlink:href="#DejaVuSans-6b" x="720.361328"/>
     <use xlink:href="#DejaVuSans-75" x="775.146484"/>
    </g>
   </g>
  </g>
  <g id="legend_2">
   <g id="patch_13">
    <path d="M 136.976875 24.878125 
L 431.145625 24.878125 
Q 433.145625 24.878125 433.145625 22.878125 
L 433.145625 9.2 
Q 433.145625 7.2 431.145625 7.2 
L 136.976875 7.2 
Q 134.976875 7.2 134.976875 9.2 
L 134.976875 22.878125 
Q 134.976875 24.878125 136.976875 24.878125 
z
" style="fill: #ffffff; opacity: 0.8; stroke: #cccccc; stroke-linejoin: miter"/>
   </g>
   <g id="line2d_75">
    <path d="M 138.976875 15.298437 
L 148.976875 15.298437 
L 158.976875 15.298437 
" style="fill: none; stroke: #808080; stroke-width: 1.5; stroke-linecap: square"/>
   </g>
   <g id="text_40">
    <!-- Strong goal elicitation -->
    <g transform="translate(166.976875 18.798437) scale(0.1 -0.1)">
     <defs>
      <path id="DejaVuSans-53" d="M 3425 4513 
L 3425 3897 
Q 3066 4069 2747 4153 
Q 2428 4238 2131 4238 
Q 1616 4238 1336 4038 
Q 1056 3838 1056 3469 
Q 1056 3159 1242 3001 
Q 1428 2844 1947 2747 
L 2328 2669 
Q 3034 2534 3370 2195 
Q 3706 1856 3706 1288 
Q 3706 609 3251 259 
Q 2797 -91 1919 -91 
Q 1588 -91 1214 -16 
Q 841 59 441 206 
L 441 856 
Q 825 641 1194 531 
Q 1563 422 1919 422 
Q 2459 422 2753 634 
Q 3047 847 3047 1241 
Q 3047 1584 2836 1778 
Q 2625 1972 2144 2069 
L 1759 2144 
Q 1053 2284 737 2584 
Q 422 2884 422 3419 
Q 422 4038 858 4394 
Q 1294 4750 2059 4750 
Q 2388 4750 2728 4690 
Q 3069 4631 3425 4513 
z
" transform="scale(0.015625)"/>
     </defs>
     <use xlink:href="#DejaVuSans-53"/>
     <use xlink:href="#DejaVuSans-74" x="63.476562"/>
     <use xlink:href="#DejaVuSans-72" x="102.685547"/>
     <use xlink:href="#DejaVuSans-6f" x="141.548828"/>
     <use xlink:href="#DejaVuSans-6e" x="202.730469"/>
     <use xlink:href="#DejaVuSans-67" x="266.109375"/>
     <use xlink:href="#DejaVuSans-20" x="329.585938"/>
     <use xlink:href="#DejaVuSans-67" x="361.373047"/>
     <use xlink:href="#DejaVuSans-6f" x="424.849609"/>
     <use xlink:href="#DejaVuSans-61" x="486.03125"/>
     <use xlink:href="#DejaVuSans-6c" x="547.310547"/>
     <use xlink:href="#DejaVuSans-20" x="575.09375"/>
     <use xlink:href="#DejaVuSans-65" x="606.880859"/>
     <use xlink:href="#DejaVuSans-6c" x="668.404297"/>
     <use xlink:href="#DejaVuSans-69" x="696.1875"/>
     <use xlink:href="#DejaVuSans-63" x="723.970703"/>
     <use xlink:href="#DejaVuSans-69" x="778.951172"/>
     <use xlink:href="#DejaVuSans-74" x="806.734375"/>
     <use xlink:href="#DejaVuSans-61" x="845.943359"/>
     <use xlink:href="#DejaVuSans-74" x="907.222656"/>
     <use xlink:href="#DejaVuSans-69" x="946.431641"/>
     <use xlink:href="#DejaVuSans-6f" x="974.214844"/>
     <use xlink:href="#DejaVuSans-6e" x="1035.396484"/>
    </g>
   </g>
   <g id="line2d_76">
    <path d="M 296.855 15.298437 
L 306.855 15.298437 
L 316.855 15.298437 
" style="fill: none; stroke-dasharray: 5.55,2.4; stroke-dashoffset: 0; stroke: #808080; stroke-width: 1.5"/>
   </g>
   <g id="text_41">
    <!-- Weak goal elicitation -->
    <g transform="translate(324.855 18.798437) scale(0.1 -0.1)">
     <defs>
      <path id="DejaVuSans-57" d="M 213 4666 
L 850 4666 
L 1831 722 
L 2809 4666 
L 3519 4666 
L 4500 722 
L 5478 4666 
L 6119 4666 
L 4947 0 
L 4153 0 
L 3169 4050 
L 2175 0 
L 1381 0 
L 213 4666 
z
" transform="scale(0.015625)"/>
     </defs>
     <use xlink:href="#DejaVuSans-57"/>
     <use xlink:href="#DejaVuSans-65" x="93.001953"/>
     <use xlink:href="#DejaVuSans-61" x="154.525391"/>
     <use xlink:href="#DejaVuSans-6b" x="215.804688"/>
     <use xlink:href="#DejaVuSans-20" x="273.714844"/>
     <use xlink:href="#DejaVuSans-67" x="305.501953"/>
     <use xlink:href="#DejaVuSans-6f" x="368.978516"/>
     <use xlink:href="#DejaVuSans-61" x="430.160156"/>
     <use xlink:href="#DejaVuSans-6c" x="491.439453"/>
     <use xlink:href="#DejaVuSans-20" x="519.222656"/>
     <use xlink:href="#DejaVuSans-65" x="551.009766"/>
     <use xlink:href="#DejaVuSans-6c" x="612.533203"/>
     <use xlink:href="#DejaVuSans-69" x="640.316406"/>
     <use xlink:href="#DejaVuSans-63" x="668.099609"/>
     <use xlink:href="#DejaVuSans-69" x="723.080078"/>
     <use xlink:href="#DejaVuSans-74" x="750.863281"/>
     <use xlink:href="#DejaVuSans-61" x="790.072266"/>
     <use xlink:href="#DejaVuSans-74" x="851.351562"/>
     <use xlink:href="#DejaVuSans-69" x="890.560547"/>
     <use xlink:href="#DejaVuSans-6f" x="918.34375"/>
     <use xlink:href="#DejaVuSans-6e" x="979.525391"/>
    </g>
   </g>
  </g>
 </g>
 <defs>
  <clipPath id="p207f9e4f77">
   <rect x="47.78125" y="87.919062" width="230.88" height="278.16"/>
  </clipPath>
  <clipPath id="p56b564e037">
   <rect x="330.38125" y="87.919062" width="230.88" height="278.16"/>
  </clipPath>
 </defs>
</svg>
