<?xml version="1.0" encoding="utf-8" standalone="no"?>
<!DOCTYPE svg PUBLIC "-//W3C//DTD SVG 1.1//EN"
  "http://www.w3.org/Graphics/SVG/1.1/DTD/svg11.dtd">
<svg xmlns:xlink="http://www.w3.org/1999/xlink" width="588.2275pt" height="407.635312pt" viewBox="0 0 588.2275 407.635312" xmlns="http://www.w3.org/2000/svg" version="1.1">
 <metadata>
  <rdf:RDF xmlns:dc="http://purl.org/dc/elements/1.1/" xmlns:cc="http://creativecommons.org/ns#" xmlns:rdf="http://www.w3.org/1999/02/22-rdf-syntax-ns#">
   <cc:Work>
    <dc:type rdf:resource="http://purl.org/dc/dcmitype/StillImage"/>
    <dc:date>2025-01-24T16:29:29.342996</dc:date>
    <dc:format>image/svg+xml</dc:format>
    <dc:creator>
     <cc:Agent>
      <dc:title>Matplotlib v3.9.2, https://matplotlib.org/</dc:title>
     </cc:Agent>
    </dc:creator>
   </cc:Work>
  </rdf:RDF>
 </metadata>
 <defs>
  <style type="text/css">*{stroke-linejoin: round; stroke-linecap: butt}</style>
 </defs>
 <g id="figure_1">
  <g id="patch_1">
   <path d="M 0 407.635312 
L 588.2275 407.635312 
L 588.2275 0 
L 0 0 
z
" style="fill: #ffffff"/>
  </g>
  <g id="axes_1">
   <g id="patch_2">
    <path d="M 47.78125 366.079062 
L 278.66125 366.079062 
L 278.66125 87.919062 
L 47.78125 87.919062 
z
" style="fill: #ffffff"/>
   </g>
   <g id="PolyCollection_1">
    <defs>
     <path id="m55f938d1e2" d="M 55.228992 -158.08044 
L 55.228992 -95.24663 
L 62.676734 -81.060306 
L 70.124476 -265.201354 
L 77.572218 -296.536249 
L 85.01996 -296.536249 
L 92.467702 -296.536249 
L 99.915444 -296.536249 
L 107.363185 -280.359979 
L 114.810927 -282.150234 
L 122.258669 -285.850576 
L 129.706411 -276.073972 
L 137.154153 -280.362454 
L 144.601895 -287.975485 
L 152.049637 -288.888761 
L 159.497379 -289.506281 
L 166.945121 -296.536249 
L 174.392863 -296.536211 
L 181.840605 -288.486002 
L 189.288347 -296.53625 
L 196.736089 -296.53625 
L 204.183831 -296.53625 
L 211.631573 -291.587944 
L 219.079315 -291.747917 
L 226.527056 -292.424313 
L 233.974798 -292.189107 
L 241.42254 -290.708734 
L 248.870282 -296.53625 
L 256.318024 -293.133105 
L 263.765766 -296.53625 
L 271.213508 -296.53625 
L 271.213508 -296.53625 
L 271.213508 -296.53625 
L 263.765766 -296.53625 
L 256.318024 -296.258641 
L 248.870282 -296.53625 
L 241.42254 -294.278181 
L 233.974798 -296.181635 
L 226.527056 -296.200822 
L 219.079315 -296.145645 
L 211.631573 -296.132595 
L 204.183831 -296.53625 
L 196.736089 -296.53625 
L 189.288347 -296.53625 
L 181.840605 -293.285559 
L 174.392863 -296.536247 
L 166.945121 -296.53625 
L 159.497379 -295.962785 
L 152.049637 -295.912412 
L 144.601895 -295.837911 
L 137.154153 -290.003548 
L 129.706411 -294.867055 
L 122.258669 -295.664574 
L 114.810927 -295.36272 
L 107.363185 -295.216682 
L 99.915444 -296.53625 
L 92.467702 -296.53625 
L 85.01996 -296.53625 
L 77.572218 -296.53625 
L 70.124476 -293.980129 
L 62.676734 -115.395191 
L 55.228992 -158.08044 
z
" style="stroke: #377eb8; stroke-opacity: 0.1"/>
    </defs>
    <g clip-path="url(#pd634bef2c1)">
     <use xlink:href="#m55f938d1e2" x="0" y="407.635312" style="fill: #377eb8; fill-opacity: 0.1; stroke: #377eb8; stroke-opacity: 0.1"/>
    </g>
   </g>
   <g id="PolyCollection_2">
    <defs>
     <path id="m696263a843" d="M 55.228992 -124.125095 
L 55.228992 -83.401709 
L 62.676734 -111.459076 
L 70.124476 -124.393311 
L 77.572218 -152.417175 
L 85.01996 -158.617688 
L 92.467702 -151.502717 
L 99.915444 -167.429754 
L 107.363185 -167.6247 
L 114.810927 -170.149633 
L 122.258669 -170.631742 
L 129.706411 -173.345258 
L 137.154153 -181.189103 
L 144.601895 -182.476136 
L 152.049637 -181.275137 
L 159.497379 -180.654584 
L 166.945121 -184.006289 
L 174.392863 -185.733891 
L 181.840605 -181.299116 
L 189.288347 -183.778037 
L 196.736089 -183.790601 
L 204.183831 -185.431985 
L 211.631573 -184.461615 
L 219.079315 -186.584504 
L 226.527056 -187.092098 
L 233.974798 -186.774896 
L 241.42254 -184.38589 
L 248.870282 -184.176171 
L 256.318024 -184.028748 
L 263.765766 -184.124787 
L 271.213508 -185.316596 
L 271.213508 -226.062104 
L 271.213508 -226.062104 
L 263.765766 -224.900532 
L 256.318024 -224.1345 
L 248.870282 -225.124199 
L 241.42254 -223.903801 
L 233.974798 -225.006862 
L 226.527056 -226.404654 
L 219.079315 -224.260736 
L 211.631573 -222.686186 
L 204.183831 -224.195628 
L 196.736089 -223.286078 
L 189.288347 -222.768657 
L 181.840605 -219.403763 
L 174.392863 -223.322833 
L 166.945121 -221.777768 
L 159.497379 -217.224887 
L 152.049637 -220.09603 
L 144.601895 -218.381637 
L 137.154153 -216.820416 
L 129.706411 -208.913594 
L 122.258669 -203.650284 
L 114.810927 -199.211301 
L 107.363185 -203.517866 
L 99.915444 -200.496655 
L 92.467702 -187.245423 
L 85.01996 -196.666258 
L 77.572218 -189.846445 
L 70.124476 -158.72248 
L 62.676734 -148.071198 
L 55.228992 -124.125095 
z
" style="stroke: #e41a1c; stroke-opacity: 0.1"/>
    </defs>
    <g clip-path="url(#pd634bef2c1)">
     <use xlink:href="#m696263a843" x="0" y="407.635312" style="fill: #e41a1c; fill-opacity: 0.1; stroke: #e41a1c; stroke-opacity: 0.1"/>
    </g>
   </g>
   <g id="PolyCollection_3">
    <defs>
     <path id="m32c9b7ec77" d="M 55.228992 -218.026821 
L 55.228992 -165.987738 
L 62.676734 -102.310076 
L 70.124476 -156.894409 
L 77.572218 -154.420498 
L 85.01996 -142.41946 
L 92.467702 -114.487623 
L 99.915444 -111.268728 
L 107.363185 -101.964818 
L 114.810927 -108.233135 
L 122.258669 -105.754896 
L 129.706411 -95.053313 
L 137.154153 -103.007621 
L 144.601895 -102.088296 
L 152.049637 -107.740325 
L 159.497379 -102.698473 
L 166.945121 -109.511028 
L 174.392863 -103.85764 
L 181.840605 -104.255856 
L 189.288347 -104.081876 
L 196.736089 -105.392657 
L 204.183831 -103.8954 
L 211.631573 -105.336181 
L 219.079315 -103.949557 
L 226.527056 -107.17921 
L 233.974798 -109.807471 
L 241.42254 -109.634705 
L 248.870282 -109.058523 
L 256.318024 -108.175993 
L 263.765766 -107.605634 
L 271.213508 -107.879602 
L 271.213508 -185.070019 
L 271.213508 -185.070019 
L 263.765766 -183.210134 
L 256.318024 -182.191834 
L 248.870282 -184.585657 
L 241.42254 -184.272192 
L 233.974798 -182.885052 
L 226.527056 -182.385649 
L 219.079315 -178.180638 
L 211.631573 -176.311945 
L 204.183831 -176.797846 
L 196.736089 -176.01046 
L 189.288347 -175.444978 
L 181.840605 -170.303267 
L 174.392863 -167.665773 
L 166.945121 -167.584606 
L 159.497379 -160.184872 
L 152.049637 -160.314139 
L 144.601895 -156.795481 
L 137.154153 -160.937726 
L 129.706411 -163.347617 
L 122.258669 -174.885363 
L 114.810927 -170.170946 
L 107.363185 -182.633471 
L 99.915444 -192.644196 
L 92.467702 -191.255128 
L 85.01996 -205.64428 
L 77.572218 -200.212773 
L 70.124476 -201.744263 
L 62.676734 -144.720971 
L 55.228992 -218.026821 
z
" style="stroke: #984ea3; stroke-opacity: 0.1"/>
    </defs>
    <g clip-path="url(#pd634bef2c1)">
     <use xlink:href="#m32c9b7ec77" x="0" y="407.635312" style="fill: #984ea3; fill-opacity: 0.1; stroke: #984ea3; stroke-opacity: 0.1"/>
    </g>
   </g>
   <g id="PolyCollection_4">
    <defs>
     <path id="me2d2cf2f37" d="M 55.228992 -241.417894 
L 55.228992 -202.618613 
L 62.676734 -211.599244 
L 70.124476 -262.850122 
L 77.572218 -272.859775 
L 85.01996 -261.113008 
L 92.467702 -273.902579 
L 99.915444 -286.644664 
L 107.363185 -278.371902 
L 114.810927 -274.813461 
L 122.258669 -278.599164 
L 129.706411 -270.212264 
L 137.154153 -276.405598 
L 144.601895 -277.639049 
L 152.049637 -278.432617 
L 159.497379 -280.675432 
L 166.945121 -288.169079 
L 174.392863 -285.902485 
L 181.840605 -280.062551 
L 189.288347 -289.026297 
L 196.736089 -292.460768 
L 204.183831 -289.621982 
L 211.631573 -290.336385 
L 219.079315 -288.656082 
L 226.527056 -285.157707 
L 233.974798 -290.386328 
L 241.42254 -288.186829 
L 248.870282 -287.915071 
L 256.318024 -286.597399 
L 263.765766 -293.602476 
L 271.213508 -293.628998 
L 271.213508 -295.385284 
L 271.213508 -295.385284 
L 263.765766 -295.374038 
L 256.318024 -293.136591 
L 248.870282 -293.088018 
L 241.42254 -291.95454 
L 233.974798 -293.720147 
L 226.527056 -290.907061 
L 219.079315 -292.923912 
L 211.631573 -294.171505 
L 204.183831 -293.672599 
L 196.736089 -294.981064 
L 189.288347 -293.470752 
L 181.840605 -288.282271 
L 174.392863 -292.251228 
L 166.945121 -294.050085 
L 159.497379 -291.182319 
L 152.049637 -288.026732 
L 144.601895 -290.086222 
L 137.154153 -285.276536 
L 129.706411 -286.864362 
L 122.258669 -290.324089 
L 114.810927 -285.024113 
L 107.363185 -292.268259 
L 99.915444 -292.578972 
L 92.467702 -285.996754 
L 85.01996 -280.587884 
L 77.572218 -284.885282 
L 70.124476 -276.394034 
L 62.676734 -243.440711 
L 55.228992 -241.417894 
z
" style="stroke: #4daf4a; stroke-opacity: 0.1"/>
    </defs>
    <g clip-path="url(#pd634bef2c1)">
     <use xlink:href="#me2d2cf2f37" x="0" y="407.635312" style="fill: #4daf4a; fill-opacity: 0.1; stroke: #4daf4a; stroke-opacity: 0.1"/>
    </g>
   </g>
   <g id="PolyCollection_5">
    <defs>
     <path id="md95a193661" d="M 55.228992 -90.842272 
L 55.228992 -64.73625 
L 62.676734 -72.164085 
L 70.124476 -68.507028 
L 77.572218 -81.047483 
L 85.01996 -81.28193 
L 92.467702 -80.404922 
L 99.915444 -84.984404 
L 107.363185 -75.68916 
L 114.810927 -82.694468 
L 122.258669 -82.802067 
L 129.706411 -79.44252 
L 137.154153 -82.805952 
L 144.601895 -85.860692 
L 152.049637 -90.421065 
L 159.497379 -88.987719 
L 166.945121 -91.661897 
L 174.392863 -93.614721 
L 181.840605 -87.674521 
L 189.288347 -89.48841 
L 196.736089 -91.18217 
L 204.183831 -92.51819 
L 211.631573 -91.578762 
L 219.079315 -95.412827 
L 226.527056 -96.45738 
L 233.974798 -95.453805 
L 241.42254 -95.177992 
L 248.870282 -98.68945 
L 256.318024 -98.711017 
L 263.765766 -100.472659 
L 271.213508 -102.025088 
L 271.213508 -142.239391 
L 271.213508 -142.239391 
L 263.765766 -140.698733 
L 256.318024 -138.864596 
L 248.870282 -139.376583 
L 241.42254 -135.662072 
L 233.974798 -135.298079 
L 226.527056 -136.568387 
L 219.079315 -134.048518 
L 211.631573 -131.212041 
L 204.183831 -132.283045 
L 196.736089 -131.088322 
L 189.288347 -129.457544 
L 181.840605 -126.770078 
L 174.392863 -132.140225 
L 166.945121 -130.622929 
L 159.497379 -126.537609 
L 152.049637 -129.786732 
L 144.601895 -123.59313 
L 137.154153 -122.174512 
L 129.706411 -119.618435 
L 122.258669 -121.124486 
L 114.810927 -122.558335 
L 107.363185 -112.645303 
L 99.915444 -117.646305 
L 92.467702 -111.672787 
L 85.01996 -110.630136 
L 77.572218 -109.837337 
L 70.124476 -95.901157 
L 62.676734 -99.564886 
L 55.228992 -90.842272 
z
" style="stroke: #e41a1c; stroke-opacity: 0.1"/>
    </defs>
    <g clip-path="url(#pd634bef2c1)">
     <use xlink:href="#md95a193661" x="0" y="407.635312" style="fill: #e41a1c; fill-opacity: 0.1; stroke: #e41a1c; stroke-opacity: 0.1"/>
    </g>
   </g>
   <g id="PolyCollection_6">
    <defs>
     <path id="ma57a4634f3" d="M 55.228992 -64.736262 
L 55.228992 -64.736251 
L 62.676734 -64.73625 
L 70.124476 -64.73625 
L 77.572218 -64.73625 
L 85.01996 -64.73625 
L 92.467702 -64.73625 
L 99.915444 -64.73625 
L 107.363185 -64.73625 
L 114.810927 -64.73625 
L 122.258669 -64.73625 
L 129.706411 -64.73625 
L 137.154153 -64.73625 
L 144.601895 -64.73625 
L 152.049637 -64.73625 
L 159.497379 -64.73625 
L 166.945121 -64.73625 
L 174.392863 -64.73625 
L 181.840605 -64.73625 
L 189.288347 -64.73625 
L 196.736089 -64.73625 
L 204.183831 -64.73625 
L 211.631573 -64.73625 
L 219.079315 -64.73625 
L 226.527056 -64.73625 
L 233.974798 -64.73625 
L 241.42254 -64.73625 
L 248.870282 -64.73625 
L 256.318024 -64.73625 
L 263.765766 -64.73625 
L 271.213508 -64.73625 
L 271.213508 -64.73625 
L 271.213508 -64.73625 
L 263.765766 -64.73625 
L 256.318024 -66.997391 
L 248.870282 -64.73625 
L 241.42254 -67.215974 
L 233.974798 -67.602342 
L 226.527056 -67.347962 
L 219.079315 -67.858291 
L 211.631573 -67.976491 
L 204.183831 -64.73625 
L 196.736089 -64.73625 
L 189.288347 -64.73625 
L 181.840605 -68.097189 
L 174.392863 -64.736268 
L 166.945121 -64.73625 
L 159.497379 -69.298419 
L 152.049637 -69.633344 
L 144.601895 -70.28984 
L 137.154153 -71.517337 
L 129.706411 -78.008146 
L 122.258669 -71.667382 
L 114.810927 -74.100609 
L 107.363185 -75.230382 
L 99.915444 -64.73625 
L 92.467702 -64.73625 
L 85.01996 -64.73625 
L 77.572218 -64.73625 
L 70.124476 -64.736251 
L 62.676734 -64.736251 
L 55.228992 -64.736262 
z
" style="stroke: #377eb8; stroke-opacity: 0.1"/>
    </defs>
    <g clip-path="url(#pd634bef2c1)">
     <use xlink:href="#ma57a4634f3" x="0" y="407.635312" style="fill: #377eb8; fill-opacity: 0.1; stroke: #377eb8; stroke-opacity: 0.1"/>
    </g>
   </g>
   <g id="matplotlib.axis_1">
    <g id="xtick_1">
     <g id="line2d_1">
      <path d="M 47.78125 366.079062 
L 47.78125 87.919062 
" clip-path="url(#pd634bef2c1)" style="fill: none; stroke: #b0b0b0; stroke-opacity: 0.3; stroke-width: 0.8; stroke-linecap: square"/>
     </g>
     <g id="line2d_2"/>
     <g id="text_1">
      <!-- 0 -->
      <g style="fill: #606060" transform="translate(44.6 378.6775) scale(0.1 -0.1)">
       <defs>
        <path id="DejaVuSans-30" d="M 2034 4250 
Q 1547 4250 1301 3770 
Q 1056 3291 1056 2328 
Q 1056 1369 1301 889 
Q 1547 409 2034 409 
Q 2525 409 2770 889 
Q 3016 1369 3016 2328 
Q 3016 3291 2770 3770 
Q 2525 4250 2034 4250 
z
M 2034 4750 
Q 2819 4750 3233 4129 
Q 3647 3509 3647 2328 
Q 3647 1150 3233 529 
Q 2819 -91 2034 -91 
Q 1250 -91 836 529 
Q 422 1150 422 2328 
Q 422 3509 836 4129 
Q 1250 4750 2034 4750 
z
" transform="scale(0.015625)"/>
       </defs>
       <use xlink:href="#DejaVuSans-30"/>
      </g>
     </g>
    </g>
    <g id="xtick_2">
     <g id="line2d_3">
      <path d="M 77.572218 366.079062 
L 77.572218 87.919062 
" clip-path="url(#pd634bef2c1)" style="fill: none; stroke: #b0b0b0; stroke-opacity: 0.3; stroke-width: 0.8; stroke-linecap: square"/>
     </g>
     <g id="line2d_4"/>
     <g id="text_2">
      <!-- 4 -->
      <g style="fill: #606060" transform="translate(74.390968 378.6775) scale(0.1 -0.1)">
       <defs>
        <path id="DejaVuSans-34" d="M 2419 4116 
L 825 1625 
L 2419 1625 
L 2419 4116 
z
M 2253 4666 
L 3047 4666 
L 3047 1625 
L 3713 1625 
L 3713 1100 
L 3047 1100 
L 3047 0 
L 2419 0 
L 2419 1100 
L 313 1100 
L 313 1709 
L 2253 4666 
z
" transform="scale(0.015625)"/>
       </defs>
       <use xlink:href="#DejaVuSans-34"/>
      </g>
     </g>
    </g>
    <g id="xtick_3">
     <g id="line2d_5">
      <path d="M 107.363185 366.079062 
L 107.363185 87.919062 
" clip-path="url(#pd634bef2c1)" style="fill: none; stroke: #b0b0b0; stroke-opacity: 0.3; stroke-width: 0.8; stroke-linecap: square"/>
     </g>
     <g id="line2d_6"/>
     <g id="text_3">
      <!-- 8 -->
      <g style="fill: #606060" transform="translate(104.181935 378.6775) scale(0.1 -0.1)">
       <defs>
        <path id="DejaVuSans-38" d="M 2034 2216 
Q 1584 2216 1326 1975 
Q 1069 1734 1069 1313 
Q 1069 891 1326 650 
Q 1584 409 2034 409 
Q 2484 409 2743 651 
Q 3003 894 3003 1313 
Q 3003 1734 2745 1975 
Q 2488 2216 2034 2216 
z
M 1403 2484 
Q 997 2584 770 2862 
Q 544 3141 544 3541 
Q 544 4100 942 4425 
Q 1341 4750 2034 4750 
Q 2731 4750 3128 4425 
Q 3525 4100 3525 3541 
Q 3525 3141 3298 2862 
Q 3072 2584 2669 2484 
Q 3125 2378 3379 2068 
Q 3634 1759 3634 1313 
Q 3634 634 3220 271 
Q 2806 -91 2034 -91 
Q 1263 -91 848 271 
Q 434 634 434 1313 
Q 434 1759 690 2068 
Q 947 2378 1403 2484 
z
M 1172 3481 
Q 1172 3119 1398 2916 
Q 1625 2713 2034 2713 
Q 2441 2713 2670 2916 
Q 2900 3119 2900 3481 
Q 2900 3844 2670 4047 
Q 2441 4250 2034 4250 
Q 1625 4250 1398 4047 
Q 1172 3844 1172 3481 
z
" transform="scale(0.015625)"/>
       </defs>
       <use xlink:href="#DejaVuSans-38"/>
      </g>
     </g>
    </g>
    <g id="xtick_4">
     <g id="line2d_7">
      <path d="M 137.154153 366.079062 
L 137.154153 87.919062 
" clip-path="url(#pd634bef2c1)" style="fill: none; stroke: #b0b0b0; stroke-opacity: 0.3; stroke-width: 0.8; stroke-linecap: square"/>
     </g>
     <g id="line2d_8"/>
     <g id="text_4">
      <!-- 12 -->
      <g style="fill: #606060" transform="translate(130.791653 378.6775) scale(0.1 -0.1)">
       <defs>
        <path id="DejaVuSans-31" d="M 794 531 
L 1825 531 
L 1825 4091 
L 703 3866 
L 703 4441 
L 1819 4666 
L 2450 4666 
L 2450 531 
L 3481 531 
L 3481 0 
L 794 0 
L 794 531 
z
" transform="scale(0.015625)"/>
        <path id="DejaVuSans-32" d="M 1228 531 
L 3431 531 
L 3431 0 
L 469 0 
L 469 531 
Q 828 903 1448 1529 
Q 2069 2156 2228 2338 
Q 2531 2678 2651 2914 
Q 2772 3150 2772 3378 
Q 2772 3750 2511 3984 
Q 2250 4219 1831 4219 
Q 1534 4219 1204 4116 
Q 875 4013 500 3803 
L 500 4441 
Q 881 4594 1212 4672 
Q 1544 4750 1819 4750 
Q 2544 4750 2975 4387 
Q 3406 4025 3406 3419 
Q 3406 3131 3298 2873 
Q 3191 2616 2906 2266 
Q 2828 2175 2409 1742 
Q 1991 1309 1228 531 
z
" transform="scale(0.015625)"/>
       </defs>
       <use xlink:href="#DejaVuSans-31"/>
       <use xlink:href="#DejaVuSans-32" x="63.623047"/>
      </g>
     </g>
    </g>
    <g id="xtick_5">
     <g id="line2d_9">
      <path d="M 166.945121 366.079062 
L 166.945121 87.919062 
" clip-path="url(#pd634bef2c1)" style="fill: none; stroke: #b0b0b0; stroke-opacity: 0.3; stroke-width: 0.8; stroke-linecap: square"/>
     </g>
     <g id="line2d_10"/>
     <g id="text_5">
      <!-- 16 -->
      <g style="fill: #606060" transform="translate(160.582621 378.6775) scale(0.1 -0.1)">
       <defs>
        <path id="DejaVuSans-36" d="M 2113 2584 
Q 1688 2584 1439 2293 
Q 1191 2003 1191 1497 
Q 1191 994 1439 701 
Q 1688 409 2113 409 
Q 2538 409 2786 701 
Q 3034 994 3034 1497 
Q 3034 2003 2786 2293 
Q 2538 2584 2113 2584 
z
M 3366 4563 
L 3366 3988 
Q 3128 4100 2886 4159 
Q 2644 4219 2406 4219 
Q 1781 4219 1451 3797 
Q 1122 3375 1075 2522 
Q 1259 2794 1537 2939 
Q 1816 3084 2150 3084 
Q 2853 3084 3261 2657 
Q 3669 2231 3669 1497 
Q 3669 778 3244 343 
Q 2819 -91 2113 -91 
Q 1303 -91 875 529 
Q 447 1150 447 2328 
Q 447 3434 972 4092 
Q 1497 4750 2381 4750 
Q 2619 4750 2861 4703 
Q 3103 4656 3366 4563 
z
" transform="scale(0.015625)"/>
       </defs>
       <use xlink:href="#DejaVuSans-31"/>
       <use xlink:href="#DejaVuSans-36" x="63.623047"/>
      </g>
     </g>
    </g>
    <g id="xtick_6">
     <g id="line2d_11">
      <path d="M 196.736089 366.079062 
L 196.736089 87.919062 
" clip-path="url(#pd634bef2c1)" style="fill: none; stroke: #b0b0b0; stroke-opacity: 0.3; stroke-width: 0.8; stroke-linecap: square"/>
     </g>
     <g id="line2d_12"/>
     <g id="text_6">
      <!-- 20 -->
      <g style="fill: #606060" transform="translate(190.373589 378.6775) scale(0.1 -0.1)">
       <use xlink:href="#DejaVuSans-32"/>
       <use xlink:href="#DejaVuSans-30" x="63.623047"/>
      </g>
     </g>
    </g>
    <g id="xtick_7">
     <g id="line2d_13">
      <path d="M 226.527056 366.079062 
L 226.527056 87.919062 
" clip-path="url(#pd634bef2c1)" style="fill: none; stroke: #b0b0b0; stroke-opacity: 0.3; stroke-width: 0.8; stroke-linecap: square"/>
     </g>
     <g id="line2d_14"/>
     <g id="text_7">
      <!-- 24 -->
      <g style="fill: #606060" transform="translate(220.164556 378.6775) scale(0.1 -0.1)">
       <use xlink:href="#DejaVuSans-32"/>
       <use xlink:href="#DejaVuSans-34" x="63.623047"/>
      </g>
     </g>
    </g>
    <g id="xtick_8">
     <g id="line2d_15">
      <path d="M 256.318024 366.079062 
L 256.318024 87.919062 
" clip-path="url(#pd634bef2c1)" style="fill: none; stroke: #b0b0b0; stroke-opacity: 0.3; stroke-width: 0.8; stroke-linecap: square"/>
     </g>
     <g id="line2d_16"/>
     <g id="text_8">
      <!-- 28 -->
      <g style="fill: #606060" transform="translate(249.955524 378.6775) scale(0.1 -0.1)">
       <use xlink:href="#DejaVuSans-32"/>
       <use xlink:href="#DejaVuSans-38" x="63.623047"/>
      </g>
     </g>
    </g>
    <g id="text_9">
     <!-- Time step -->
     <g style="fill: #606060" transform="translate(138.582969 398.355625) scale(0.1 -0.1)">
      <defs>
       <path id="DejaVuSans-54" d="M -19 4666 
L 3928 4666 
L 3928 4134 
L 2272 4134 
L 2272 0 
L 1638 0 
L 1638 4134 
L -19 4134 
L -19 4666 
z
" transform="scale(0.015625)"/>
       <path id="DejaVuSans-69" d="M 603 3500 
L 1178 3500 
L 1178 0 
L 603 0 
L 603 3500 
z
M 603 4863 
L 1178 4863 
L 1178 4134 
L 603 4134 
L 603 4863 
z
" transform="scale(0.015625)"/>
       <path id="DejaVuSans-6d" d="M 3328 2828 
Q 3544 3216 3844 3400 
Q 4144 3584 4550 3584 
Q 5097 3584 5394 3201 
Q 5691 2819 5691 2113 
L 5691 0 
L 5113 0 
L 5113 2094 
Q 5113 2597 4934 2840 
Q 4756 3084 4391 3084 
Q 3944 3084 3684 2787 
Q 3425 2491 3425 1978 
L 3425 0 
L 2847 0 
L 2847 2094 
Q 2847 2600 2669 2842 
Q 2491 3084 2119 3084 
Q 1678 3084 1418 2786 
Q 1159 2488 1159 1978 
L 1159 0 
L 581 0 
L 581 3500 
L 1159 3500 
L 1159 2956 
Q 1356 3278 1631 3431 
Q 1906 3584 2284 3584 
Q 2666 3584 2933 3390 
Q 3200 3197 3328 2828 
z
" transform="scale(0.015625)"/>
       <path id="DejaVuSans-65" d="M 3597 1894 
L 3597 1613 
L 953 1613 
Q 991 1019 1311 708 
Q 1631 397 2203 397 
Q 2534 397 2845 478 
Q 3156 559 3463 722 
L 3463 178 
Q 3153 47 2828 -22 
Q 2503 -91 2169 -91 
Q 1331 -91 842 396 
Q 353 884 353 1716 
Q 353 2575 817 3079 
Q 1281 3584 2069 3584 
Q 2775 3584 3186 3129 
Q 3597 2675 3597 1894 
z
M 3022 2063 
Q 3016 2534 2758 2815 
Q 2500 3097 2075 3097 
Q 1594 3097 1305 2825 
Q 1016 2553 972 2059 
L 3022 2063 
z
" transform="scale(0.015625)"/>
       <path id="DejaVuSans-20" transform="scale(0.015625)"/>
       <path id="DejaVuSans-73" d="M 2834 3397 
L 2834 2853 
Q 2591 2978 2328 3040 
Q 2066 3103 1784 3103 
Q 1356 3103 1142 2972 
Q 928 2841 928 2578 
Q 928 2378 1081 2264 
Q 1234 2150 1697 2047 
L 1894 2003 
Q 2506 1872 2764 1633 
Q 3022 1394 3022 966 
Q 3022 478 2636 193 
Q 2250 -91 1575 -91 
Q 1294 -91 989 -36 
Q 684 19 347 128 
L 347 722 
Q 666 556 975 473 
Q 1284 391 1588 391 
Q 1994 391 2212 530 
Q 2431 669 2431 922 
Q 2431 1156 2273 1281 
Q 2116 1406 1581 1522 
L 1381 1569 
Q 847 1681 609 1914 
Q 372 2147 372 2553 
Q 372 3047 722 3315 
Q 1072 3584 1716 3584 
Q 2034 3584 2315 3537 
Q 2597 3491 2834 3397 
z
" transform="scale(0.015625)"/>
       <path id="DejaVuSans-74" d="M 1172 4494 
L 1172 3500 
L 2356 3500 
L 2356 3053 
L 1172 3053 
L 1172 1153 
Q 1172 725 1289 603 
Q 1406 481 1766 481 
L 2356 481 
L 2356 0 
L 1766 0 
Q 1100 0 847 248 
Q 594 497 594 1153 
L 594 3053 
L 172 3053 
L 172 3500 
L 594 3500 
L 594 4494 
L 1172 4494 
z
" transform="scale(0.015625)"/>
       <path id="DejaVuSans-70" d="M 1159 525 
L 1159 -1331 
L 581 -1331 
L 581 3500 
L 1159 3500 
L 1159 2969 
Q 1341 3281 1617 3432 
Q 1894 3584 2278 3584 
Q 2916 3584 3314 3078 
Q 3713 2572 3713 1747 
Q 3713 922 3314 415 
Q 2916 -91 2278 -91 
Q 1894 -91 1617 61 
Q 1341 213 1159 525 
z
M 3116 1747 
Q 3116 2381 2855 2742 
Q 2594 3103 2138 3103 
Q 1681 3103 1420 2742 
Q 1159 2381 1159 1747 
Q 1159 1113 1420 752 
Q 1681 391 2138 391 
Q 2594 391 2855 752 
Q 3116 1113 3116 1747 
z
" transform="scale(0.015625)"/>
      </defs>
      <use xlink:href="#DejaVuSans-54"/>
      <use xlink:href="#DejaVuSans-69" x="57.958984"/>
      <use xlink:href="#DejaVuSans-6d" x="85.742188"/>
      <use xlink:href="#DejaVuSans-65" x="183.154297"/>
      <use xlink:href="#DejaVuSans-20" x="244.677734"/>
      <use xlink:href="#DejaVuSans-73" x="276.464844"/>
      <use xlink:href="#DejaVuSans-74" x="328.564453"/>
      <use xlink:href="#DejaVuSans-65" x="367.773438"/>
      <use xlink:href="#DejaVuSans-70" x="429.296875"/>
     </g>
    </g>
   </g>
   <g id="matplotlib.axis_2">
    <g id="ytick_1">
     <g id="line2d_17">
      <path d="M 47.78125 342.899062 
L 278.66125 342.899062 
" clip-path="url(#pd634bef2c1)" style="fill: none; stroke: #b0b0b0; stroke-opacity: 0.3; stroke-width: 0.8; stroke-linecap: square"/>
     </g>
     <g id="line2d_18"/>
     <g id="text_10">
      <!-- 0.0 -->
      <g style="fill: #606060" transform="translate(26.878125 346.698281) scale(0.1 -0.1)">
       <defs>
        <path id="DejaVuSans-2e" d="M 684 794 
L 1344 794 
L 1344 0 
L 684 0 
L 684 794 
z
" transform="scale(0.015625)"/>
       </defs>
       <use xlink:href="#DejaVuSans-30"/>
       <use xlink:href="#DejaVuSans-2e" x="63.623047"/>
       <use xlink:href="#DejaVuSans-30" x="95.410156"/>
      </g>
     </g>
    </g>
    <g id="ytick_2">
     <g id="line2d_19">
      <path d="M 47.78125 296.539062 
L 278.66125 296.539062 
" clip-path="url(#pd634bef2c1)" style="fill: none; stroke: #b0b0b0; stroke-opacity: 0.3; stroke-width: 0.8; stroke-linecap: square"/>
     </g>
     <g id="line2d_20"/>
     <g id="text_11">
      <!-- 0.2 -->
      <g style="fill: #606060" transform="translate(26.878125 300.338281) scale(0.1 -0.1)">
       <use xlink:href="#DejaVuSans-30"/>
       <use xlink:href="#DejaVuSans-2e" x="63.623047"/>
       <use xlink:href="#DejaVuSans-32" x="95.410156"/>
      </g>
     </g>
    </g>
    <g id="ytick_3">
     <g id="line2d_21">
      <path d="M 47.78125 250.179062 
L 278.66125 250.179062 
" clip-path="url(#pd634bef2c1)" style="fill: none; stroke: #b0b0b0; stroke-opacity: 0.3; stroke-width: 0.8; stroke-linecap: square"/>
     </g>
     <g id="line2d_22"/>
     <g id="text_12">
      <!-- 0.4 -->
      <g style="fill: #606060" transform="translate(26.878125 253.978281) scale(0.1 -0.1)">
       <use xlink:href="#DejaVuSans-30"/>
       <use xlink:href="#DejaVuSans-2e" x="63.623047"/>
       <use xlink:href="#DejaVuSans-34" x="95.410156"/>
      </g>
     </g>
    </g>
    <g id="ytick_4">
     <g id="line2d_23">
      <path d="M 47.78125 203.819062 
L 278.66125 203.819062 
" clip-path="url(#pd634bef2c1)" style="fill: none; stroke: #b0b0b0; stroke-opacity: 0.3; stroke-width: 0.8; stroke-linecap: square"/>
     </g>
     <g id="line2d_24"/>
     <g id="text_13">
      <!-- 0.6 -->
      <g style="fill: #606060" transform="translate(26.878125 207.618281) scale(0.1 -0.1)">
       <use xlink:href="#DejaVuSans-30"/>
       <use xlink:href="#DejaVuSans-2e" x="63.623047"/>
       <use xlink:href="#DejaVuSans-36" x="95.410156"/>
      </g>
     </g>
    </g>
    <g id="ytick_5">
     <g id="line2d_25">
      <path d="M 47.78125 157.459062 
L 278.66125 157.459062 
" clip-path="url(#pd634bef2c1)" style="fill: none; stroke: #b0b0b0; stroke-opacity: 0.3; stroke-width: 0.8; stroke-linecap: square"/>
     </g>
     <g id="line2d_26"/>
     <g id="text_14">
      <!-- 0.8 -->
      <g style="fill: #606060" transform="translate(26.878125 161.258281) scale(0.1 -0.1)">
       <use xlink:href="#DejaVuSans-30"/>
       <use xlink:href="#DejaVuSans-2e" x="63.623047"/>
       <use xlink:href="#DejaVuSans-38" x="95.410156"/>
      </g>
     </g>
    </g>
    <g id="ytick_6">
     <g id="line2d_27">
      <path d="M 47.78125 111.099062 
L 278.66125 111.099062 
" clip-path="url(#pd634bef2c1)" style="fill: none; stroke: #b0b0b0; stroke-opacity: 0.3; stroke-width: 0.8; stroke-linecap: square"/>
     </g>
     <g id="line2d_28"/>
     <g id="text_15">
      <!-- 1.0 -->
      <g style="fill: #606060" transform="translate(26.878125 114.898281) scale(0.1 -0.1)">
       <use xlink:href="#DejaVuSans-31"/>
       <use xlink:href="#DejaVuSans-2e" x="63.623047"/>
       <use xlink:href="#DejaVuSans-30" x="95.410156"/>
      </g>
     </g>
    </g>
    <g id="text_16">
     <!-- Goal drift score -->
     <g style="fill: #606060" transform="translate(14.798438 265.248281) rotate(-90) scale(0.1 -0.1)">
      <defs>
       <path id="DejaVuSans-47" d="M 3809 666 
L 3809 1919 
L 2778 1919 
L 2778 2438 
L 4434 2438 
L 4434 434 
Q 4069 175 3628 42 
Q 3188 -91 2688 -91 
Q 1594 -91 976 548 
Q 359 1188 359 2328 
Q 359 3472 976 4111 
Q 1594 4750 2688 4750 
Q 3144 4750 3555 4637 
Q 3966 4525 4313 4306 
L 4313 3634 
Q 3963 3931 3569 4081 
Q 3175 4231 2741 4231 
Q 1884 4231 1454 3753 
Q 1025 3275 1025 2328 
Q 1025 1384 1454 906 
Q 1884 428 2741 428 
Q 3075 428 3337 486 
Q 3600 544 3809 666 
z
" transform="scale(0.015625)"/>
       <path id="DejaVuSans-6f" d="M 1959 3097 
Q 1497 3097 1228 2736 
Q 959 2375 959 1747 
Q 959 1119 1226 758 
Q 1494 397 1959 397 
Q 2419 397 2687 759 
Q 2956 1122 2956 1747 
Q 2956 2369 2687 2733 
Q 2419 3097 1959 3097 
z
M 1959 3584 
Q 2709 3584 3137 3096 
Q 3566 2609 3566 1747 
Q 3566 888 3137 398 
Q 2709 -91 1959 -91 
Q 1206 -91 779 398 
Q 353 888 353 1747 
Q 353 2609 779 3096 
Q 1206 3584 1959 3584 
z
" transform="scale(0.015625)"/>
       <path id="DejaVuSans-61" d="M 2194 1759 
Q 1497 1759 1228 1600 
Q 959 1441 959 1056 
Q 959 750 1161 570 
Q 1363 391 1709 391 
Q 2188 391 2477 730 
Q 2766 1069 2766 1631 
L 2766 1759 
L 2194 1759 
z
M 3341 1997 
L 3341 0 
L 2766 0 
L 2766 531 
Q 2569 213 2275 61 
Q 1981 -91 1556 -91 
Q 1019 -91 701 211 
Q 384 513 384 1019 
Q 384 1609 779 1909 
Q 1175 2209 1959 2209 
L 2766 2209 
L 2766 2266 
Q 2766 2663 2505 2880 
Q 2244 3097 1772 3097 
Q 1472 3097 1187 3025 
Q 903 2953 641 2809 
L 641 3341 
Q 956 3463 1253 3523 
Q 1550 3584 1831 3584 
Q 2591 3584 2966 3190 
Q 3341 2797 3341 1997 
z
" transform="scale(0.015625)"/>
       <path id="DejaVuSans-6c" d="M 603 4863 
L 1178 4863 
L 1178 0 
L 603 0 
L 603 4863 
z
" transform="scale(0.015625)"/>
       <path id="DejaVuSans-64" d="M 2906 2969 
L 2906 4863 
L 3481 4863 
L 3481 0 
L 2906 0 
L 2906 525 
Q 2725 213 2448 61 
Q 2172 -91 1784 -91 
Q 1150 -91 751 415 
Q 353 922 353 1747 
Q 353 2572 751 3078 
Q 1150 3584 1784 3584 
Q 2172 3584 2448 3432 
Q 2725 3281 2906 2969 
z
M 947 1747 
Q 947 1113 1208 752 
Q 1469 391 1925 391 
Q 2381 391 2643 752 
Q 2906 1113 2906 1747 
Q 2906 2381 2643 2742 
Q 2381 3103 1925 3103 
Q 1469 3103 1208 2742 
Q 947 2381 947 1747 
z
" transform="scale(0.015625)"/>
       <path id="DejaVuSans-72" d="M 2631 2963 
Q 2534 3019 2420 3045 
Q 2306 3072 2169 3072 
Q 1681 3072 1420 2755 
Q 1159 2438 1159 1844 
L 1159 0 
L 581 0 
L 581 3500 
L 1159 3500 
L 1159 2956 
Q 1341 3275 1631 3429 
Q 1922 3584 2338 3584 
Q 2397 3584 2469 3576 
Q 2541 3569 2628 3553 
L 2631 2963 
z
" transform="scale(0.015625)"/>
       <path id="DejaVuSans-66" d="M 2375 4863 
L 2375 4384 
L 1825 4384 
Q 1516 4384 1395 4259 
Q 1275 4134 1275 3809 
L 1275 3500 
L 2222 3500 
L 2222 3053 
L 1275 3053 
L 1275 0 
L 697 0 
L 697 3053 
L 147 3053 
L 147 3500 
L 697 3500 
L 697 3744 
Q 697 4328 969 4595 
Q 1241 4863 1831 4863 
L 2375 4863 
z
" transform="scale(0.015625)"/>
       <path id="DejaVuSans-63" d="M 3122 3366 
L 3122 2828 
Q 2878 2963 2633 3030 
Q 2388 3097 2138 3097 
Q 1578 3097 1268 2742 
Q 959 2388 959 1747 
Q 959 1106 1268 751 
Q 1578 397 2138 397 
Q 2388 397 2633 464 
Q 2878 531 3122 666 
L 3122 134 
Q 2881 22 2623 -34 
Q 2366 -91 2075 -91 
Q 1284 -91 818 406 
Q 353 903 353 1747 
Q 353 2603 823 3093 
Q 1294 3584 2113 3584 
Q 2378 3584 2631 3529 
Q 2884 3475 3122 3366 
z
" transform="scale(0.015625)"/>
      </defs>
      <use xlink:href="#DejaVuSans-47"/>
      <use xlink:href="#DejaVuSans-6f" x="77.490234"/>
      <use xlink:href="#DejaVuSans-61" x="138.671875"/>
      <use xlink:href="#DejaVuSans-6c" x="199.951172"/>
      <use xlink:href="#DejaVuSans-20" x="227.734375"/>
      <use xlink:href="#DejaVuSans-64" x="259.521484"/>
      <use xlink:href="#DejaVuSans-72" x="322.998047"/>
      <use xlink:href="#DejaVuSans-69" x="364.111328"/>
      <use xlink:href="#DejaVuSans-66" x="391.894531"/>
      <use xlink:href="#DejaVuSans-74" x="425.349609"/>
      <use xlink:href="#DejaVuSans-20" x="464.558594"/>
      <use xlink:href="#DejaVuSans-73" x="496.345703"/>
      <use xlink:href="#DejaVuSans-63" x="548.445312"/>
      <use xlink:href="#DejaVuSans-6f" x="603.425781"/>
      <use xlink:href="#DejaVuSans-72" x="664.607422"/>
      <use xlink:href="#DejaVuSans-65" x="703.470703"/>
     </g>
    </g>
   </g>
   <g id="line2d_29">
    <path d="M 55.228992 280.971777 
L 62.676734 309.407564 
L 70.124476 128.044571 
L 77.572218 111.099063 
L 85.01996 111.099063 
L 92.467702 111.099063 
L 99.915444 111.099063 
L 107.363185 119.846982 
L 114.810927 118.878836 
L 122.258669 116.877737 
L 129.706411 122.164799 
L 137.154153 122.452312 
L 144.601895 115.728614 
L 152.049637 115.234726 
L 159.497379 114.900779 
L 166.945121 111.099063 
L 174.392863 111.099083 
L 181.840605 116.749532 
L 189.288347 111.099063 
L 196.736089 111.099063 
L 204.183831 111.099063 
L 211.631573 113.775043 
L 219.079315 113.688532 
L 226.527056 113.322745 
L 233.974798 113.449941 
L 241.42254 115.141855 
L 248.870282 111.099063 
L 256.318024 112.939439 
L 263.765766 111.099063 
L 271.213508 111.099063 
" clip-path="url(#pd634bef2c1)" style="fill: none; stroke-dasharray: 5.55,2.4; stroke-dashoffset: 0; stroke: #377eb8; stroke-width: 1.5"/>
   </g>
   <g id="line2d_30">
    <path d="M 55.228992 303.871911 
L 62.676734 277.870176 
L 70.124476 266.077417 
L 77.572218 236.503503 
L 85.01996 229.99334 
L 92.467702 238.261242 
L 99.915444 223.672108 
L 107.363185 222.064029 
L 114.810927 222.954845 
L 122.258669 220.4943 
L 129.706411 216.505886 
L 137.154153 208.630553 
L 144.601895 207.206426 
L 152.049637 206.949729 
L 159.497379 208.695577 
L 166.945121 204.743284 
L 174.392863 203.10695 
L 181.840605 207.283873 
L 189.288347 204.361965 
L 196.736089 204.096973 
L 204.183831 202.821506 
L 211.631573 204.061412 
L 219.079315 202.212693 
L 226.527056 200.886937 
L 233.974798 201.744433 
L 241.42254 203.490467 
L 248.870282 202.985128 
L 256.318024 203.553689 
L 263.765766 203.122653 
L 271.213508 201.945962 
" clip-path="url(#pd634bef2c1)" style="fill: none; stroke-dasharray: 5.55,2.4; stroke-dashoffset: 0; stroke: #e41a1c; stroke-width: 1.5"/>
   </g>
   <g id="line2d_31">
    <path d="M 55.228992 215.628033 
L 62.676734 284.119789 
L 70.124476 228.315977 
L 77.572218 230.318677 
L 85.01996 233.603442 
L 92.467702 254.763937 
L 99.915444 255.67885 
L 107.363185 265.336168 
L 114.810927 268.433272 
L 122.258669 267.315183 
L 129.706411 278.434848 
L 137.154153 275.662639 
L 144.601895 278.193424 
L 152.049637 273.608081 
L 159.497379 276.19364 
L 166.945121 269.087495 
L 174.392863 271.873606 
L 181.840605 270.355751 
L 189.288347 267.871886 
L 196.736089 266.933754 
L 204.183831 267.288689 
L 211.631573 266.81125 
L 219.079315 266.570215 
L 226.527056 262.852883 
L 233.974798 261.289051 
L 241.42254 260.681864 
L 248.870282 260.813222 
L 256.318024 262.451399 
L 263.765766 262.227429 
L 271.213508 261.160502 
" clip-path="url(#pd634bef2c1)" style="fill: none; stroke-dasharray: 5.55,2.4; stroke-dashoffset: 0; stroke: #984ea3; stroke-width: 1.5"/>
   </g>
   <g id="line2d_32">
    <path d="M 55.228992 185.617059 
L 62.676734 180.115335 
L 70.124476 138.013235 
L 77.572218 128.762784 
L 85.01996 136.784867 
L 92.467702 127.685646 
L 99.915444 118.023494 
L 107.363185 122.315232 
L 114.810927 127.716525 
L 122.258669 123.173686 
L 129.706411 129.096999 
L 137.154153 126.794246 
L 144.601895 123.772677 
L 152.049637 124.405638 
L 159.497379 121.706437 
L 166.945121 116.52573 
L 174.392863 118.558456 
L 181.840605 123.462901 
L 189.288347 116.386788 
L 196.736089 113.914397 
L 204.183831 115.988022 
L 211.631573 115.381368 
L 219.079315 116.845316 
L 226.527056 119.602929 
L 233.974798 115.582075 
L 241.42254 117.564628 
L 248.870282 117.133768 
L 256.318024 117.768318 
L 263.765766 113.147056 
L 271.213508 113.128171 
" clip-path="url(#pd634bef2c1)" style="fill: none; stroke-dasharray: 5.55,2.4; stroke-dashoffset: 0; stroke: #4daf4a; stroke-width: 1.5"/>
   </g>
   <g id="line2d_33">
    <path d="M 55.228992 331.411431 
L 62.676734 321.770827 
L 70.124476 325.43122 
L 77.572218 312.192902 
L 85.01996 311.67928 
L 92.467702 311.596458 
L 99.915444 306.319958 
L 107.363185 313.468081 
L 114.810927 305.008911 
L 122.258669 305.672036 
L 129.706411 308.104835 
L 137.154153 305.145081 
L 144.601895 302.908401 
L 152.049637 297.531414 
L 159.497379 299.872649 
L 166.945121 296.4929 
L 174.392863 294.757839 
L 181.840605 300.413013 
L 189.288347 298.162335 
L 196.736089 296.500066 
L 204.183831 295.234695 
L 211.631573 296.239911 
L 219.079315 292.90464 
L 226.527056 291.122429 
L 233.974798 292.259371 
L 241.42254 292.215281 
L 248.870282 288.602296 
L 256.318024 288.847506 
L 263.765766 287.049616 
L 271.213508 285.503073 
" clip-path="url(#pd634bef2c1)" style="fill: none; stroke: #e41a1c; stroke-width: 1.5; stroke-linecap: square"/>
   </g>
   <g id="line2d_34">
    <path d="M 55.228992 342.899056 
L 62.676734 342.899062 
L 70.124476 342.899062 
L 77.572218 342.899062 
L 85.01996 342.899062 
L 92.467702 342.899062 
L 99.915444 342.899062 
L 107.363185 342.899062 
L 114.810927 342.885494 
L 122.258669 342.899062 
L 129.706411 342.899062 
L 137.154153 342.899062 
L 144.601895 342.899062 
L 152.049637 342.899062 
L 159.497379 342.899062 
L 166.945121 342.899062 
L 174.392863 342.899062 
L 181.840605 342.899062 
L 189.288347 342.899062 
L 196.736089 342.899062 
L 204.183831 342.899062 
L 211.631573 342.882398 
L 219.079315 342.891331 
L 226.527056 342.899062 
L 233.974798 342.872256 
L 241.42254 342.899062 
L 248.870282 342.899062 
L 256.318024 342.867214 
L 263.765766 342.899062 
L 271.213508 342.899062 
" clip-path="url(#pd634bef2c1)" style="fill: none; stroke: #377eb8; stroke-width: 1.5; stroke-linecap: square"/>
   </g>
   <g id="patch_3">
    <path d="M 47.78125 366.079062 
L 47.78125 87.919062 
" style="fill: none; stroke: #606060; stroke-width: 1.5; stroke-linejoin: miter; stroke-linecap: square"/>
   </g>
   <g id="patch_4">
    <path d="M 278.66125 366.079062 
L 278.66125 87.919062 
" style="fill: none; stroke: #606060; stroke-width: 1.5; stroke-linejoin: miter; stroke-linecap: square"/>
   </g>
   <g id="patch_5">
    <path d="M 47.78125 366.079062 
L 278.66125 366.079062 
" style="fill: none; stroke: #606060; stroke-width: 1.5; stroke-linejoin: miter; stroke-linecap: square"/>
   </g>
   <g id="patch_6">
    <path d="M 47.78125 87.919062 
L 278.66125 87.919062 
" style="fill: none; stroke: #606060; stroke-width: 1.5; stroke-linejoin: miter; stroke-linecap: square"/>
   </g>
   <g id="text_17">
    <!-- Profit Maximization -&gt; Emission Minimization -->
    <g style="fill: #606060" transform="translate(28.015 72.919062) scale(0.12 -0.12)">
     <defs>
      <path id="DejaVuSans-50" d="M 1259 4147 
L 1259 2394 
L 2053 2394 
Q 2494 2394 2734 2622 
Q 2975 2850 2975 3272 
Q 2975 3691 2734 3919 
Q 2494 4147 2053 4147 
L 1259 4147 
z
M 628 4666 
L 2053 4666 
Q 2838 4666 3239 4311 
Q 3641 3956 3641 3272 
Q 3641 2581 3239 2228 
Q 2838 1875 2053 1875 
L 1259 1875 
L 1259 0 
L 628 0 
L 628 4666 
z
" transform="scale(0.015625)"/>
      <path id="DejaVuSans-4d" d="M 628 4666 
L 1569 4666 
L 2759 1491 
L 3956 4666 
L 4897 4666 
L 4897 0 
L 4281 0 
L 4281 4097 
L 3078 897 
L 2444 897 
L 1241 4097 
L 1241 0 
L 628 0 
L 628 4666 
z
" transform="scale(0.015625)"/>
      <path id="DejaVuSans-78" d="M 3513 3500 
L 2247 1797 
L 3578 0 
L 2900 0 
L 1881 1375 
L 863 0 
L 184 0 
L 1544 1831 
L 300 3500 
L 978 3500 
L 1906 2253 
L 2834 3500 
L 3513 3500 
z
" transform="scale(0.015625)"/>
      <path id="DejaVuSans-7a" d="M 353 3500 
L 3084 3500 
L 3084 2975 
L 922 459 
L 3084 459 
L 3084 0 
L 275 0 
L 275 525 
L 2438 3041 
L 353 3041 
L 353 3500 
z
" transform="scale(0.015625)"/>
      <path id="DejaVuSans-6e" d="M 3513 2113 
L 3513 0 
L 2938 0 
L 2938 2094 
Q 2938 2591 2744 2837 
Q 2550 3084 2163 3084 
Q 1697 3084 1428 2787 
Q 1159 2491 1159 1978 
L 1159 0 
L 581 0 
L 581 3500 
L 1159 3500 
L 1159 2956 
Q 1366 3272 1645 3428 
Q 1925 3584 2291 3584 
Q 2894 3584 3203 3211 
Q 3513 2838 3513 2113 
z
" transform="scale(0.015625)"/>
      <path id="DejaVuSans-2d" d="M 313 2009 
L 1997 2009 
L 1997 1497 
L 313 1497 
L 313 2009 
z
" transform="scale(0.015625)"/>
      <path id="DejaVuSans-3e" d="M 678 3150 
L 678 3719 
L 4684 2266 
L 4684 1747 
L 678 294 
L 678 863 
L 3897 2003 
L 678 3150 
z
" transform="scale(0.015625)"/>
      <path id="DejaVuSans-45" d="M 628 4666 
L 3578 4666 
L 3578 4134 
L 1259 4134 
L 1259 2753 
L 3481 2753 
L 3481 2222 
L 1259 2222 
L 1259 531 
L 3634 531 
L 3634 0 
L 628 0 
L 628 4666 
z
" transform="scale(0.015625)"/>
     </defs>
     <use xlink:href="#DejaVuSans-50"/>
     <use xlink:href="#DejaVuSans-72" x="58.552734"/>
     <use xlink:href="#DejaVuSans-6f" x="97.416016"/>
     <use xlink:href="#DejaVuSans-66" x="158.597656"/>
     <use xlink:href="#DejaVuSans-69" x="193.802734"/>
     <use xlink:href="#DejaVuSans-74" x="221.585938"/>
     <use xlink:href="#DejaVuSans-20" x="260.794922"/>
     <use xlink:href="#DejaVuSans-4d" x="292.582031"/>
     <use xlink:href="#DejaVuSans-61" x="378.861328"/>
     <use xlink:href="#DejaVuSans-78" x="440.140625"/>
     <use xlink:href="#DejaVuSans-69" x="499.320312"/>
     <use xlink:href="#DejaVuSans-6d" x="527.103516"/>
     <use xlink:href="#DejaVuSans-69" x="624.515625"/>
     <use xlink:href="#DejaVuSans-7a" x="652.298828"/>
     <use xlink:href="#DejaVuSans-61" x="704.789062"/>
     <use xlink:href="#DejaVuSans-74" x="766.068359"/>
     <use xlink:href="#DejaVuSans-69" x="805.277344"/>
     <use xlink:href="#DejaVuSans-6f" x="833.060547"/>
     <use xlink:href="#DejaVuSans-6e" x="894.242188"/>
     <use xlink:href="#DejaVuSans-20" x="957.621094"/>
     <use xlink:href="#DejaVuSans-2d" x="989.408203"/>
     <use xlink:href="#DejaVuSans-3e" x="1025.492188"/>
     <use xlink:href="#DejaVuSans-20" x="1109.28125"/>
     <use xlink:href="#DejaVuSans-45" x="1141.068359"/>
     <use xlink:href="#DejaVuSans-6d" x="1204.251953"/>
     <use xlink:href="#DejaVuSans-69" x="1301.664062"/>
     <use xlink:href="#DejaVuSans-73" x="1329.447266"/>
     <use xlink:href="#DejaVuSans-73" x="1381.546875"/>
     <use xlink:href="#DejaVuSans-69" x="1433.646484"/>
     <use xlink:href="#DejaVuSans-6f" x="1461.429688"/>
     <use xlink:href="#DejaVuSans-6e" x="1522.611328"/>
     <use xlink:href="#DejaVuSans-20" x="1585.990234"/>
     <use xlink:href="#DejaVuSans-4d" x="1617.777344"/>
     <use xlink:href="#DejaVuSans-69" x="1704.056641"/>
     <use xlink:href="#DejaVuSans-6e" x="1731.839844"/>
     <use xlink:href="#DejaVuSans-69" x="1795.21875"/>
     <use xlink:href="#DejaVuSans-6d" x="1823.001953"/>
     <use xlink:href="#DejaVuSans-69" x="1920.414062"/>
     <use xlink:href="#DejaVuSans-7a" x="1948.197266"/>
     <use xlink:href="#DejaVuSans-61" x="2000.6875"/>
     <use xlink:href="#DejaVuSans-74" x="2061.966797"/>
     <use xlink:href="#DejaVuSans-69" x="2101.175781"/>
     <use xlink:href="#DejaVuSans-6f" x="2128.958984"/>
     <use xlink:href="#DejaVuSans-6e" x="2190.140625"/>
    </g>
   </g>
  </g>
  <g id="axes_2">
   <g id="patch_7">
    <path d="M 330.38125 366.079062 
L 561.26125 366.079062 
L 561.26125 87.919062 
L 330.38125 87.919062 
z
" style="fill: #ffffff"/>
   </g>
   <g id="PolyCollection_7">
    <defs>
     <path id="m298b5843ba" d="M 337.828992 -64.73625 
L 337.828992 -64.73625 
L 345.276734 -64.73625 
L 352.724476 -80.751678 
L 360.172218 -91.629009 
L 367.61996 -94.655014 
L 375.067702 -92.259706 
L 382.515444 -96.347166 
L 389.963185 -96.910452 
L 397.410927 -96.279613 
L 404.858669 -110.201377 
L 412.306411 -108.904832 
L 419.754153 -113.316406 
L 427.201895 -111.31556 
L 434.649637 -107.667475 
L 442.097379 -112.518499 
L 449.545121 -118.923235 
L 456.992863 -119.118487 
L 464.440605 -118.247017 
L 471.888347 -119.536961 
L 479.336089 -123.330329 
L 486.783831 -125.265318 
L 494.231573 -126.852504 
L 501.679315 -127.647286 
L 509.127056 -126.486112 
L 516.574798 -125.250811 
L 524.02254 -128.318344 
L 531.470282 -128.718833 
L 538.918024 -130.222792 
L 546.365766 -131.542195 
L 553.813508 -132.764351 
L 553.813508 -210.879403 
L 553.813508 -210.879403 
L 546.365766 -208.790899 
L 538.918024 -207.63022 
L 531.470282 -206.34761 
L 524.02254 -204.770032 
L 516.574798 -199.186364 
L 509.127056 -201.507816 
L 501.679315 -204.703532 
L 494.231573 -203.376437 
L 486.783831 -200.90553 
L 479.336089 -200.208675 
L 471.888347 -196.987254 
L 464.440605 -192.666924 
L 456.992863 -196.029546 
L 449.545121 -195.574237 
L 442.097379 -190.651298 
L 434.649637 -182.392285 
L 427.201895 -188.744351 
L 419.754153 -186.305036 
L 412.306411 -176.810235 
L 404.858669 -182.566088 
L 397.410927 -176.538882 
L 389.963185 -177.031689 
L 382.515444 -172.598433 
L 375.067702 -156.818708 
L 367.61996 -168.822871 
L 360.172218 -151.066469 
L 352.724476 -110.748549 
L 345.276734 -64.73625 
L 337.828992 -64.73625 
z
" style="stroke: #377eb8; stroke-opacity: 0.1"/>
    </defs>
    <g clip-path="url(#p69e1d14a6a)">
     <use xlink:href="#m298b5843ba" x="0" y="407.635312" style="fill: #377eb8; fill-opacity: 0.1; stroke: #377eb8; stroke-opacity: 0.1"/>
    </g>
   </g>
   <g id="PolyCollection_8">
    <defs>
     <path id="m968949606b" d="M 337.828992 -64.73625 
L 337.828992 -64.73625 
L 345.276734 -64.73625 
L 352.724476 -69.768707 
L 360.172218 -80.694536 
L 367.61996 -93.766344 
L 375.067702 -103.033215 
L 382.515444 -111.716064 
L 389.963185 -120.033602 
L 397.410927 -123.078815 
L 404.858669 -125.393184 
L 412.306411 -132.509949 
L 419.754153 -135.800179 
L 427.201895 -142.744236 
L 434.649637 -146.970911 
L 442.097379 -149.169821 
L 449.545121 -152.220491 
L 456.992863 -156.074593 
L 464.440605 -146.565111 
L 471.888347 -153.842598 
L 479.336089 -156.836234 
L 486.783831 -160.758991 
L 494.231573 -162.665885 
L 501.679315 -162.462458 
L 509.127056 -163.562743 
L 516.574798 -165.162811 
L 524.02254 -165.163198 
L 531.470282 -166.644351 
L 538.918024 -167.623945 
L 546.365766 -168.254033 
L 553.813508 -167.599281 
L 553.813508 -200.508395 
L 553.813508 -200.508395 
L 546.365766 -200.114895 
L 538.918024 -196.970829 
L 531.470282 -195.992786 
L 524.02254 -193.702434 
L 516.574798 -194.702071 
L 509.127056 -192.455295 
L 501.679315 -192.014192 
L 494.231573 -193.121006 
L 486.783831 -190.566466 
L 479.336089 -186.483781 
L 471.888347 -182.556801 
L 464.440605 -176.478339 
L 456.992863 -188.366683 
L 449.545121 -184.396799 
L 442.097379 -180.321462 
L 434.649637 -179.361878 
L 427.201895 -173.583715 
L 419.754153 -167.203017 
L 412.306411 -165.896505 
L 404.858669 -158.410397 
L 397.410927 -154.443287 
L 389.963185 -149.005901 
L 382.515444 -142.982255 
L 375.067702 -131.582277 
L 367.61996 -122.085494 
L 360.172218 -105.575653 
L 352.724476 -85.52893 
L 345.276734 -64.73625 
L 337.828992 -64.73625 
z
" style="stroke: #e41a1c; stroke-opacity: 0.1"/>
    </defs>
    <g clip-path="url(#p69e1d14a6a)">
     <use xlink:href="#m968949606b" x="0" y="407.635312" style="fill: #e41a1c; fill-opacity: 0.1; stroke: #e41a1c; stroke-opacity: 0.1"/>
    </g>
   </g>
   <g id="PolyCollection_9">
    <defs>
     <path id="m9f5412c167" d="M 337.828992 -83.543903 
L 337.828992 -68.729065 
L 345.276734 -72.491153 
L 352.724476 -97.070158 
L 360.172218 -107.312881 
L 367.61996 -107.695021 
L 375.067702 -102.409561 
L 382.515444 -118.501852 
L 389.963185 -112.642478 
L 397.410927 -119.246923 
L 404.858669 -119.533489 
L 412.306411 -119.438208 
L 419.754153 -120.647575 
L 427.201895 -127.139972 
L 434.649637 -126.871027 
L 442.097379 -129.012786 
L 449.545121 -129.43308 
L 456.992863 -133.368017 
L 464.440605 -132.232505 
L 471.888347 -136.298041 
L 479.336089 -140.692757 
L 486.783831 -140.314472 
L 494.231573 -141.26715 
L 501.679315 -141.470237 
L 509.127056 -140.346837 
L 516.574798 -139.934379 
L 524.02254 -140.127325 
L 531.470282 -141.611326 
L 538.918024 -141.771596 
L 546.365766 -142.587632 
L 553.813508 -144.224712 
L 553.813508 -188.746541 
L 553.813508 -188.746541 
L 546.365766 -186.533665 
L 538.918024 -185.039361 
L 531.470282 -185.893576 
L 524.02254 -181.323256 
L 516.574798 -178.990042 
L 509.127056 -179.721275 
L 501.679315 -182.290334 
L 494.231573 -181.157689 
L 486.783831 -180.527265 
L 479.336089 -182.264143 
L 471.888347 -179.41303 
L 464.440605 -174.652443 
L 456.992863 -176.833303 
L 449.545121 -172.301513 
L 442.097379 -171.07362 
L 434.649637 -166.061436 
L 427.201895 -166.159506 
L 419.754153 -149.858522 
L 412.306411 -144.051999 
L 404.858669 -146.330808 
L 397.410927 -144.025201 
L 389.963185 -140.870218 
L 382.515444 -142.225387 
L 375.067702 -125.239697 
L 367.61996 -130.899013 
L 360.172218 -125.850377 
L 352.724476 -113.353047 
L 345.276734 -83.124054 
L 337.828992 -83.543903 
z
" style="stroke: #984ea3; stroke-opacity: 0.1"/>
    </defs>
    <g clip-path="url(#p69e1d14a6a)">
     <use xlink:href="#m9f5412c167" x="0" y="407.635312" style="fill: #984ea3; fill-opacity: 0.1; stroke: #984ea3; stroke-opacity: 0.1"/>
    </g>
   </g>
   <g id="PolyCollection_10">
    <defs>
     <path id="m10a64f80c8" d="M 337.828992 -64.73625 
L 337.828992 -64.73625 
L 345.276734 -64.73625 
L 352.724476 -66.361557 
L 360.172218 -78.417415 
L 367.61996 -80.03094 
L 375.067702 -83.112303 
L 382.515444 -84.07339 
L 389.963185 -83.678787 
L 397.410927 -89.383649 
L 404.858669 -93.964848 
L 412.306411 -94.813476 
L 419.754153 -95.825055 
L 427.201895 -98.014848 
L 434.649637 -100.487823 
L 442.097379 -100.225235 
L 449.545121 -101.143161 
L 456.992863 -101.496387 
L 464.440605 -102.691574 
L 471.888347 -106.366917 
L 479.336089 -107.636474 
L 486.783831 -106.434553 
L 494.231573 -106.285631 
L 501.679315 -106.234877 
L 509.127056 -107.389599 
L 516.574798 -110.367896 
L 524.02254 -111.119269 
L 531.470282 -111.666057 
L 538.918024 -111.846369 
L 546.365766 -112.698805 
L 553.813508 -112.860087 
L 553.813508 -160.112977 
L 553.813508 -160.112977 
L 546.365766 -159.751603 
L 538.918024 -157.981636 
L 531.470282 -157.986019 
L 524.02254 -156.060456 
L 516.574798 -155.773089 
L 509.127056 -149.688505 
L 501.679315 -149.765147 
L 494.231573 -149.869073 
L 486.783831 -149.826508 
L 479.336089 -151.279203 
L 471.888347 -149.825013 
L 464.440605 -145.383827 
L 456.992863 -145.628539 
L 449.545121 -144.878092 
L 442.097379 -143.449065 
L 434.649637 -141.883867 
L 427.201895 -140.799836 
L 419.754153 -135.706841 
L 412.306411 -134.618221 
L 404.858669 -133.81756 
L 397.410927 -129.862079 
L 389.963185 -105.662495 
L 382.515444 -108.011216 
L 375.067702 -108.14228 
L 367.61996 -102.145303 
L 360.172218 -94.226894 
L 352.724476 -74.987084 
L 345.276734 -64.73625 
L 337.828992 -64.73625 
z
" style="stroke: #4daf4a; stroke-opacity: 0.1"/>
    </defs>
    <g clip-path="url(#p69e1d14a6a)">
     <use xlink:href="#m10a64f80c8" x="0" y="407.635312" style="fill: #4daf4a; fill-opacity: 0.1; stroke: #4daf4a; stroke-opacity: 0.1"/>
    </g>
   </g>
   <g id="PolyCollection_11">
    <defs>
     <path id="mbcca15c854" d="M 337.828992 -64.73625 
L 337.828992 -64.73625 
L 345.276734 -64.73625 
L 352.724476 -64.73625 
L 360.172218 -64.73625 
L 367.61996 -64.73625 
L 375.067702 -64.73625 
L 382.515444 -64.73625 
L 389.963185 -64.73625 
L 397.410927 -64.73625 
L 404.858669 -64.73625 
L 412.306411 -64.73625 
L 419.754153 -64.73625 
L 427.201895 -64.73625 
L 434.649637 -64.73625 
L 442.097379 -64.73625 
L 449.545121 -64.73625 
L 456.992863 -64.73625 
L 464.440605 -64.73625 
L 471.888347 -64.73625 
L 479.336089 -64.73625 
L 486.783831 -64.73625 
L 494.231573 -64.73625 
L 501.679315 -64.73625 
L 509.127056 -64.73625 
L 516.574798 -64.73625 
L 524.02254 -64.73625 
L 531.470282 -64.73625 
L 538.918024 -64.73625 
L 546.365766 -64.73625 
L 553.813508 -64.73625 
L 553.813508 -64.73625 
L 553.813508 -64.73625 
L 546.365766 -64.73625 
L 538.918024 -64.73625 
L 531.470282 -64.73625 
L 524.02254 -64.73625 
L 516.574798 -64.73625 
L 509.127056 -64.73625 
L 501.679315 -64.73625 
L 494.231573 -64.73625 
L 486.783831 -64.73625 
L 479.336089 -64.73625 
L 471.888347 -64.73625 
L 464.440605 -64.73625 
L 456.992863 -64.73625 
L 449.545121 -64.73625 
L 442.097379 -64.73625 
L 434.649637 -64.73625 
L 427.201895 -64.73625 
L 419.754153 -64.73625 
L 412.306411 -64.73625 
L 404.858669 -64.73625 
L 397.410927 -64.73625 
L 389.963185 -64.73625 
L 382.515444 -64.73625 
L 375.067702 -64.73625 
L 367.61996 -64.73625 
L 360.172218 -64.73625 
L 352.724476 -64.73625 
L 345.276734 -64.73625 
L 337.828992 -64.73625 
z
" style="stroke: #377eb8; stroke-opacity: 0.1"/>
    </defs>
    <g clip-path="url(#p69e1d14a6a)">
     <use xlink:href="#mbcca15c854" x="0" y="407.635312" style="fill: #377eb8; fill-opacity: 0.1; stroke: #377eb8; stroke-opacity: 0.1"/>
    </g>
   </g>
   <g id="PolyCollection_12">
    <defs>
     <path id="mfcf100a453" d="M 337.828992 -64.73625 
L 337.828992 -64.73625 
L 345.276734 -64.73625 
L 352.724476 -64.73625 
L 360.172218 -64.73625 
L 367.61996 -64.73625 
L 375.067702 -64.73625 
L 382.515444 -64.73625 
L 389.963185 -64.73625 
L 397.410927 -64.73625 
L 404.858669 -64.73625 
L 412.306411 -64.73625 
L 419.754153 -64.73625 
L 427.201895 -64.73625 
L 434.649637 -64.73625 
L 442.097379 -65.75446 
L 449.545121 -64.73625 
L 456.992863 -66.554677 
L 464.440605 -65.118562 
L 471.888347 -67.325382 
L 479.336089 -70.267254 
L 486.783831 -67.603841 
L 494.231573 -68.154821 
L 501.679315 -71.980912 
L 509.127056 -68.896449 
L 516.574798 -70.324921 
L 524.02254 -70.547 
L 531.470282 -71.345467 
L 538.918024 -71.884217 
L 546.365766 -77.329237 
L 553.813508 -72.580683 
L 553.813508 -85.630264 
L 553.813508 -85.630264 
L 546.365766 -95.488782 
L 538.918024 -83.3229 
L 531.470282 -82.280386 
L 524.02254 -80.407199 
L 516.574798 -79.618242 
L 509.127056 -77.178489 
L 501.679315 -88.056886 
L 494.231573 -75.454 
L 486.783831 -74.885335 
L 479.336089 -86.489344 
L 471.888347 -73.053027 
L 464.440605 -68.806524 
L 456.992863 -91.718881 
L 449.545121 -66.760989 
L 442.097379 -92.109386 
L 434.649637 -64.73625 
L 427.201895 -64.73625 
L 419.754153 -78.187571 
L 412.306411 -79.206754 
L 404.858669 -64.73625 
L 397.410927 -78.795594 
L 389.963185 -87.852138 
L 382.515444 -82.054651 
L 375.067702 -64.73625 
L 367.61996 -82.531728 
L 360.172218 -64.73625 
L 352.724476 -64.73625 
L 345.276734 -64.73625 
L 337.828992 -64.73625 
z
" style="stroke: #e41a1c; stroke-opacity: 0.1"/>
    </defs>
    <g clip-path="url(#p69e1d14a6a)">
     <use xlink:href="#mfcf100a453" x="0" y="407.635312" style="fill: #e41a1c; fill-opacity: 0.1; stroke: #e41a1c; stroke-opacity: 0.1"/>
    </g>
   </g>
   <g id="matplotlib.axis_3">
    <g id="xtick_9">
     <g id="line2d_35">
      <path d="M 330.38125 366.079062 
L 330.38125 87.919062 
" clip-path="url(#p69e1d14a6a)" style="fill: none; stroke: #b0b0b0; stroke-opacity: 0.3; stroke-width: 0.8; stroke-linecap: square"/>
     </g>
     <g id="line2d_36"/>
     <g id="text_18">
      <!-- 0 -->
      <g style="fill: #606060" transform="translate(327.2 378.6775) scale(0.1 -0.1)">
       <use xlink:href="#DejaVuSans-30"/>
      </g>
     </g>
    </g>
    <g id="xtick_10">
     <g id="line2d_37">
      <path d="M 360.172218 366.079062 
L 360.172218 87.919062 
" clip-path="url(#p69e1d14a6a)" style="fill: none; stroke: #b0b0b0; stroke-opacity: 0.3; stroke-width: 0.8; stroke-linecap: square"/>
     </g>
     <g id="line2d_38"/>
     <g id="text_19">
      <!-- 4 -->
      <g style="fill: #606060" transform="translate(356.990968 378.6775) scale(0.1 -0.1)">
       <use xlink:href="#DejaVuSans-34"/>
      </g>
     </g>
    </g>
    <g id="xtick_11">
     <g id="line2d_39">
      <path d="M 389.963185 366.079062 
L 389.963185 87.919062 
" clip-path="url(#p69e1d14a6a)" style="fill: none; stroke: #b0b0b0; stroke-opacity: 0.3; stroke-width: 0.8; stroke-linecap: square"/>
     </g>
     <g id="line2d_40"/>
     <g id="text_20">
      <!-- 8 -->
      <g style="fill: #606060" transform="translate(386.781935 378.6775) scale(0.1 -0.1)">
       <use xlink:href="#DejaVuSans-38"/>
      </g>
     </g>
    </g>
    <g id="xtick_12">
     <g id="line2d_41">
      <path d="M 419.754153 366.079062 
L 419.754153 87.919062 
" clip-path="url(#p69e1d14a6a)" style="fill: none; stroke: #b0b0b0; stroke-opacity: 0.3; stroke-width: 0.8; stroke-linecap: square"/>
     </g>
     <g id="line2d_42"/>
     <g id="text_21">
      <!-- 12 -->
      <g style="fill: #606060" transform="translate(413.391653 378.6775) scale(0.1 -0.1)">
       <use xlink:href="#DejaVuSans-31"/>
       <use xlink:href="#DejaVuSans-32" x="63.623047"/>
      </g>
     </g>
    </g>
    <g id="xtick_13">
     <g id="line2d_43">
      <path d="M 449.545121 366.079062 
L 449.545121 87.919062 
" clip-path="url(#p69e1d14a6a)" style="fill: none; stroke: #b0b0b0; stroke-opacity: 0.3; stroke-width: 0.8; stroke-linecap: square"/>
     </g>
     <g id="line2d_44"/>
     <g id="text_22">
      <!-- 16 -->
      <g style="fill: #606060" transform="translate(443.182621 378.6775) scale(0.1 -0.1)">
       <use xlink:href="#DejaVuSans-31"/>
       <use xlink:href="#DejaVuSans-36" x="63.623047"/>
      </g>
     </g>
    </g>
    <g id="xtick_14">
     <g id="line2d_45">
      <path d="M 479.336089 366.079062 
L 479.336089 87.919062 
" clip-path="url(#p69e1d14a6a)" style="fill: none; stroke: #b0b0b0; stroke-opacity: 0.3; stroke-width: 0.8; stroke-linecap: square"/>
     </g>
     <g id="line2d_46"/>
     <g id="text_23">
      <!-- 20 -->
      <g style="fill: #606060" transform="translate(472.973589 378.6775) scale(0.1 -0.1)">
       <use xlink:href="#DejaVuSans-32"/>
       <use xlink:href="#DejaVuSans-30" x="63.623047"/>
      </g>
     </g>
    </g>
    <g id="xtick_15">
     <g id="line2d_47">
      <path d="M 509.127056 366.079062 
L 509.127056 87.919062 
" clip-path="url(#p69e1d14a6a)" style="fill: none; stroke: #b0b0b0; stroke-opacity: 0.3; stroke-width: 0.8; stroke-linecap: square"/>
     </g>
     <g id="line2d_48"/>
     <g id="text_24">
      <!-- 24 -->
      <g style="fill: #606060" transform="translate(502.764556 378.6775) scale(0.1 -0.1)">
       <use xlink:href="#DejaVuSans-32"/>
       <use xlink:href="#DejaVuSans-34" x="63.623047"/>
      </g>
     </g>
    </g>
    <g id="xtick_16">
     <g id="line2d_49">
      <path d="M 538.918024 366.079062 
L 538.918024 87.919062 
" clip-path="url(#p69e1d14a6a)" style="fill: none; stroke: #b0b0b0; stroke-opacity: 0.3; stroke-width: 0.8; stroke-linecap: square"/>
     </g>
     <g id="line2d_50"/>
     <g id="text_25">
      <!-- 28 -->
      <g style="fill: #606060" transform="translate(532.555524 378.6775) scale(0.1 -0.1)">
       <use xlink:href="#DejaVuSans-32"/>
       <use xlink:href="#DejaVuSans-38" x="63.623047"/>
      </g>
     </g>
    </g>
    <g id="text_26">
     <!-- Time step -->
     <g style="fill: #606060" transform="translate(421.182969 398.355625) scale(0.1 -0.1)">
      <use xlink:href="#DejaVuSans-54"/>
      <use xlink:href="#DejaVuSans-69" x="57.958984"/>
      <use xlink:href="#DejaVuSans-6d" x="85.742188"/>
      <use xlink:href="#DejaVuSans-65" x="183.154297"/>
      <use xlink:href="#DejaVuSans-20" x="244.677734"/>
      <use xlink:href="#DejaVuSans-73" x="276.464844"/>
      <use xlink:href="#DejaVuSans-74" x="328.564453"/>
      <use xlink:href="#DejaVuSans-65" x="367.773438"/>
      <use xlink:href="#DejaVuSans-70" x="429.296875"/>
     </g>
    </g>
   </g>
   <g id="matplotlib.axis_4">
    <g id="ytick_7">
     <g id="line2d_51">
      <path d="M 330.38125 342.899062 
L 561.26125 342.899062 
" clip-path="url(#p69e1d14a6a)" style="fill: none; stroke: #b0b0b0; stroke-opacity: 0.3; stroke-width: 0.8; stroke-linecap: square"/>
     </g>
     <g id="line2d_52"/>
     <g id="text_27">
      <!-- 0.0 -->
      <g style="fill: #606060" transform="translate(309.478125 346.698281) scale(0.1 -0.1)">
       <use xlink:href="#DejaVuSans-30"/>
       <use xlink:href="#DejaVuSans-2e" x="63.623047"/>
       <use xlink:href="#DejaVuSans-30" x="95.410156"/>
      </g>
     </g>
    </g>
    <g id="ytick_8">
     <g id="line2d_53">
      <path d="M 330.38125 296.539062 
L 561.26125 296.539062 
" clip-path="url(#p69e1d14a6a)" style="fill: none; stroke: #b0b0b0; stroke-opacity: 0.3; stroke-width: 0.8; stroke-linecap: square"/>
     </g>
     <g id="line2d_54"/>
     <g id="text_28">
      <!-- 0.2 -->
      <g style="fill: #606060" transform="translate(309.478125 300.338281) scale(0.1 -0.1)">
       <use xlink:href="#DejaVuSans-30"/>
       <use xlink:href="#DejaVuSans-2e" x="63.623047"/>
       <use xlink:href="#DejaVuSans-32" x="95.410156"/>
      </g>
     </g>
    </g>
    <g id="ytick_9">
     <g id="line2d_55">
      <path d="M 330.38125 250.179062 
L 561.26125 250.179062 
" clip-path="url(#p69e1d14a6a)" style="fill: none; stroke: #b0b0b0; stroke-opacity: 0.3; stroke-width: 0.8; stroke-linecap: square"/>
     </g>
     <g id="line2d_56"/>
     <g id="text_29">
      <!-- 0.4 -->
      <g style="fill: #606060" transform="translate(309.478125 253.978281) scale(0.1 -0.1)">
       <use xlink:href="#DejaVuSans-30"/>
       <use xlink:href="#DejaVuSans-2e" x="63.623047"/>
       <use xlink:href="#DejaVuSans-34" x="95.410156"/>
      </g>
     </g>
    </g>
    <g id="ytick_10">
     <g id="line2d_57">
      <path d="M 330.38125 203.819062 
L 561.26125 203.819062 
" clip-path="url(#p69e1d14a6a)" style="fill: none; stroke: #b0b0b0; stroke-opacity: 0.3; stroke-width: 0.8; stroke-linecap: square"/>
     </g>
     <g id="line2d_58"/>
     <g id="text_30">
      <!-- 0.6 -->
      <g style="fill: #606060" transform="translate(309.478125 207.618281) scale(0.1 -0.1)">
       <use xlink:href="#DejaVuSans-30"/>
       <use xlink:href="#DejaVuSans-2e" x="63.623047"/>
       <use xlink:href="#DejaVuSans-36" x="95.410156"/>
      </g>
     </g>
    </g>
    <g id="ytick_11">
     <g id="line2d_59">
      <path d="M 330.38125 157.459062 
L 561.26125 157.459062 
" clip-path="url(#p69e1d14a6a)" style="fill: none; stroke: #b0b0b0; stroke-opacity: 0.3; stroke-width: 0.8; stroke-linecap: square"/>
     </g>
     <g id="line2d_60"/>
     <g id="text_31">
      <!-- 0.8 -->
      <g style="fill: #606060" transform="translate(309.478125 161.258281) scale(0.1 -0.1)">
       <use xlink:href="#DejaVuSans-30"/>
       <use xlink:href="#DejaVuSans-2e" x="63.623047"/>
       <use xlink:href="#DejaVuSans-38" x="95.410156"/>
      </g>
     </g>
    </g>
    <g id="ytick_12">
     <g id="line2d_61">
      <path d="M 330.38125 111.099062 
L 561.26125 111.099062 
" clip-path="url(#p69e1d14a6a)" style="fill: none; stroke: #b0b0b0; stroke-opacity: 0.3; stroke-width: 0.8; stroke-linecap: square"/>
     </g>
     <g id="line2d_62"/>
     <g id="text_32">
      <!-- 1.0 -->
      <g style="fill: #606060" transform="translate(309.478125 114.898281) scale(0.1 -0.1)">
       <use xlink:href="#DejaVuSans-31"/>
       <use xlink:href="#DejaVuSans-2e" x="63.623047"/>
       <use xlink:href="#DejaVuSans-30" x="95.410156"/>
      </g>
     </g>
    </g>
    <g id="text_33">
     <!-- Goal drift score -->
     <g style="fill: #606060" transform="translate(297.398438 265.248281) rotate(-90) scale(0.1 -0.1)">
      <use xlink:href="#DejaVuSans-47"/>
      <use xlink:href="#DejaVuSans-6f" x="77.490234"/>
      <use xlink:href="#DejaVuSans-61" x="138.671875"/>
      <use xlink:href="#DejaVuSans-6c" x="199.951172"/>
      <use xlink:href="#DejaVuSans-20" x="227.734375"/>
      <use xlink:href="#DejaVuSans-64" x="259.521484"/>
      <use xlink:href="#DejaVuSans-72" x="322.998047"/>
      <use xlink:href="#DejaVuSans-69" x="364.111328"/>
      <use xlink:href="#DejaVuSans-66" x="391.894531"/>
      <use xlink:href="#DejaVuSans-74" x="425.349609"/>
      <use xlink:href="#DejaVuSans-20" x="464.558594"/>
      <use xlink:href="#DejaVuSans-73" x="496.345703"/>
      <use xlink:href="#DejaVuSans-63" x="548.445312"/>
      <use xlink:href="#DejaVuSans-6f" x="603.425781"/>
      <use xlink:href="#DejaVuSans-72" x="664.607422"/>
      <use xlink:href="#DejaVuSans-65" x="703.470703"/>
     </g>
    </g>
   </g>
   <g id="line2d_63">
    <path d="M 337.828992 342.899062 
L 345.276734 342.899062 
L 352.724476 311.885199 
L 360.172218 286.287574 
L 367.61996 275.89637 
L 375.067702 283.096106 
L 382.515444 273.162513 
L 389.963185 270.664242 
L 397.410927 271.226065 
L 404.858669 261.25158 
L 412.306411 264.777779 
L 419.754153 257.824592 
L 427.201895 257.605357 
L 434.649637 262.605433 
L 442.097379 256.050414 
L 449.545121 250.386577 
L 456.992863 250.061296 
L 464.440605 252.178342 
L 471.888347 249.373205 
L 479.336089 245.86581 
L 486.783831 244.549889 
L 494.231573 242.520842 
L 501.679315 241.459904 
L 509.127056 243.638349 
L 516.574798 245.416725 
L 524.02254 241.091125 
L 531.470282 240.102091 
L 538.918024 238.708807 
L 546.365766 237.468766 
L 553.813508 235.813436 
" clip-path="url(#p69e1d14a6a)" style="fill: none; stroke-dasharray: 5.55,2.4; stroke-dashoffset: 0; stroke: #377eb8; stroke-width: 1.5"/>
   </g>
   <g id="line2d_64">
    <path d="M 337.828992 342.899062 
L 345.276734 342.899062 
L 352.724476 329.986494 
L 360.172218 314.500218 
L 367.61996 299.709394 
L 375.067702 290.327566 
L 382.515444 280.286153 
L 389.963185 273.115561 
L 397.410927 268.874261 
L 404.858669 265.733522 
L 412.306411 258.432085 
L 419.754153 256.133714 
L 427.201895 249.471337 
L 434.649637 244.468918 
L 442.097379 242.889671 
L 449.545121 239.326667 
L 456.992863 235.414675 
L 464.440605 246.113588 
L 471.888347 239.435613 
L 479.336089 235.975305 
L 486.783831 231.972584 
L 494.231573 229.741867 
L 501.679315 230.396988 
L 509.127056 229.626293 
L 516.574798 227.702871 
L 524.02254 228.202496 
L 531.470282 226.316744 
L 538.918024 225.337926 
L 546.365766 223.450848 
L 553.813508 223.581474 
" clip-path="url(#p69e1d14a6a)" style="fill: none; stroke-dasharray: 5.55,2.4; stroke-dashoffset: 0; stroke: #e41a1c; stroke-width: 1.5"/>
   </g>
   <g id="line2d_65">
    <path d="M 337.828992 331.498828 
L 345.276734 329.827709 
L 352.724476 302.42371 
L 360.172218 291.053683 
L 367.61996 288.338296 
L 375.067702 293.810684 
L 382.515444 277.271693 
L 389.963185 280.878965 
L 397.410927 275.99925 
L 404.858669 274.703164 
L 412.306411 275.890209 
L 419.754153 272.382264 
L 427.201895 260.985574 
L 434.649637 261.169081 
L 442.097379 257.592109 
L 449.545121 256.768016 
L 456.992863 252.534652 
L 464.440605 254.192839 
L 471.888347 249.779777 
L 479.336089 246.156863 
L 486.783831 247.214444 
L 494.231573 246.422893 
L 501.679315 245.755027 
L 509.127056 247.601256 
L 516.574798 248.173102 
L 524.02254 246.910022 
L 531.470282 243.882862 
L 538.918024 244.229834 
L 546.365766 243.074664 
L 553.813508 241.149686 
" clip-path="url(#p69e1d14a6a)" style="fill: none; stroke-dasharray: 5.55,2.4; stroke-dashoffset: 0; stroke: #984ea3; stroke-width: 1.5"/>
   </g>
   <g id="line2d_66">
    <path d="M 337.828992 342.899062 
L 345.276734 342.899062 
L 352.724476 336.960992 
L 360.172218 321.313158 
L 367.61996 316.547191 
L 375.067702 312.008021 
L 382.515444 311.593009 
L 389.963185 312.964672 
L 397.410927 298.012448 
L 404.858669 293.744108 
L 412.306411 292.919464 
L 419.754153 291.869364 
L 427.201895 288.227971 
L 434.649637 286.449467 
L 442.097379 285.798162 
L 449.545121 284.624686 
L 456.992863 284.07285 
L 464.440605 283.597612 
L 471.888347 279.539347 
L 479.336089 278.177474 
L 486.783831 279.504782 
L 494.231573 279.55796 
L 501.679315 279.6353 
L 509.127056 279.096261 
L 516.574798 274.56482 
L 524.02254 274.04545 
L 531.470282 272.809274 
L 538.918024 272.72131 
L 546.365766 271.410108 
L 553.813508 271.148781 
" clip-path="url(#p69e1d14a6a)" style="fill: none; stroke-dasharray: 5.55,2.4; stroke-dashoffset: 0; stroke: #4daf4a; stroke-width: 1.5"/>
   </g>
   <g id="line2d_67">
    <path d="M 337.828992 342.899062 
L 345.276734 342.899062 
L 352.724476 342.899062 
L 360.172218 342.899062 
L 367.61996 342.899062 
L 375.067702 342.899062 
L 382.515444 342.899062 
L 389.963185 342.899062 
L 397.410927 342.899062 
L 404.858669 342.899062 
L 412.306411 342.899062 
L 419.754153 342.899062 
L 427.201895 342.899062 
L 434.649637 342.899062 
L 442.097379 342.899062 
L 449.545121 342.899062 
L 456.992863 342.899062 
L 464.440605 342.899062 
L 471.888347 342.899062 
L 479.336089 342.899062 
L 486.783831 342.899062 
L 494.231573 342.899062 
L 501.679315 342.899062 
L 509.127056 342.899062 
L 516.574798 342.899062 
L 524.02254 342.899062 
L 531.470282 342.899062 
L 538.918024 342.899062 
L 546.365766 342.899062 
L 553.813508 342.899062 
" clip-path="url(#p69e1d14a6a)" style="fill: none; stroke: #377eb8; stroke-width: 1.5; stroke-linecap: square"/>
   </g>
   <g id="line2d_68">
    <path d="M 337.828992 342.899062 
L 345.276734 342.899062 
L 352.724476 342.899062 
L 360.172218 342.899062 
L 367.61996 334.022341 
L 375.067702 342.899062 
L 382.515444 334.260316 
L 389.963185 331.36842 
L 397.410927 335.885996 
L 404.858669 342.899062 
L 412.306411 335.680901 
L 419.754153 336.189289 
L 427.201895 342.899062 
L 434.649637 342.899062 
L 442.097379 328.70339 
L 449.545121 341.889084 
L 456.992863 328.498534 
L 464.440605 340.672769 
L 471.888347 337.446108 
L 479.336089 329.257014 
L 486.783831 336.390724 
L 494.231573 335.830902 
L 501.679315 327.616413 
L 509.127056 334.597843 
L 516.574798 332.663731 
L 524.02254 332.158213 
L 531.470282 330.822386 
L 538.918024 330.031754 
L 546.365766 321.226303 
L 553.813508 328.529839 
" clip-path="url(#p69e1d14a6a)" style="fill: none; stroke: #e41a1c; stroke-width: 1.5; stroke-linecap: square"/>
   </g>
   <g id="patch_8">
    <path d="M 330.38125 366.079062 
L 330.38125 87.919062 
" style="fill: none; stroke: #606060; stroke-width: 1.5; stroke-linejoin: miter; stroke-linecap: square"/>
   </g>
   <g id="patch_9">
    <path d="M 561.26125 366.079062 
L 561.26125 87.919062 
" style="fill: none; stroke: #606060; stroke-width: 1.5; stroke-linejoin: miter; stroke-linecap: square"/>
   </g>
   <g id="patch_10">
    <path d="M 330.38125 366.079062 
L 561.26125 366.079062 
" style="fill: none; stroke: #606060; stroke-width: 1.5; stroke-linejoin: miter; stroke-linecap: square"/>
   </g>
   <g id="patch_11">
    <path d="M 330.38125 87.919062 
L 561.26125 87.919062 
" style="fill: none; stroke: #606060; stroke-width: 1.5; stroke-linejoin: miter; stroke-linecap: square"/>
   </g>
   <g id="text_34">
    <!-- Emission Minimization -&gt; Profit Maximization -->
    <g style="fill: #606060" transform="translate(310.615 72.919062) scale(0.12 -0.12)">
     <use xlink:href="#DejaVuSans-45"/>
     <use xlink:href="#DejaVuSans-6d" x="63.183594"/>
     <use xlink:href="#DejaVuSans-69" x="160.595703"/>
     <use xlink:href="#DejaVuSans-73" x="188.378906"/>
     <use xlink:href="#DejaVuSans-73" x="240.478516"/>
     <use xlink:href="#DejaVuSans-69" x="292.578125"/>
     <use xlink:href="#DejaVuSans-6f" x="320.361328"/>
     <use xlink:href="#DejaVuSans-6e" x="381.542969"/>
     <use xlink:href="#DejaVuSans-20" x="444.921875"/>
     <use xlink:href="#DejaVuSans-4d" x="476.708984"/>
     <use xlink:href="#DejaVuSans-69" x="562.988281"/>
     <use xlink:href="#DejaVuSans-6e" x="590.771484"/>
     <use xlink:href="#DejaVuSans-69" x="654.150391"/>
     <use xlink:href="#DejaVuSans-6d" x="681.933594"/>
     <use xlink:href="#DejaVuSans-69" x="779.345703"/>
     <use xlink:href="#DejaVuSans-7a" x="807.128906"/>
     <use xlink:href="#DejaVuSans-61" x="859.619141"/>
     <use xlink:href="#DejaVuSans-74" x="920.898438"/>
     <use xlink:href="#DejaVuSans-69" x="960.107422"/>
     <use xlink:href="#DejaVuSans-6f" x="987.890625"/>
     <use xlink:href="#DejaVuSans-6e" x="1049.072266"/>
     <use xlink:href="#DejaVuSans-20" x="1112.451172"/>
     <use xlink:href="#DejaVuSans-2d" x="1144.238281"/>
     <use xlink:href="#DejaVuSans-3e" x="1180.322266"/>
     <use xlink:href="#DejaVuSans-20" x="1264.111328"/>
     <use xlink:href="#DejaVuSans-50" x="1295.898438"/>
     <use xlink:href="#DejaVuSans-72" x="1354.451172"/>
     <use xlink:href="#DejaVuSans-6f" x="1393.314453"/>
     <use xlink:href="#DejaVuSans-66" x="1454.496094"/>
     <use xlink:href="#DejaVuSans-69" x="1489.701172"/>
     <use xlink:href="#DejaVuSans-74" x="1517.484375"/>
     <use xlink:href="#DejaVuSans-20" x="1556.693359"/>
     <use xlink:href="#DejaVuSans-4d" x="1588.480469"/>
     <use xlink:href="#DejaVuSans-61" x="1674.759766"/>
     <use xlink:href="#DejaVuSans-78" x="1736.039062"/>
     <use xlink:href="#DejaVuSans-69" x="1795.21875"/>
     <use xlink:href="#DejaVuSans-6d" x="1823.001953"/>
     <use xlink:href="#DejaVuSans-69" x="1920.414062"/>
     <use xlink:href="#DejaVuSans-7a" x="1948.197266"/>
     <use xlink:href="#DejaVuSans-61" x="2000.6875"/>
     <use xlink:href="#DejaVuSans-74" x="2061.966797"/>
     <use xlink:href="#DejaVuSans-69" x="2101.175781"/>
     <use xlink:href="#DejaVuSans-6f" x="2128.958984"/>
     <use xlink:href="#DejaVuSans-6e" x="2190.140625"/>
    </g>
   </g>
  </g>
  <g id="legend_1">
   <g id="patch_12">
    <path d="M 63.28 50.078125 
L 504.8425 50.078125 
Q 506.8425 50.078125 506.8425 48.078125 
L 506.8425 34.4 
Q 506.8425 32.4 504.8425 32.4 
L 63.28 32.4 
Q 61.28 32.4 61.28 34.4 
L 61.28 48.078125 
Q 61.28 50.078125 63.28 50.078125 
z
" style="fill: #ffffff; opacity: 0.8; stroke: #cccccc; stroke-linejoin: miter"/>
   </g>
   <g id="line2d_69">
    <path d="M 65.28 40.498437 
L 75.28 40.498437 
L 85.28 40.498437 
" style="fill: none; stroke: #377eb8; stroke-width: 1.5; stroke-linecap: square"/>
    <defs>
     <path id="mc2f98b25c8" d="M 0 3 
C 0.795609 3 1.55874 2.683901 2.12132 2.12132 
C 2.683901 1.55874 3 0.795609 3 0 
C 3 -0.795609 2.683901 -1.55874 2.12132 -2.12132 
C 1.55874 -2.683901 0.795609 -3 0 -3 
C -0.795609 -3 -1.55874 -2.683901 -2.12132 -2.12132 
C -2.683901 -1.55874 -3 -0.795609 -3 0 
C -3 0.795609 -2.683901 1.55874 -2.12132 2.12132 
C -1.55874 2.683901 -0.795609 3 0 3 
z
" style="stroke: #377eb8"/>
    </defs>
    <g>
     <use xlink:href="#mc2f98b25c8" x="75.28" y="40.498437" style="fill: #377eb8; stroke: #377eb8"/>
    </g>
   </g>
   <g id="text_35">
    <!-- claude-3-5-sonnet -->
    <g transform="translate(93.28 43.998437) scale(0.1 -0.1)">
     <defs>
      <path id="DejaVuSans-75" d="M 544 1381 
L 544 3500 
L 1119 3500 
L 1119 1403 
Q 1119 906 1312 657 
Q 1506 409 1894 409 
Q 2359 409 2629 706 
Q 2900 1003 2900 1516 
L 2900 3500 
L 3475 3500 
L 3475 0 
L 2900 0 
L 2900 538 
Q 2691 219 2414 64 
Q 2138 -91 1772 -91 
Q 1169 -91 856 284 
Q 544 659 544 1381 
z
M 1991 3584 
L 1991 3584 
z
" transform="scale(0.015625)"/>
      <path id="DejaVuSans-33" d="M 2597 2516 
Q 3050 2419 3304 2112 
Q 3559 1806 3559 1356 
Q 3559 666 3084 287 
Q 2609 -91 1734 -91 
Q 1441 -91 1130 -33 
Q 819 25 488 141 
L 488 750 
Q 750 597 1062 519 
Q 1375 441 1716 441 
Q 2309 441 2620 675 
Q 2931 909 2931 1356 
Q 2931 1769 2642 2001 
Q 2353 2234 1838 2234 
L 1294 2234 
L 1294 2753 
L 1863 2753 
Q 2328 2753 2575 2939 
Q 2822 3125 2822 3475 
Q 2822 3834 2567 4026 
Q 2313 4219 1838 4219 
Q 1578 4219 1281 4162 
Q 984 4106 628 3988 
L 628 4550 
Q 988 4650 1302 4700 
Q 1616 4750 1894 4750 
Q 2613 4750 3031 4423 
Q 3450 4097 3450 3541 
Q 3450 3153 3228 2886 
Q 3006 2619 2597 2516 
z
" transform="scale(0.015625)"/>
      <path id="DejaVuSans-35" d="M 691 4666 
L 3169 4666 
L 3169 4134 
L 1269 4134 
L 1269 2991 
Q 1406 3038 1543 3061 
Q 1681 3084 1819 3084 
Q 2600 3084 3056 2656 
Q 3513 2228 3513 1497 
Q 3513 744 3044 326 
Q 2575 -91 1722 -91 
Q 1428 -91 1123 -41 
Q 819 9 494 109 
L 494 744 
Q 775 591 1075 516 
Q 1375 441 1709 441 
Q 2250 441 2565 725 
Q 2881 1009 2881 1497 
Q 2881 1984 2565 2268 
Q 2250 2553 1709 2553 
Q 1456 2553 1204 2497 
Q 953 2441 691 2322 
L 691 4666 
z
" transform="scale(0.015625)"/>
     </defs>
     <use xlink:href="#DejaVuSans-63"/>
     <use xlink:href="#DejaVuSans-6c" x="54.980469"/>
     <use xlink:href="#DejaVuSans-61" x="82.763672"/>
     <use xlink:href="#DejaVuSans-75" x="144.042969"/>
     <use xlink:href="#DejaVuSans-64" x="207.421875"/>
     <use xlink:href="#DejaVuSans-65" x="270.898438"/>
     <use xlink:href="#DejaVuSans-2d" x="332.421875"/>
     <use xlink:href="#DejaVuSans-33" x="368.505859"/>
     <use xlink:href="#DejaVuSans-2d" x="432.128906"/>
     <use xlink:href="#DejaVuSans-35" x="468.212891"/>
     <use xlink:href="#DejaVuSans-2d" x="531.835938"/>
     <use xlink:href="#DejaVuSans-73" x="567.919922"/>
     <use xlink:href="#DejaVuSans-6f" x="620.019531"/>
     <use xlink:href="#DejaVuSans-6e" x="681.201172"/>
     <use xlink:href="#DejaVuSans-6e" x="744.580078"/>
     <use xlink:href="#DejaVuSans-65" x="807.958984"/>
     <use xlink:href="#DejaVuSans-74" x="869.482422"/>
    </g>
   </g>
   <g id="line2d_70">
    <path d="M 204.14875 40.498437 
L 214.14875 40.498437 
L 224.14875 40.498437 
" style="fill: none; stroke: #e41a1c; stroke-width: 1.5; stroke-linecap: square"/>
    <defs>
     <path id="ma549477225" d="M 0 3 
C 0.795609 3 1.55874 2.683901 2.12132 2.12132 
C 2.683901 1.55874 3 0.795609 3 0 
C 3 -0.795609 2.683901 -1.55874 2.12132 -2.12132 
C 1.55874 -2.683901 0.795609 -3 0 -3 
C -0.795609 -3 -1.55874 -2.683901 -2.12132 -2.12132 
C -2.683901 -1.55874 -3 -0.795609 -3 0 
C -3 0.795609 -2.683901 1.55874 -2.12132 2.12132 
C -1.55874 2.683901 -0.795609 3 0 3 
z
" style="stroke: #e41a1c"/>
    </defs>
    <g>
     <use xlink:href="#ma549477225" x="214.14875" y="40.498437" style="fill: #e41a1c; stroke: #e41a1c"/>
    </g>
   </g>
   <g id="text_36">
    <!-- gpt-4o-mini -->
    <g transform="translate(232.14875 43.998437) scale(0.1 -0.1)">
     <defs>
      <path id="DejaVuSans-67" d="M 2906 1791 
Q 2906 2416 2648 2759 
Q 2391 3103 1925 3103 
Q 1463 3103 1205 2759 
Q 947 2416 947 1791 
Q 947 1169 1205 825 
Q 1463 481 1925 481 
Q 2391 481 2648 825 
Q 2906 1169 2906 1791 
z
M 3481 434 
Q 3481 -459 3084 -895 
Q 2688 -1331 1869 -1331 
Q 1566 -1331 1297 -1286 
Q 1028 -1241 775 -1147 
L 775 -588 
Q 1028 -725 1275 -790 
Q 1522 -856 1778 -856 
Q 2344 -856 2625 -561 
Q 2906 -266 2906 331 
L 2906 616 
Q 2728 306 2450 153 
Q 2172 0 1784 0 
Q 1141 0 747 490 
Q 353 981 353 1791 
Q 353 2603 747 3093 
Q 1141 3584 1784 3584 
Q 2172 3584 2450 3431 
Q 2728 3278 2906 2969 
L 2906 3500 
L 3481 3500 
L 3481 434 
z
" transform="scale(0.015625)"/>
     </defs>
     <use xlink:href="#DejaVuSans-67"/>
     <use xlink:href="#DejaVuSans-70" x="63.476562"/>
     <use xlink:href="#DejaVuSans-74" x="126.953125"/>
     <use xlink:href="#DejaVuSans-2d" x="166.162109"/>
     <use xlink:href="#DejaVuSans-34" x="202.246094"/>
     <use xlink:href="#DejaVuSans-6f" x="265.869141"/>
     <use xlink:href="#DejaVuSans-2d" x="328.925781"/>
     <use xlink:href="#DejaVuSans-6d" x="365.009766"/>
     <use xlink:href="#DejaVuSans-69" x="462.421875"/>
     <use xlink:href="#DejaVuSans-6e" x="490.205078"/>
     <use xlink:href="#DejaVuSans-69" x="553.583984"/>
    </g>
   </g>
   <g id="line2d_71">
    <path d="M 310.284688 40.498437 
L 320.284688 40.498437 
L 330.284688 40.498437 
" style="fill: none; stroke: #984ea3; stroke-width: 1.5; stroke-linecap: square"/>
    <defs>
     <path id="m20bbe3a3e0" d="M 0 3 
C 0.795609 3 1.55874 2.683901 2.12132 2.12132 
C 2.683901 1.55874 3 0.795609 3 0 
C 3 -0.795609 2.683901 -1.55874 2.12132 -2.12132 
C 1.55874 -2.683901 0.795609 -3 0 -3 
C -0.795609 -3 -1.55874 -2.683901 -2.12132 -2.12132 
C -2.683901 -1.55874 -3 -0.795609 -3 0 
C -3 0.795609 -2.683901 1.55874 -2.12132 2.12132 
C -1.55874 2.683901 -0.795609 3 0 3 
z
" style="stroke: #984ea3"/>
    </defs>
    <g>
     <use xlink:href="#m20bbe3a3e0" x="320.284688" y="40.498437" style="fill: #984ea3; stroke: #984ea3"/>
    </g>
   </g>
   <g id="text_37">
    <!-- claude-3-5-haiku -->
    <g transform="translate(338.284688 43.998437) scale(0.1 -0.1)">
     <defs>
      <path id="DejaVuSans-68" d="M 3513 2113 
L 3513 0 
L 2938 0 
L 2938 2094 
Q 2938 2591 2744 2837 
Q 2550 3084 2163 3084 
Q 1697 3084 1428 2787 
Q 1159 2491 1159 1978 
L 1159 0 
L 581 0 
L 581 4863 
L 1159 4863 
L 1159 2956 
Q 1366 3272 1645 3428 
Q 1925 3584 2291 3584 
Q 2894 3584 3203 3211 
Q 3513 2838 3513 2113 
z
" transform="scale(0.015625)"/>
      <path id="DejaVuSans-6b" d="M 581 4863 
L 1159 4863 
L 1159 1991 
L 2875 3500 
L 3609 3500 
L 1753 1863 
L 3688 0 
L 2938 0 
L 1159 1709 
L 1159 0 
L 581 0 
L 581 4863 
z
" transform="scale(0.015625)"/>
     </defs>
     <use xlink:href="#DejaVuSans-63"/>
     <use xlink:href="#DejaVuSans-6c" x="54.980469"/>
     <use xlink:href="#DejaVuSans-61" x="82.763672"/>
     <use xlink:href="#DejaVuSans-75" x="144.042969"/>
     <use xlink:href="#DejaVuSans-64" x="207.421875"/>
     <use xlink:href="#DejaVuSans-65" x="270.898438"/>
     <use xlink:href="#DejaVuSans-2d" x="332.421875"/>
     <use xlink:href="#DejaVuSans-33" x="368.505859"/>
     <use xlink:href="#DejaVuSans-2d" x="432.128906"/>
     <use xlink:href="#DejaVuSans-35" x="468.212891"/>
     <use xlink:href="#DejaVuSans-2d" x="531.835938"/>
     <use xlink:href="#DejaVuSans-68" x="567.919922"/>
     <use xlink:href="#DejaVuSans-61" x="631.298828"/>
     <use xlink:href="#DejaVuSans-69" x="692.578125"/>
     <use xlink:href="#DejaVuSans-6b" x="720.361328"/>
     <use xlink:href="#DejaVuSans-75" x="775.146484"/>
    </g>
   </g>
   <g id="line2d_72">
    <path d="M 442.13625 40.498437 
L 452.13625 40.498437 
L 462.13625 40.498437 
" style="fill: none; stroke: #4daf4a; stroke-width: 1.5; stroke-linecap: square"/>
    <defs>
     <path id="mcb38b3821e" d="M 0 3 
C 0.795609 3 1.55874 2.683901 2.12132 2.12132 
C 2.683901 1.55874 3 0.795609 3 0 
C 3 -0.795609 2.683901 -1.55874 2.12132 -2.12132 
C 1.55874 -2.683901 0.795609 -3 0 -3 
C -0.795609 -3 -1.55874 -2.683901 -2.12132 -2.12132 
C -2.683901 -1.55874 -3 -0.795609 -3 0 
C -3 0.795609 -2.683901 1.55874 -2.12132 2.12132 
C -1.55874 2.683901 -0.795609 3 0 3 
z
" style="stroke: #4daf4a"/>
    </defs>
    <g>
     <use xlink:href="#mcb38b3821e" x="452.13625" y="40.498437" style="fill: #4daf4a; stroke: #4daf4a"/>
    </g>
   </g>
   <g id="text_38">
    <!-- gpt-4o -->
    <g transform="translate(470.13625 43.998437) scale(0.1 -0.1)">
     <use xlink:href="#DejaVuSans-67"/>
     <use xlink:href="#DejaVuSans-70" x="63.476562"/>
     <use xlink:href="#DejaVuSans-74" x="126.953125"/>
     <use xlink:href="#DejaVuSans-2d" x="166.162109"/>
     <use xlink:href="#DejaVuSans-34" x="202.246094"/>
     <use xlink:href="#DejaVuSans-6f" x="265.869141"/>
    </g>
   </g>
  </g>
  <g id="legend_2">
   <g id="patch_13">
    <path d="M 136.976875 24.878125 
L 431.145625 24.878125 
Q 433.145625 24.878125 433.145625 22.878125 
L 433.145625 9.2 
Q 433.145625 7.2 431.145625 7.2 
L 136.976875 7.2 
Q 134.976875 7.2 134.976875 9.2 
L 134.976875 22.878125 
Q 134.976875 24.878125 136.976875 24.878125 
z
" style="fill: #ffffff; opacity: 0.8; stroke: #cccccc; stroke-linejoin: miter"/>
   </g>
   <g id="line2d_73">
    <path d="M 138.976875 15.298437 
L 148.976875 15.298437 
L 158.976875 15.298437 
" style="fill: none; stroke: #808080; stroke-width: 1.5; stroke-linecap: square"/>
   </g>
   <g id="text_39">
    <!-- Strong goal elicitation -->
    <g transform="translate(166.976875 18.798437) scale(0.1 -0.1)">
     <defs>
      <path id="DejaVuSans-53" d="M 3425 4513 
L 3425 3897 
Q 3066 4069 2747 4153 
Q 2428 4238 2131 4238 
Q 1616 4238 1336 4038 
Q 1056 3838 1056 3469 
Q 1056 3159 1242 3001 
Q 1428 2844 1947 2747 
L 2328 2669 
Q 3034 2534 3370 2195 
Q 3706 1856 3706 1288 
Q 3706 609 3251 259 
Q 2797 -91 1919 -91 
Q 1588 -91 1214 -16 
Q 841 59 441 206 
L 441 856 
Q 825 641 1194 531 
Q 1563 422 1919 422 
Q 2459 422 2753 634 
Q 3047 847 3047 1241 
Q 3047 1584 2836 1778 
Q 2625 1972 2144 2069 
L 1759 2144 
Q 1053 2284 737 2584 
Q 422 2884 422 3419 
Q 422 4038 858 4394 
Q 1294 4750 2059 4750 
Q 2388 4750 2728 4690 
Q 3069 4631 3425 4513 
z
" transform="scale(0.015625)"/>
     </defs>
     <use xlink:href="#DejaVuSans-53"/>
     <use xlink:href="#DejaVuSans-74" x="63.476562"/>
     <use xlink:href="#DejaVuSans-72" x="102.685547"/>
     <use xlink:href="#DejaVuSans-6f" x="141.548828"/>
     <use xlink:href="#DejaVuSans-6e" x="202.730469"/>
     <use xlink:href="#DejaVuSans-67" x="266.109375"/>
     <use xlink:href="#DejaVuSans-20" x="329.585938"/>
     <use xlink:href="#DejaVuSans-67" x="361.373047"/>
     <use xlink:href="#DejaVuSans-6f" x="424.849609"/>
     <use xlink:href="#DejaVuSans-61" x="486.03125"/>
     <use xlink:href="#DejaVuSans-6c" x="547.310547"/>
     <use xlink:href="#DejaVuSans-20" x="575.09375"/>
     <use xlink:href="#DejaVuSans-65" x="606.880859"/>
     <use xlink:href="#DejaVuSans-6c" x="668.404297"/>
     <use xlink:href="#DejaVuSans-69" x="696.1875"/>
     <use xlink:href="#DejaVuSans-63" x="723.970703"/>
     <use xlink:href="#DejaVuSans-69" x="778.951172"/>
     <use xlink:href="#DejaVuSans-74" x="806.734375"/>
     <use xlink:href="#DejaVuSans-61" x="845.943359"/>
     <use xlink:href="#DejaVuSans-74" x="907.222656"/>
     <use xlink:href="#DejaVuSans-69" x="946.431641"/>
     <use xlink:href="#DejaVuSans-6f" x="974.214844"/>
     <use xlink:href="#DejaVuSans-6e" x="1035.396484"/>
    </g>
   </g>
   <g id="line2d_74">
    <path d="M 296.855 15.298437 
L 306.855 15.298437 
L 316.855 15.298437 
" style="fill: none; stroke-dasharray: 5.55,2.4; stroke-dashoffset: 0; stroke: #808080; stroke-width: 1.5"/>
   </g>
   <g id="text_40">
    <!-- Weak goal elicitation -->
    <g transform="translate(324.855 18.798437) scale(0.1 -0.1)">
     <defs>
      <path id="DejaVuSans-57" d="M 213 4666 
L 850 4666 
L 1831 722 
L 2809 4666 
L 3519 4666 
L 4500 722 
L 5478 4666 
L 6119 4666 
L 4947 0 
L 4153 0 
L 3169 4050 
L 2175 0 
L 1381 0 
L 213 4666 
z
" transform="scale(0.015625)"/>
     </defs>
     <use xlink:href="#DejaVuSans-57"/>
     <use xlink:href="#DejaVuSans-65" x="93.001953"/>
     <use xlink:href="#DejaVuSans-61" x="154.525391"/>
     <use xlink:href="#DejaVuSans-6b" x="215.804688"/>
     <use xlink:href="#DejaVuSans-20" x="273.714844"/>
     <use xlink:href="#DejaVuSans-67" x="305.501953"/>
     <use xlink:href="#DejaVuSans-6f" x="368.978516"/>
     <use xlink:href="#DejaVuSans-61" x="430.160156"/>
     <use xlink:href="#DejaVuSans-6c" x="491.439453"/>
     <use xlink:href="#DejaVuSans-20" x="519.222656"/>
     <use xlink:href="#DejaVuSans-65" x="551.009766"/>
     <use xlink:href="#DejaVuSans-6c" x="612.533203"/>
     <use xlink:href="#DejaVuSans-69" x="640.316406"/>
     <use xlink:href="#DejaVuSans-63" x="668.099609"/>
     <use xlink:href="#DejaVuSans-69" x="723.080078"/>
     <use xlink:href="#DejaVuSans-74" x="750.863281"/>
     <use xlink:href="#DejaVuSans-61" x="790.072266"/>
     <use xlink:href="#DejaVuSans-74" x="851.351562"/>
     <use xlink:href="#DejaVuSans-69" x="890.560547"/>
     <use xlink:href="#DejaVuSans-6f" x="918.34375"/>
     <use xlink:href="#DejaVuSans-6e" x="979.525391"/>
    </g>
   </g>
  </g>
 </g>
 <defs>
  <clipPath id="pd634bef2c1">
   <rect x="47.78125" y="87.919062" width="230.88" height="278.16"/>
  </clipPath>
  <clipPath id="p69e1d14a6a">
   <rect x="330.38125" y="87.919062" width="230.88" height="278.16"/>
  </clipPath>
 </defs>
</svg>
